<?xml version="1.0" standalone="no"?>
<!DOCTYPE svg PUBLIC "-//W3C//DTD SVG 20010904//EN"
 "http://www.w3.org/TR/2001/REC-SVG-20010904/DTD/svg10.dtd">
<svg version="1.0" xmlns="http://www.w3.org/2000/svg"
 width="944.000000pt" height="944.000000pt" viewBox="0 0 944.000000 944.000000"
 preserveAspectRatio="xMidYMid meet">
<metadata>
Created by potrace 1.14, written by Peter Selinger 2001-2017
</metadata>
<g transform="translate(0.000000,944.000000) scale(0.100000,-0.100000)"
fill="#000000" stroke="none">
<path d="M6175 9414 c-8 -13 -15 -25 -15 -28 0 -4 -25 -59 -127 -276 -19 -41
-55 -118 -78 -170 -24 -52 -62 -135 -85 -185 -23 -49 -52 -112 -65 -140 -12
-27 -34 -76 -49 -107 -14 -31 -26 -62 -26 -67 0 -6 -4 -11 -8 -11 -4 0 -14
-17 -21 -37 -8 -21 -33 -78 -56 -128 -54 -115 -101 -217 -130 -280 -13 -27
-37 -80 -54 -117 -17 -38 -45 -98 -62 -135 -17 -38 -48 -104 -69 -148 -20 -44
-83 -179 -138 -300 -55 -121 -121 -265 -147 -320 -26 -55 -53 -113 -60 -130
-8 -16 -32 -70 -55 -120 -23 -49 -66 -142 -95 -205 -29 -63 -70 -151 -90 -195
-44 -94 -78 -168 -80 -175 -1 -3 -18 -41 -39 -85 -21 -44 -60 -129 -88 -190
-28 -60 -55 -119 -61 -130 -6 -11 -12 -24 -13 -30 -1 -5 -22 -53 -47 -105 -24
-52 -55 -117 -67 -145 -13 -27 -49 -106 -81 -174 -33 -68 -59 -125 -59 -126 0
-2 -18 -43 -41 -92 -23 -48 -56 -122 -75 -163 -19 -41 -42 -87 -50 -102 -8
-16 -12 -28 -7 -28 4 0 3 -4 -2 -8 -6 -4 -35 -61 -65 -127 -29 -66 -72 -158
-94 -205 -22 -47 -41 -87 -41 -90 -1 -5 -11 -25 -87 -190 -20 -41 -47 -100
-61 -130 -80 -176 -100 -220 -186 -404 -28 -59 -51 -110 -51 -112 0 -2 -22
-50 -49 -106 -26 -57 -59 -125 -71 -153 -13 -27 -37 -79 -53 -115 -17 -36 -31
-67 -32 -70 -3 -8 -40 -89 -89 -193 -25 -55 -46 -100 -46 -102 0 -2 -24 -54
-54 -116 -29 -63 -64 -136 -76 -164 -12 -27 -38 -84 -57 -125 -19 -41 -48
-103 -64 -137 -16 -35 -43 -93 -60 -130 -46 -100 -73 -160 -110 -238 -18 -38
-34 -72 -34 -75 -3 -10 -65 -146 -75 -162 -6 -10 -13 -35 -16 -55 -3 -21 -10
-45 -15 -54 -4 -9 -6 -19 -3 -21 2 -3 0 -17 -5 -31 -5 -14 -13 -44 -16 -68 -4
-24 -9 -47 -11 -51 -5 -8 -9 -26 -20 -83 -4 -27 -19 -92 -29 -135 -2 -8 -11
-48 -20 -89 -9 -41 -18 -77 -20 -80 -1 -3 -6 -22 -9 -41 -3 -19 -8 -46 -11
-60 -3 -14 -8 -36 -11 -50 -3 -14 -7 -33 -10 -42 -3 -10 -7 -28 -10 -40 -4
-26 -4 -25 -39 -183 -15 -66 -28 -127 -30 -135 -8 -32 -36 -156 -41 -180 -3
-14 -7 -32 -9 -40 -2 -8 -7 -30 -10 -49 -3 -19 -8 -38 -10 -41 -3 -4 28 -24
68 -43 57 -28 74 -33 82 -23 16 21 89 108 100 120 6 6 80 92 164 191 84 99
169 198 188 220 19 22 52 60 72 84 20 24 44 53 54 65 10 11 37 43 60 70 23 28
51 60 62 72 11 12 38 44 60 70 22 26 58 68 80 94 22 25 61 70 86 100 26 30 79
93 119 140 60 70 87 114 152 248 43 90 78 168 78 173 0 5 5 9 10 9 6 0 9 3 8
7 -1 5 20 53 46 108 27 55 76 156 109 225 56 117 89 185 262 545 37 77 98 203
135 280 37 77 90 187 118 245 27 58 91 191 142 295 51 105 109 226 130 270 21
44 63 131 94 194 31 63 56 120 56 128 0 7 5 13 10 13 6 0 10 4 10 10 0 5 35
83 79 172 43 90 105 219 138 288 33 69 93 193 133 275 98 204 169 352 181 378
5 12 13 29 18 37 5 8 30 58 54 110 25 52 80 167 122 255 43 88 104 216 137
285 137 284 180 374 268 555 51 105 109 226 130 270 20 44 72 152 115 240 177
366 198 410 197 417 -1 3 5 12 13 18 8 7 15 17 15 23 0 5 25 62 56 126 56 115
138 286 239 496 51 106 88 184 265 550 45 94 105 217 132 275 28 58 73 151
100 208 l51 103 -23 24 c-13 14 -29 25 -36 25 -6 0 -17 7 -24 15 -7 9 -52 39
-99 69 -258 159 -396 202 -671 212 -85 3 -163 7 -172 8 -10 2 -24 -6 -33 -20z"/>
</g>
</svg>
