<svg width="504" height="144" viewBox="0 0 504 144" fill="none" xmlns="http://www.w3.org/2000/svg">
<g clip-path="url(#clip0_1_2)">
<path d="M44.008 118H35.368V57.04H13.96V49.456H65.32V57.04H44.008V118ZM86.3043 65.68C92.5763 65.68 97.2163 67.056 100.224 69.808C103.232 72.56 104.736 76.944 104.736 82.96V118H98.5923L96.9603 110.704H96.5763C95.1043 112.56 93.5683 114.128 91.9683 115.408C90.4323 116.624 88.6403 117.52 86.5923 118.096C84.6083 118.672 82.1763 118.96 79.2963 118.96C76.2243 118.96 73.4403 118.416 70.9443 117.328C68.5123 116.24 66.5923 114.576 65.1843 112.336C63.7763 110.032 63.0723 107.152 63.0723 103.696C63.0723 98.576 65.0883 94.64 69.1203 91.888C73.1523 89.072 79.3603 87.536 87.7443 87.28L96.4803 86.992V83.92C96.4803 79.632 95.5523 76.656 93.6963 74.992C91.8403 73.328 89.2163 72.496 85.8243 72.496C83.1363 72.496 80.5763 72.912 78.1443 73.744C75.7123 74.512 73.4403 75.408 71.3282 76.432L68.7363 70.096C70.9763 68.88 73.6323 67.856 76.7043 67.024C79.7763 66.128 82.9763 65.68 86.3043 65.68ZM88.8003 93.136C82.4003 93.392 77.9523 94.416 75.4563 96.208C73.0243 98 71.8083 100.528 71.8083 103.792C71.8083 106.672 72.6723 108.784 74.4003 110.128C76.1923 111.472 78.4643 112.144 81.2163 112.144C85.5683 112.144 89.1843 110.96 92.0643 108.592C94.9443 106.16 96.3843 102.448 96.3843 97.456V92.848L88.8003 93.136ZM128.981 83.152C128.981 84.176 128.917 85.52 128.789 87.184C128.725 88.848 128.661 90.288 128.597 91.504H128.981C129.365 90.992 129.941 90.256 130.709 89.296C131.477 88.336 132.245 87.376 133.013 86.416C133.845 85.392 134.549 84.56 135.125 83.92L151.541 66.544H161.429L140.597 88.528L162.869 118H152.693L134.837 94L128.981 99.088V118H120.629V45.04H128.981V83.152ZM191.782 65.584C196.198 65.584 199.974 66.544 203.11 68.464C206.31 70.384 208.742 73.104 210.406 76.624C212.134 80.08 212.998 84.144 212.998 88.816V93.904H177.766C177.894 99.728 179.366 104.176 182.182 107.248C185.062 110.256 189.062 111.76 194.182 111.76C197.446 111.76 200.326 111.472 202.822 110.896C205.382 110.256 208.006 109.36 210.694 108.208V115.6C208.07 116.752 205.478 117.584 202.918 118.096C200.358 118.672 197.318 118.96 193.798 118.96C188.934 118.96 184.614 117.968 180.838 115.984C177.126 114 174.214 111.056 172.102 107.152C170.054 103.184 169.03 98.352 169.03 92.656C169.03 87.024 169.958 82.192 171.814 78.16C173.734 74.128 176.39 71.024 179.782 68.848C183.238 66.672 187.238 65.584 191.782 65.584ZM191.686 72.496C187.654 72.496 184.454 73.808 182.086 76.432C179.782 78.992 178.406 82.576 177.958 87.184H204.166C204.166 84.24 203.718 81.68 202.822 79.504C201.926 77.328 200.55 75.632 198.694 74.416C196.902 73.136 194.566 72.496 191.686 72.496ZM281.586 118H271.506L234.834 61.072H234.45C234.514 62.224 234.578 63.504 234.642 64.912C234.77 66.32 234.866 67.856 234.93 69.52C234.994 71.12 235.058 72.784 235.122 74.512C235.186 76.24 235.218 77.968 235.218 79.696V118H227.25V49.456H237.234L273.81 106.192H274.194C274.13 105.424 274.066 104.368 274.002 103.024C273.938 101.616 273.874 100.08 273.81 98.416C273.746 96.688 273.682 94.928 273.618 93.136C273.554 91.344 273.522 89.68 273.522 88.144V49.456H281.586V118ZM343.771 92.176C343.771 96.464 343.195 100.272 342.043 103.6C340.955 106.864 339.355 109.648 337.243 111.952C335.195 114.256 332.667 116.016 329.659 117.232C326.715 118.384 323.419 118.96 319.771 118.96C316.379 118.96 313.243 118.384 310.363 117.232C307.483 116.016 304.987 114.256 302.875 111.952C300.763 109.648 299.099 106.864 297.883 103.6C296.731 100.272 296.155 96.464 296.155 92.176C296.155 86.48 297.115 81.68 299.035 77.776C300.955 73.808 303.707 70.8 307.291 68.752C310.875 66.64 315.131 65.584 320.059 65.584C324.731 65.584 328.827 66.64 332.347 68.752C335.931 70.8 338.715 73.808 340.699 77.776C342.747 81.68 343.771 86.48 343.771 92.176ZM304.891 92.176C304.891 96.208 305.403 99.728 306.427 102.736C307.515 105.68 309.179 107.952 311.419 109.552C313.659 111.152 316.507 111.952 319.963 111.952C323.419 111.952 326.267 111.152 328.507 109.552C330.747 107.952 332.379 105.68 333.403 102.736C334.491 99.728 335.035 96.208 335.035 92.176C335.035 88.08 334.491 84.592 333.403 81.712C332.315 78.832 330.651 76.624 328.411 75.088C326.235 73.488 323.387 72.688 319.867 72.688C314.619 72.688 310.811 74.416 308.443 77.872C306.075 81.328 304.891 86.096 304.891 92.176ZM374.344 112.048C375.624 112.048 376.936 111.952 378.28 111.76C379.624 111.504 380.712 111.248 381.544 110.992V117.424C380.648 117.872 379.368 118.224 377.704 118.48C376.04 118.8 374.44 118.96 372.904 118.96C370.216 118.96 367.72 118.512 365.416 117.616C363.176 116.656 361.352 115.024 359.944 112.72C358.536 110.416 357.832 107.184 357.832 103.024V73.072H350.536V69.04L357.928 65.68L361.288 54.736H366.28V66.544H381.16V73.072H366.28V102.832C366.28 105.968 367.016 108.304 368.488 109.84C370.024 111.312 371.976 112.048 374.344 112.048ZM411.72 65.584C416.136 65.584 419.912 66.544 423.048 68.464C426.248 70.384 428.68 73.104 430.344 76.624C432.072 80.08 432.936 84.144 432.936 88.816V93.904H397.704C397.832 99.728 399.304 104.176 402.12 107.248C405 110.256 409 111.76 414.12 111.76C417.384 111.76 420.264 111.472 422.76 110.896C425.32 110.256 427.944 109.36 430.632 108.208V115.6C428.008 116.752 425.416 117.584 422.856 118.096C420.296 118.672 417.256 118.96 413.736 118.96C408.872 118.96 404.552 117.968 400.776 115.984C397.064 114 394.152 111.056 392.04 107.152C389.992 103.184 388.968 98.352 388.968 92.656C388.968 87.024 389.896 82.192 391.752 78.16C393.672 74.128 396.328 71.024 399.72 68.848C403.176 66.672 407.176 65.584 411.72 65.584ZM411.624 72.496C407.592 72.496 404.392 73.808 402.024 76.432C399.72 78.992 398.344 82.576 397.896 87.184H424.104C424.104 84.24 423.656 81.68 422.76 79.504C421.864 77.328 420.488 75.632 418.632 74.416C416.84 73.136 414.504 72.496 411.624 72.496Z" fill="#0090C1"/>
<path d="M44.008 118V122H48.008V118H44.008ZM35.368 118H31.368V122H35.368V118ZM35.368 57.04H39.368V53.04H35.368V57.04ZM13.96 57.04H9.96V61.04H13.96V57.04ZM13.96 49.456V45.456H9.96V49.456H13.96ZM65.32 49.456H69.32V45.456H65.32V49.456ZM65.32 57.04V61.04H69.32V57.04H65.32ZM44.008 57.04V53.04H40.008V57.04H44.008ZM44.008 114H35.368V122H44.008V114ZM39.368 118V57.04H31.368V118H39.368ZM35.368 53.04H13.96V61.04H35.368V53.04ZM17.96 57.04V49.456H9.96V57.04H17.96ZM13.96 53.456H65.32V45.456H13.96V53.456ZM61.32 49.456V57.04H69.32V49.456H61.32ZM65.32 53.04H44.008V61.04H65.32V53.04ZM40.008 57.04V118H48.008V57.04H40.008ZM100.224 69.808L102.924 66.8568L102.924 66.8568L100.224 69.808ZM104.736 118V122H108.736V118H104.736ZM98.5923 118L94.6887 118.873L95.3881 122H98.5923V118ZM96.9603 110.704L100.864 109.831L100.164 106.704H96.9603V110.704ZM96.5763 110.704V106.704H94.6434L93.4423 108.218L96.5763 110.704ZM91.9683 115.408L94.4511 118.544L94.4591 118.538L94.467 118.531L91.9683 115.408ZM86.5923 118.096L85.5093 114.245L85.4931 114.25L85.477 114.255L86.5923 118.096ZM70.9443 117.328L69.3108 120.979L69.3283 120.987L69.3459 120.995L70.9443 117.328ZM65.1843 112.336L61.7711 114.422L61.7843 114.443L61.7977 114.465L65.1843 112.336ZM69.1203 91.888L71.3752 95.1918L71.393 95.1797L71.4106 95.1674L69.1203 91.888ZM87.7443 87.28L87.8663 91.2781L87.876 91.2778L87.7443 87.28ZM96.4803 86.992L96.612 90.9898L100.48 90.8623V86.992H96.4803ZM93.6963 74.992L91.0261 77.9703L91.0261 77.9703L93.6963 74.992ZM78.1443 73.744L79.3488 77.5583L79.3941 77.544L79.439 77.5287L78.1443 73.744ZM71.3282 76.432L67.6261 77.9465L69.2394 81.8902L73.0733 80.0313L71.3282 76.432ZM68.7363 70.096L66.8279 66.5806L63.6763 68.2915L65.0341 71.6105L68.7363 70.096ZM76.7043 67.024L77.7499 70.8849L77.7872 70.8748L77.8243 70.864L76.7043 67.024ZM88.8003 93.136L88.6485 89.1389L88.6404 89.1392L88.8003 93.136ZM75.4563 96.208L73.1234 92.9587L73.1033 92.9731L73.0835 92.9878L75.4563 96.208ZM74.4003 110.128L71.9445 113.285L71.9722 113.307L72.0003 113.328L74.4003 110.128ZM92.0643 108.592L94.6047 111.682L94.6249 111.665L94.645 111.648L92.0643 108.592ZM96.3843 92.848H100.384V88.6932L96.2325 88.8509L96.3843 92.848ZM86.3043 69.68C92.0963 69.68 95.5635 70.9654 97.5242 72.7592L102.924 66.8568C98.869 63.1466 93.0562 61.68 86.3043 61.68V69.68ZM97.5242 72.7592C99.3762 74.4536 100.736 77.528 100.736 82.96H108.736C108.736 76.36 107.088 70.6664 102.924 66.8568L97.5242 72.7592ZM100.736 82.96V118H108.736V82.96H100.736ZM104.736 114H98.5923V122H104.736V114ZM102.496 117.127L100.864 109.831L93.0567 111.577L94.6887 118.873L102.496 117.127ZM96.9603 106.704H96.5763V114.704H96.9603V106.704ZM93.4423 108.218C92.129 109.874 90.8013 111.219 89.4695 112.285L94.467 118.531C96.3352 117.037 98.0795 115.246 99.7102 113.19L93.4423 108.218ZM89.4854 112.272C88.3987 113.132 87.0921 113.8 85.5093 114.245L87.6752 121.947C90.1884 121.24 92.4658 120.116 94.4511 118.544L89.4854 112.272ZM85.477 114.255C83.9665 114.693 81.9353 114.96 79.2963 114.96V122.96C82.4172 122.96 85.25 122.651 87.7075 121.937L85.477 114.255ZM79.2963 114.96C76.7038 114.96 74.4735 114.503 72.5426 113.661L69.3459 120.995C72.407 122.329 75.7447 122.96 79.2963 122.96V114.96ZM72.5777 113.677C70.8624 112.909 69.5547 111.773 68.5708 110.207L61.7977 114.465C63.6298 117.379 66.1621 119.571 69.3108 120.979L72.5777 113.677ZM68.5974 110.25C67.6668 108.727 67.0723 106.619 67.0723 103.696H59.0723C59.0723 107.685 59.8857 111.337 61.7711 114.422L68.5974 110.25ZM67.0723 103.696C67.0723 99.8211 68.4971 97.1563 71.3752 95.1918L66.8653 88.5842C61.6794 92.1237 59.0723 97.3309 59.0723 103.696H67.0723ZM71.4106 95.1674C74.4977 93.0113 79.7726 91.5253 87.8663 91.2781L87.6222 83.2819C78.9479 83.5467 71.8068 85.1327 66.8299 88.6086L71.4106 95.1674ZM87.876 91.2778L96.612 90.9898L96.3485 82.9942L87.6125 83.2822L87.876 91.2778ZM100.48 86.992V83.92H92.4803V86.992H100.48ZM100.48 83.92C100.48 79.2716 99.5119 74.8338 96.3664 72.0137L91.0261 77.9703C91.5926 78.4782 92.4803 79.9924 92.4803 83.92H100.48ZM96.3664 72.0137C93.5474 69.4863 89.843 68.496 85.8243 68.496V76.496C88.5895 76.496 90.1331 77.1697 91.0261 77.9703L96.3664 72.0137ZM85.8243 68.496C82.7161 68.496 79.7171 68.9783 76.8495 69.9593L79.439 77.5287C81.4354 76.8457 83.5564 76.496 85.8243 76.496V68.496ZM76.9397 69.9297C74.3383 70.7512 71.8841 71.7171 69.5832 72.8327L73.0733 80.0313C74.9964 79.0989 77.0862 78.2728 79.3488 77.5583L76.9397 69.9297ZM75.0304 74.9175L72.4384 68.5815L65.0341 71.6105L67.6261 77.9465L75.0304 74.9175ZM70.6446 73.6114C72.5538 72.575 74.9072 71.6548 77.7499 70.8849L75.6586 63.1631C72.3573 64.0572 69.3987 65.185 66.8279 66.5806L70.6446 73.6114ZM77.8243 70.864C80.518 70.0783 83.34 69.68 86.3043 69.68V61.68C82.6125 61.68 79.0345 62.1777 75.5843 63.184L77.8243 70.864ZM88.6404 89.1392C82.1442 89.399 76.6462 90.4296 73.1234 92.9587L77.7891 99.4573C79.2583 98.4024 82.6563 97.385 88.9601 97.1328L88.6404 89.1392ZM73.0835 92.9878C69.5361 95.6016 67.8083 99.3761 67.8083 103.792H75.8083C75.8083 101.68 76.5124 100.398 77.829 99.4282L73.0835 92.9878ZM67.8083 103.792C67.8083 107.485 68.9517 110.958 71.9445 113.285L76.856 106.971C76.3928 106.61 75.8083 105.859 75.8083 103.792H67.8083ZM72.0003 113.328C74.6304 115.301 77.8007 116.144 81.2163 116.144V108.144C79.1278 108.144 77.7541 107.643 76.8003 106.928L72.0003 113.328ZM81.2163 116.144C86.3323 116.144 90.8926 114.734 94.6047 111.682L89.5238 105.502C87.4759 107.186 84.8042 108.144 81.2163 108.144V116.144ZM94.645 111.648C98.6953 108.228 100.384 103.219 100.384 97.456H92.3843C92.3843 101.677 91.1932 104.092 89.4835 105.536L94.645 111.648ZM100.384 97.456V92.848H92.3843V97.456H100.384ZM96.2325 88.8509L88.6485 89.1389L88.952 97.1331L96.536 96.8451L96.2325 88.8509ZM128.789 87.184L124.801 86.8772L124.795 86.9537L124.792 87.0303L128.789 87.184ZM128.597 91.504L124.602 91.2938L124.381 95.504H128.597V91.504ZM128.981 91.504V95.504H130.981L132.181 93.904L128.981 91.504ZM130.709 89.296L127.585 86.7972L127.585 86.7972L130.709 89.296ZM133.013 86.416L129.908 83.8936L129.899 83.9054L129.889 83.9172L133.013 86.416ZM135.125 83.92L132.217 81.173L132.184 81.2082L132.152 81.2441L135.125 83.92ZM151.541 66.544V62.544H149.817L148.633 63.797L151.541 66.544ZM161.429 66.544L164.332 69.2953L170.73 62.544H161.429V66.544ZM140.597 88.528L137.693 85.7767L135.363 88.2363L137.406 90.9396L140.597 88.528ZM162.869 118V122H170.905L166.06 115.588L162.869 118ZM152.693 118L149.484 120.388L150.683 122H152.693V118ZM134.837 94L138.046 91.6123L135.47 88.1505L132.213 90.9805L134.837 94ZM128.981 99.088L126.357 96.0685L124.981 97.2645V99.088H128.981ZM128.981 118V122H132.981V118H128.981ZM120.629 118H116.629V122H120.629V118ZM120.629 45.04V41.04H116.629V45.04H120.629ZM128.981 45.04H132.981V41.04H128.981V45.04ZM124.981 83.152C124.981 84.0304 124.925 85.2605 124.801 86.8772L132.777 87.4908C132.909 85.7795 132.981 84.3216 132.981 83.152H124.981ZM124.792 87.0303C124.728 88.6817 124.665 90.102 124.602 91.2938L132.591 91.7142C132.656 90.474 132.721 89.0143 132.786 87.3377L124.792 87.0303ZM128.597 95.504H128.981V87.504H128.597V95.504ZM132.181 93.904C132.526 93.443 133.071 92.746 133.832 91.7948L127.585 86.7972C126.81 87.766 126.203 88.541 125.781 89.104L132.181 93.904ZM133.832 91.7948C134.6 90.8348 135.368 89.8748 136.136 88.9148L129.889 83.9172C129.121 84.8772 128.353 85.8372 127.585 86.7972L133.832 91.7948ZM136.117 88.9384C136.926 87.9423 137.584 87.167 138.098 86.5959L132.152 81.2441C131.514 81.953 130.763 82.8417 129.908 83.8936L136.117 88.9384ZM138.032 86.667L154.448 69.291L148.633 63.797L132.217 81.173L138.032 86.667ZM151.541 70.544H161.429V62.544H151.541V70.544ZM158.525 63.7927L137.693 85.7767L143.5 91.2793L164.332 69.2953L158.525 63.7927ZM137.406 90.9396L159.678 120.412L166.06 115.588L143.788 86.1164L137.406 90.9396ZM162.869 114H152.693V122H162.869V114ZM155.902 115.612L138.046 91.6123L131.628 96.3877L149.484 120.388L155.902 115.612ZM132.213 90.9805L126.357 96.0685L131.604 102.107L137.46 97.0195L132.213 90.9805ZM124.981 99.088V118H132.981V99.088H124.981ZM128.981 114H120.629V122H128.981V114ZM124.629 118V45.04H116.629V118H124.629ZM120.629 49.04H128.981V41.04H120.629V49.04ZM124.981 45.04V83.152H132.981V45.04H124.981ZM203.11 68.464L201.021 71.8754L201.037 71.8848L201.052 71.894L203.11 68.464ZM210.406 76.624L206.79 78.3335L206.809 78.3734L206.828 78.4129L210.406 76.624ZM212.998 93.904V97.904H216.998V93.904H212.998ZM177.766 93.904V89.904H173.677L173.767 93.9919L177.766 93.904ZM182.182 107.248L179.233 109.951L179.263 109.983L179.293 110.014L182.182 107.248ZM202.822 110.896L203.721 114.794L203.757 114.785L203.792 114.777L202.822 110.896ZM210.694 108.208H214.694V102.142L209.118 104.531L210.694 108.208ZM210.694 115.6L212.302 119.263L214.694 118.212V115.6H210.694ZM202.918 118.096L202.134 114.174L202.087 114.183L202.04 114.194L202.918 118.096ZM180.838 115.984L178.952 119.512L178.965 119.518L178.977 119.525L180.838 115.984ZM172.102 107.152L168.548 108.987L168.565 109.021L168.584 109.055L172.102 107.152ZM171.814 78.16L168.203 76.4403L168.191 76.4638L168.18 76.4874L171.814 78.16ZM179.782 68.848L177.651 65.4631L177.636 65.4721L177.622 65.4812L179.782 68.848ZM182.086 76.432L179.116 73.7521L179.113 73.7561L182.086 76.432ZM177.958 87.184L173.977 86.7969L173.55 91.184H177.958V87.184ZM204.166 87.184V91.184H208.166V87.184H204.166ZM202.822 79.504L199.123 81.027L199.123 81.027L202.822 79.504ZM198.694 74.416L196.369 77.6709L196.435 77.7177L196.502 77.7618L198.694 74.416ZM191.782 69.584C195.61 69.584 198.63 70.4113 201.021 71.8754L205.199 65.0526C201.318 62.6767 196.786 61.584 191.782 61.584V69.584ZM201.052 71.894C203.544 73.3889 205.448 75.4957 206.79 78.3335L214.022 74.9145C212.036 70.7123 209.076 67.3791 205.168 65.034L201.052 71.894ZM206.828 78.4129C208.226 81.2091 208.998 84.6368 208.998 88.816H216.998C216.998 83.6512 216.042 78.9509 213.984 74.8351L206.828 78.4129ZM208.998 88.816V93.904H216.998V88.816H208.998ZM212.998 89.904H177.766V97.904H212.998V89.904ZM173.767 93.9919C173.908 100.402 175.541 105.923 179.233 109.951L185.131 104.545C183.191 102.429 181.88 99.0544 181.765 93.8161L173.767 93.9919ZM179.293 110.014C183.094 113.985 188.239 115.76 194.182 115.76V107.76C189.885 107.76 187.03 106.527 185.071 104.482L179.293 110.014ZM194.182 115.76C197.671 115.76 200.863 115.453 203.721 114.794L201.923 106.998C199.789 107.491 197.221 107.76 194.182 107.76V115.76ZM203.792 114.777C206.58 114.08 209.406 113.112 212.27 111.885L209.118 104.531C206.606 105.608 204.184 106.432 201.852 107.015L203.792 114.777ZM206.694 108.208V115.6H214.694V108.208H206.694ZM209.086 111.937C206.701 112.985 204.384 113.723 202.134 114.174L203.702 122.018C206.572 121.445 209.439 120.519 212.302 119.263L209.086 111.937ZM202.04 114.194C199.847 114.687 197.116 114.96 193.798 114.96V122.96C197.52 122.96 200.869 122.657 203.796 121.998L202.04 114.194ZM193.798 114.96C189.49 114.96 185.825 114.086 182.699 112.443L178.977 119.525C183.403 121.85 188.378 122.96 193.798 122.96V114.96ZM182.724 112.456C179.742 110.863 177.38 108.503 175.62 105.249L168.584 109.055C171.048 113.609 174.51 117.137 178.952 119.512L182.724 112.456ZM175.656 105.317C173.971 102.051 173.03 97.8848 173.03 92.656H165.03C165.03 98.8192 166.137 104.317 168.548 108.987L175.656 105.317ZM173.03 92.656C173.03 87.4513 173.889 83.2189 175.448 79.8326L168.18 76.4874C166.027 81.1651 165.03 86.5967 165.03 92.656H173.03ZM175.425 79.8797C177.06 76.4462 179.244 73.9452 181.942 72.2148L177.622 65.4812C173.536 68.1028 170.408 71.8098 168.203 76.4403L175.425 79.8797ZM181.913 72.2329C184.661 70.5031 187.905 69.584 191.782 69.584V61.584C186.571 61.584 181.815 62.8409 177.651 65.4631L181.913 72.2329ZM191.686 68.496C186.698 68.496 182.353 70.1653 179.116 73.7521L185.056 79.1119C186.555 77.4507 188.61 76.496 191.686 76.496V68.496ZM179.113 73.7561C176.069 77.1384 174.479 81.6274 173.977 86.7969L181.939 87.5711C182.333 83.5246 183.495 80.8456 185.059 79.1079L179.113 73.7561ZM177.958 91.184H204.166V83.184H177.958V91.184ZM208.166 87.184C208.166 83.8441 207.659 80.7448 206.521 77.981L199.123 81.027C199.777 82.6152 200.166 84.6359 200.166 87.184H208.166ZM206.521 77.981C205.337 75.1071 203.458 72.7554 200.886 71.0702L196.502 77.7618C197.642 78.5085 198.515 79.5489 199.123 81.027L206.521 77.981ZM201.019 71.1611C198.367 69.2668 195.145 68.496 191.686 68.496V76.496C193.987 76.496 195.437 77.0052 196.369 77.6709L201.019 71.1611ZM281.586 118V122H285.586V118H281.586ZM271.506 118L268.143 120.166L269.324 122H271.506V118ZM234.834 61.072L238.196 58.9058L237.015 57.072H234.834V61.072ZM234.45 61.072V57.072H230.221L230.456 61.2939L234.45 61.072ZM234.642 64.912L230.646 65.0936L230.65 65.184L230.658 65.2741L234.642 64.912ZM234.93 69.52L230.932 69.6737L230.933 69.6799L234.93 69.52ZM235.122 74.512L231.124 74.66L231.124 74.66L235.122 74.512ZM235.218 118V122H239.218V118H235.218ZM227.25 118H223.25V122H227.25V118ZM227.25 49.456V45.456H223.25V49.456H227.25ZM237.234 49.456L240.595 47.2887L239.414 45.456H237.234V49.456ZM273.81 106.192L270.448 108.359L271.629 110.192H273.81V106.192ZM274.194 106.192V110.192H278.541L278.18 105.86L274.194 106.192ZM274.002 103.024L270.006 103.206L270.006 103.214L274.002 103.024ZM273.81 98.416L269.812 98.564L269.812 98.5697L273.81 98.416ZM273.522 49.456V45.456H269.522V49.456H273.522ZM281.586 49.456H285.586V45.456H281.586V49.456ZM281.586 114H271.506V122H281.586V114ZM274.868 115.834L238.196 58.9058L231.471 63.2382L268.143 120.166L274.868 115.834ZM234.834 57.072H234.45V65.072H234.834V57.072ZM230.456 61.2939C230.519 62.4299 230.582 63.6962 230.646 65.0936L238.637 64.7304C238.573 63.3118 238.508 62.0181 238.443 60.8501L230.456 61.2939ZM230.658 65.2741C230.779 66.6019 230.871 68.0675 230.932 69.6737L238.927 69.3663C238.86 67.6445 238.76 66.0381 238.625 64.5499L230.658 65.2741ZM230.933 69.6799C230.997 71.2756 231.06 72.9357 231.124 74.66L239.119 74.364C239.055 72.6323 238.99 70.9644 238.926 69.3601L230.933 69.6799ZM231.124 74.66C231.186 76.3388 231.218 78.0174 231.218 79.696H239.218C239.218 77.9186 239.185 76.1412 239.119 74.364L231.124 74.66ZM231.218 79.696V118H239.218V79.696H231.218ZM235.218 114H227.25V122H235.218V114ZM231.25 118V49.456H223.25V118H231.25ZM227.25 53.456H237.234V45.456H227.25V53.456ZM233.872 51.6233L270.448 108.359L277.171 104.025L240.595 47.2887L233.872 51.6233ZM273.81 110.192H274.194V102.192H273.81V110.192ZM278.18 105.86C278.121 105.161 278.06 104.16 277.997 102.834L270.006 103.214C270.071 104.576 270.138 105.687 270.207 106.524L278.18 105.86ZM277.997 102.842C277.934 101.445 277.87 99.9186 277.807 98.2623L269.812 98.5697C269.877 100.241 269.941 101.787 270.006 103.206L277.997 102.842ZM277.807 98.268C277.743 96.5418 277.679 94.7835 277.615 92.9932L269.62 93.2788C269.684 95.0725 269.748 96.8342 269.812 98.564L277.807 98.268ZM277.615 92.9932C277.552 91.2412 277.522 89.6253 277.522 88.144H269.522C269.522 89.7347 269.555 91.4468 269.62 93.2788L277.615 92.9932ZM277.522 88.144V49.456H269.522V88.144H277.522ZM273.522 53.456H281.586V45.456H273.522V53.456ZM277.586 49.456V118H285.586V49.456H277.586ZM342.043 103.6L338.263 102.292L338.256 102.313L338.248 102.335L342.043 103.6ZM337.243 111.952L334.294 109.249L334.274 109.272L334.253 109.295L337.243 111.952ZM329.659 117.232L331.117 120.957L331.137 120.949L331.158 120.94L329.659 117.232ZM310.363 117.232L308.807 120.917L308.842 120.932L308.877 120.946L310.363 117.232ZM302.875 111.952L299.926 114.655L299.926 114.655L302.875 111.952ZM297.883 103.6L294.103 104.908L294.118 104.953L294.135 104.996L297.883 103.6ZM299.035 77.776L302.624 79.5413L302.63 79.5298L302.636 79.5182L299.035 77.776ZM307.291 68.752L309.276 72.225L309.299 72.2117L309.322 72.1982L307.291 68.752ZM332.347 68.752L330.289 72.182L330.326 72.2039L330.362 72.225L332.347 68.752ZM340.699 77.776L337.121 79.5649L337.139 79.5997L337.157 79.6342L340.699 77.776ZM306.427 102.736L302.64 104.025L302.657 104.074L302.675 104.123L306.427 102.736ZM311.419 109.552L313.744 106.297L313.744 106.297L311.419 109.552ZM328.507 109.552L326.182 106.297L326.182 106.297L328.507 109.552ZM333.403 102.736L329.641 101.375L329.633 101.399L329.625 101.422L333.403 102.736ZM333.403 81.712L337.145 80.2984L337.145 80.2984L333.403 81.712ZM328.411 75.088L326.041 78.3106L326.095 78.3496L326.149 78.3869L328.411 75.088ZM308.443 77.872L311.743 80.1329L311.743 80.1329L308.443 77.872ZM339.771 92.176C339.771 96.1123 339.242 99.4646 338.263 102.292L345.823 104.908C347.148 101.079 347.771 96.8157 347.771 92.176H339.771ZM338.248 102.335C337.32 105.12 335.99 107.4 334.294 109.249L340.192 114.655C342.72 111.896 344.59 108.608 345.838 104.865L338.248 102.335ZM334.253 109.295C332.636 111.114 330.628 112.526 328.16 113.524L331.158 120.94C334.706 119.506 337.754 117.398 340.233 114.609L334.253 109.295ZM328.201 113.507C325.788 114.452 322.996 114.96 319.771 114.96V122.96C323.842 122.96 327.642 122.316 331.117 120.957L328.201 113.507ZM319.771 114.96C316.84 114.96 314.214 114.464 311.849 113.518L308.877 120.946C312.272 122.304 315.918 122.96 319.771 122.96V114.96ZM311.919 113.547C309.568 112.554 307.547 111.129 305.824 109.249L299.926 114.655C302.427 117.383 305.398 119.478 308.807 120.917L311.919 113.547ZM305.824 109.249C304.098 107.366 302.688 105.04 301.631 102.204L294.135 104.996C295.51 108.688 297.428 111.93 299.926 114.655L305.824 109.249ZM301.663 102.292C300.684 99.4646 300.155 96.1122 300.155 92.176H292.155C292.155 96.8157 292.778 101.079 294.103 104.908L301.663 102.292ZM300.155 92.176C300.155 86.9102 301.045 82.7533 302.624 79.5413L295.446 76.0107C293.185 80.6067 292.155 86.0498 292.155 92.176H300.155ZM302.636 79.5182C304.229 76.2251 306.441 73.8447 309.276 72.225L305.306 65.279C300.973 67.7553 297.681 71.3909 295.434 76.0338L302.636 79.5182ZM309.322 72.1982C312.185 70.5107 315.712 69.584 320.059 69.584V61.584C314.55 61.584 309.565 62.7693 305.26 65.3058L309.322 72.1982ZM320.059 69.584C324.108 69.584 327.473 70.4923 330.289 72.182L334.405 65.322C330.181 62.7877 325.354 61.584 320.059 61.584V69.584ZM330.362 72.225C333.209 73.8516 335.463 76.2478 337.121 79.5649L344.277 75.9871C341.967 71.3681 338.653 67.7484 334.332 65.279L330.362 72.225ZM337.157 79.6342C338.829 82.8221 339.771 86.944 339.771 92.176H347.771C347.771 86.016 346.665 80.5379 344.241 75.9178L337.157 79.6342ZM300.891 92.176C300.891 96.5341 301.443 100.508 302.64 104.025L310.214 101.447C309.363 98.9485 308.891 95.8819 308.891 92.176H300.891ZM302.675 104.123C304.001 107.709 306.114 110.678 309.094 112.807L313.744 106.297C312.244 105.226 311.029 103.651 310.179 101.349L302.675 104.123ZM309.094 112.807C312.168 115.003 315.888 115.952 319.963 115.952V107.952C317.126 107.952 315.15 107.301 313.744 106.297L309.094 112.807ZM319.963 115.952C324.038 115.952 327.758 115.003 330.832 112.807L326.182 106.297C324.776 107.301 322.8 107.952 319.963 107.952V115.952ZM330.832 112.807C333.832 110.664 335.922 107.668 337.181 104.05L329.625 101.422C328.836 103.692 327.662 105.24 326.182 106.297L330.832 112.807ZM337.165 104.097C338.445 100.555 339.035 96.5563 339.035 92.176H331.035C331.035 95.8597 330.537 98.9006 329.641 101.375L337.165 104.097ZM339.035 92.176C339.035 87.7473 338.45 83.7521 337.145 80.2984L329.661 83.1256C330.532 85.4319 331.035 88.4127 331.035 92.176H339.035ZM337.145 80.2984C335.808 76.7594 333.675 73.8477 330.673 71.7891L326.149 78.3869C327.627 79.4003 328.822 80.9046 329.661 83.1256L337.145 80.2984ZM330.781 71.8654C327.735 69.6263 323.981 68.688 319.867 68.688V76.688C322.793 76.688 324.735 77.3497 326.041 78.3106L330.781 71.8654ZM319.867 68.688C313.675 68.688 308.447 70.7896 305.143 75.6111L311.743 80.1329C313.175 78.0424 315.563 76.688 319.867 76.688V68.688ZM305.143 75.6111C302.156 79.9709 300.891 85.636 300.891 92.176H308.891C308.891 86.556 309.994 82.6851 311.743 80.1329L305.143 75.6111ZM378.28 111.76L378.846 115.72L378.937 115.707L379.028 115.689L378.28 111.76ZM381.544 110.992H385.544V105.576L380.368 107.169L381.544 110.992ZM381.544 117.424L383.333 121.002L385.544 119.896V117.424H381.544ZM377.704 118.48L377.096 114.527L377.022 114.538L376.949 114.552L377.704 118.48ZM365.416 117.616L363.84 121.293L363.903 121.319L363.966 121.344L365.416 117.616ZM357.832 73.072H361.832V69.072H357.832V73.072ZM350.536 73.072H346.536V77.072H350.536V73.072ZM350.536 69.04L348.881 65.3985L346.536 66.4643V69.04H350.536ZM357.928 65.68L359.583 69.3215L361.223 68.576L361.752 66.854L357.928 65.68ZM361.288 54.736V50.736H358.332L357.464 53.562L361.288 54.736ZM366.28 54.736H370.28V50.736H366.28V54.736ZM366.28 66.544H362.28V70.544H366.28V66.544ZM381.16 66.544H385.16V62.544H381.16V66.544ZM381.16 73.072V77.072H385.16V73.072H381.16ZM366.28 73.072V69.072H362.28V73.072H366.28ZM368.488 109.84L365.6 112.608L365.659 112.669L365.72 112.728L368.488 109.84ZM374.344 116.048C375.824 116.048 377.326 115.937 378.846 115.72L377.714 107.8C376.546 107.967 375.424 108.048 374.344 108.048V116.048ZM379.028 115.689C380.445 115.419 381.692 115.131 382.72 114.815L380.368 107.169C379.732 107.365 378.803 107.589 377.532 107.831L379.028 115.689ZM377.544 110.992V117.424H385.544V110.992H377.544ZM379.755 113.846C379.398 114.025 378.588 114.297 377.096 114.527L378.312 122.433C380.148 122.151 381.898 121.719 383.333 121.002L379.755 113.846ZM376.949 114.552C375.508 114.829 374.162 114.96 372.904 114.96V122.96C374.718 122.96 376.572 122.771 378.459 122.408L376.949 114.552ZM372.904 114.96C370.668 114.96 368.669 114.589 366.866 113.888L363.966 121.344C366.771 122.435 369.764 122.96 372.904 122.96V114.96ZM366.992 113.939C365.596 113.341 364.381 112.31 363.357 110.634L356.531 114.806C358.323 117.738 360.756 119.971 363.84 121.293L366.992 113.939ZM363.357 110.634C362.487 109.211 361.832 106.814 361.832 103.024H353.832C353.832 107.554 354.585 111.621 356.531 114.806L363.357 110.634ZM361.832 103.024V73.072H353.832V103.024H361.832ZM357.832 69.072H350.536V77.072H357.832V69.072ZM354.536 73.072V69.04H346.536V73.072H354.536ZM352.191 72.6815L359.583 69.3215L356.273 62.0385L348.881 65.3985L352.191 72.6815ZM361.752 66.854L365.112 55.91L357.464 53.562L354.104 64.506L361.752 66.854ZM361.288 58.736H366.28V50.736H361.288V58.736ZM362.28 54.736V66.544H370.28V54.736H362.28ZM366.28 70.544H381.16V62.544H366.28V70.544ZM377.16 66.544V73.072H385.16V66.544H377.16ZM381.16 69.072H366.28V77.072H381.16V69.072ZM362.28 73.072V102.832H370.28V73.072H362.28ZM362.28 102.832C362.28 106.516 363.138 110.039 365.6 112.608L371.376 107.072C370.894 106.569 370.28 105.42 370.28 102.832H362.28ZM365.72 112.728C368.088 114.997 371.071 116.048 374.344 116.048V108.048C372.881 108.048 371.96 107.627 371.256 106.952L365.72 112.728ZM423.048 68.464L420.959 71.8754L420.974 71.8848L420.99 71.894L423.048 68.464ZM430.344 76.624L426.727 78.3335L426.746 78.3734L426.766 78.4129L430.344 76.624ZM432.936 93.904V97.904H436.936V93.904H432.936ZM397.704 93.904V89.904H393.615L393.704 93.9919L397.704 93.904ZM402.12 107.248L399.171 109.951L399.2 109.983L399.23 110.014L402.12 107.248ZM422.76 110.896L423.659 114.794L423.694 114.785L423.73 114.777L422.76 110.896ZM430.632 108.208H434.632V102.142L429.056 104.531L430.632 108.208ZM430.632 115.6L432.239 119.263L434.632 118.212V115.6H430.632ZM422.856 118.096L422.071 114.174L422.024 114.183L421.977 114.194L422.856 118.096ZM400.776 115.984L398.89 119.512L398.902 119.518L398.915 119.525L400.776 115.984ZM392.04 107.152L388.485 108.987L388.503 109.021L388.521 109.055L392.04 107.152ZM391.752 78.16L388.14 76.4403L388.129 76.4638L388.118 76.4874L391.752 78.16ZM399.72 68.848L397.588 65.4631L397.574 65.4721L397.56 65.4812L399.72 68.848ZM402.024 76.432L399.054 73.7521L399.05 73.7561L402.024 76.432ZM397.896 87.184L393.914 86.7969L393.488 91.184H397.896V87.184ZM424.104 87.184V91.184H428.104V87.184H424.104ZM422.76 79.504L419.061 81.027L419.061 81.027L422.76 79.504ZM418.632 74.416L416.307 77.6709L416.372 77.7177L416.439 77.7618L418.632 74.416ZM411.72 69.584C415.547 69.584 418.568 70.4113 420.959 71.8754L425.136 65.0526C421.255 62.6767 416.724 61.584 411.72 61.584V69.584ZM420.99 71.894C423.481 73.3889 425.386 75.4957 426.727 78.3335L433.96 74.9145C431.973 70.7123 429.014 67.3791 425.105 65.034L420.99 71.894ZM426.766 78.4129C428.164 81.2091 428.936 84.6368 428.936 88.816H436.936C436.936 83.6512 435.979 78.9509 433.921 74.8351L426.766 78.4129ZM428.936 88.816V93.904H436.936V88.816H428.936ZM432.936 89.904H397.704V97.904H432.936V89.904ZM393.704 93.9919C393.845 100.402 395.479 105.923 399.171 109.951L405.068 104.545C403.128 102.429 401.818 99.0544 401.703 93.8161L393.704 93.9919ZM399.23 110.014C403.032 113.985 408.176 115.76 414.12 115.76V107.76C409.823 107.76 406.967 106.527 405.009 104.482L399.23 110.014ZM414.12 115.76C417.608 115.76 420.8 115.453 423.659 114.794L421.86 106.998C419.727 107.491 417.159 107.76 414.12 107.76V115.76ZM423.73 114.777C426.517 114.08 429.344 113.112 432.207 111.885L429.056 104.531C426.543 105.608 424.122 106.432 421.789 107.015L423.73 114.777ZM426.632 108.208V115.6H434.632V108.208H426.632ZM429.024 111.937C426.638 112.985 424.322 113.723 422.071 114.174L423.64 122.018C426.509 121.445 429.377 120.519 432.239 119.263L429.024 111.937ZM421.977 114.194C419.784 114.687 417.053 114.96 413.736 114.96V122.96C417.458 122.96 420.807 122.657 423.734 121.998L421.977 114.194ZM413.736 114.96C409.428 114.96 405.762 114.086 402.636 112.443L398.915 119.525C403.341 121.85 408.315 122.96 413.736 122.96V114.96ZM402.661 112.456C399.679 110.863 397.318 108.503 395.558 105.249L388.521 109.055C390.985 113.609 394.448 117.137 398.89 119.512L402.661 112.456ZM395.594 105.317C393.908 102.051 392.968 97.8848 392.968 92.656H384.968C384.968 98.8192 386.075 104.317 388.485 108.987L395.594 105.317ZM392.968 92.656C392.968 87.4513 393.826 83.2189 395.385 79.8326L388.118 76.4874C385.965 81.1651 384.968 86.5967 384.968 92.656H392.968ZM395.363 79.8797C396.998 76.4462 399.182 73.9452 401.879 72.2148L397.56 65.4812C393.473 68.1028 390.345 71.8098 388.14 76.4403L395.363 79.8797ZM401.851 72.2329C404.598 70.5031 407.842 69.584 411.72 69.584V61.584C406.509 61.584 401.753 62.8409 397.588 65.4631L401.851 72.2329ZM411.624 68.496C406.636 68.496 402.291 70.1653 399.054 73.7521L404.993 79.1119C406.492 77.4507 408.547 76.496 411.624 76.496V68.496ZM399.05 73.7561C396.006 77.1384 394.417 81.6274 393.914 86.7969L401.877 87.5711C402.27 83.5246 403.433 80.8456 404.997 79.1079L399.05 73.7561ZM397.896 91.184H424.104V83.184H397.896V91.184ZM428.104 87.184C428.104 83.8441 427.596 80.7448 426.458 77.981L419.061 81.027C419.715 82.6152 420.104 84.6359 420.104 87.184H428.104ZM426.458 77.981C425.275 75.1071 423.396 72.7554 420.824 71.0702L416.439 77.7618C417.579 78.5085 418.452 79.5489 419.061 81.027L426.458 77.981ZM420.956 71.1611C418.304 69.2668 415.082 68.496 411.624 68.496V76.496C413.925 76.496 415.375 77.0052 416.307 77.6709L420.956 71.1611Z" fill="#0090C1"/>
<path d="M456.434 112.774L502.671 16.728C498.497 13.7212 496.019 13.01 491.403 13.1266L446.586 110.369L442.396 129.207L456.434 112.774Z" fill="#0090C1" stroke="#0090C1"/>
</g>
<defs>
<clipPath id="clip0_1_2">
<rect width="504" height="144" fill="white"/>
</clipPath>
</defs>
</svg>
