<svg width="504" height="144" viewBox="0 0 504 144" fill="none" xmlns="http://www.w3.org/2000/svg">
<g clip-path="url(#clip0_1_2)">
<path d="M37.008 123H28.368V62.04H6.96V54.456H58.32V62.04H37.008V123ZM79.3043 70.68C85.5763 70.68 90.2163 72.056 93.2243 74.808C96.2323 77.56 97.7363 81.944 97.7363 87.96V123H91.5923L89.9603 115.704H89.5763C88.1043 117.56 86.5683 119.128 84.9683 120.408C83.4323 121.624 81.6403 122.52 79.5923 123.096C77.6083 123.672 75.1763 123.96 72.2963 123.96C69.2243 123.96 66.4403 123.416 63.9443 122.328C61.5123 121.24 59.5923 119.576 58.1843 117.336C56.7763 115.032 56.0723 112.152 56.0723 108.696C56.0723 103.576 58.0883 99.64 62.1203 96.888C66.1523 94.072 72.3603 92.536 80.7443 92.28L89.4803 91.992V88.92C89.4803 84.632 88.5523 81.656 86.6963 79.992C84.8403 78.328 82.2163 77.496 78.8243 77.496C76.1363 77.496 73.5763 77.912 71.1443 78.744C68.7123 79.512 66.4403 80.408 64.3282 81.432L61.7363 75.096C63.9763 73.88 66.6323 72.856 69.7043 72.024C72.7763 71.128 75.9763 70.68 79.3043 70.68ZM81.8003 98.136C75.4003 98.392 70.9523 99.416 68.4563 101.208C66.0243 103 64.8083 105.528 64.8083 108.792C64.8083 111.672 65.6723 113.784 67.4003 115.128C69.1923 116.472 71.4643 117.144 74.2163 117.144C78.5683 117.144 82.1843 115.96 85.0643 113.592C87.9443 111.16 89.3843 107.448 89.3843 102.456V97.848L81.8003 98.136ZM121.981 88.152C121.981 89.176 121.917 90.52 121.789 92.184C121.725 93.848 121.661 95.288 121.597 96.504H121.981C122.365 95.992 122.941 95.256 123.709 94.296C124.477 93.336 125.245 92.376 126.013 91.416C126.845 90.392 127.549 89.56 128.125 88.92L144.541 71.544H154.429L133.597 93.528L155.869 123H145.693L127.837 99L121.981 104.088V123H113.629V50.04H121.981V88.152ZM184.782 70.584C189.198 70.584 192.974 71.544 196.11 73.464C199.31 75.384 201.742 78.104 203.406 81.624C205.134 85.08 205.998 89.144 205.998 93.816V98.904H170.766C170.894 104.728 172.366 109.176 175.182 112.248C178.062 115.256 182.062 116.76 187.182 116.76C190.446 116.76 193.326 116.472 195.822 115.896C198.382 115.256 201.006 114.36 203.694 113.208V120.6C201.07 121.752 198.478 122.584 195.918 123.096C193.358 123.672 190.318 123.96 186.798 123.96C181.934 123.96 177.614 122.968 173.838 120.984C170.126 119 167.214 116.056 165.102 112.152C163.054 108.184 162.03 103.352 162.03 97.656C162.03 92.024 162.958 87.192 164.814 83.16C166.734 79.128 169.39 76.024 172.782 73.848C176.238 71.672 180.238 70.584 184.782 70.584ZM184.686 77.496C180.654 77.496 177.454 78.808 175.086 81.432C172.782 83.992 171.406 87.576 170.958 92.184H197.166C197.166 89.24 196.718 86.68 195.822 84.504C194.926 82.328 193.55 80.632 191.694 79.416C189.902 78.136 187.566 77.496 184.686 77.496ZM274.586 123H264.506L227.834 66.072H227.45C227.514 67.224 227.578 68.504 227.642 69.912C227.77 71.32 227.866 72.856 227.93 74.52C227.994 76.12 228.058 77.784 228.122 79.512C228.186 81.24 228.218 82.968 228.218 84.696V123H220.25V54.456H230.234L266.81 111.192H267.194C267.13 110.424 267.066 109.368 267.002 108.024C266.938 106.616 266.874 105.08 266.81 103.416C266.746 101.688 266.682 99.928 266.618 98.136C266.554 96.344 266.522 94.68 266.522 93.144V54.456H274.586V123ZM336.771 97.176C336.771 101.464 336.195 105.272 335.043 108.6C333.955 111.864 332.355 114.648 330.243 116.952C328.195 119.256 325.667 121.016 322.659 122.232C319.715 123.384 316.419 123.96 312.771 123.96C309.379 123.96 306.243 123.384 303.363 122.232C300.483 121.016 297.987 119.256 295.875 116.952C293.763 114.648 292.099 111.864 290.883 108.6C289.731 105.272 289.155 101.464 289.155 97.176C289.155 91.48 290.115 86.68 292.035 82.776C293.955 78.808 296.707 75.8 300.291 73.752C303.875 71.64 308.131 70.584 313.059 70.584C317.731 70.584 321.827 71.64 325.347 73.752C328.931 75.8 331.715 78.808 333.699 82.776C335.747 86.68 336.771 91.48 336.771 97.176ZM297.891 97.176C297.891 101.208 298.403 104.728 299.427 107.736C300.515 110.68 302.179 112.952 304.419 114.552C306.659 116.152 309.507 116.952 312.963 116.952C316.419 116.952 319.267 116.152 321.507 114.552C323.747 112.952 325.379 110.68 326.403 107.736C327.491 104.728 328.035 101.208 328.035 97.176C328.035 93.08 327.491 89.592 326.403 86.712C325.315 83.832 323.651 81.624 321.411 80.088C319.235 78.488 316.387 77.688 312.867 77.688C307.619 77.688 303.811 79.416 301.443 82.872C299.075 86.328 297.891 91.096 297.891 97.176ZM367.344 117.048C368.624 117.048 369.936 116.952 371.28 116.76C372.624 116.504 373.712 116.248 374.544 115.992V122.424C373.648 122.872 372.368 123.224 370.704 123.48C369.04 123.8 367.44 123.96 365.904 123.96C363.216 123.96 360.72 123.512 358.416 122.616C356.176 121.656 354.352 120.024 352.944 117.72C351.536 115.416 350.832 112.184 350.832 108.024V78.072H343.536V74.04L350.928 70.68L354.288 59.736H359.28V71.544H374.16V78.072H359.28V107.832C359.28 110.968 360.016 113.304 361.488 114.84C363.024 116.312 364.976 117.048 367.344 117.048ZM404.72 70.584C409.136 70.584 412.912 71.544 416.048 73.464C419.248 75.384 421.68 78.104 423.344 81.624C425.072 85.08 425.936 89.144 425.936 93.816V98.904H390.704C390.832 104.728 392.304 109.176 395.12 112.248C398 115.256 402 116.76 407.12 116.76C410.384 116.76 413.264 116.472 415.76 115.896C418.32 115.256 420.944 114.36 423.632 113.208V120.6C421.008 121.752 418.416 122.584 415.856 123.096C413.296 123.672 410.256 123.96 406.736 123.96C401.872 123.96 397.552 122.968 393.776 120.984C390.064 119 387.152 116.056 385.04 112.152C382.992 108.184 381.968 103.352 381.968 97.656C381.968 92.024 382.896 87.192 384.752 83.16C386.672 79.128 389.328 76.024 392.72 73.848C396.176 71.672 400.176 70.584 404.72 70.584ZM404.624 77.496C400.592 77.496 397.392 78.808 395.024 81.432C392.72 83.992 391.344 87.576 390.896 92.184H417.104C417.104 89.24 416.656 86.68 415.76 84.504C414.864 82.328 413.488 80.632 411.632 79.416C409.84 78.136 407.504 77.496 404.624 77.496Z" fill="#0090C1"/>
<path d="M37.008 123V125H39.008V123H37.008ZM28.368 123H26.368V125H28.368V123ZM28.368 62.04H30.368V60.04H28.368V62.04ZM6.96 62.04H4.96V64.04H6.96V62.04ZM6.96 54.456V52.456H4.96V54.456H6.96ZM58.32 54.456H60.32V52.456H58.32V54.456ZM58.32 62.04V64.04H60.32V62.04H58.32ZM37.008 62.04V60.04H35.008V62.04H37.008ZM37.008 121H28.368V125H37.008V121ZM30.368 123V62.04H26.368V123H30.368ZM28.368 60.04H6.96V64.04H28.368V60.04ZM8.96 62.04V54.456H4.96V62.04H8.96ZM6.96 56.456H58.32V52.456H6.96V56.456ZM56.32 54.456V62.04H60.32V54.456H56.32ZM58.32 60.04H37.008V64.04H58.32V60.04ZM35.008 62.04V123H39.008V62.04H35.008ZM93.2243 74.808L94.5743 73.3324L94.5743 73.3324L93.2243 74.808ZM97.7363 123V125H99.7363V123H97.7363ZM91.5923 123L89.6405 123.437L89.9902 125H91.5923V123ZM89.9603 115.704L91.912 115.267L91.5623 113.704H89.9603V115.704ZM89.5763 115.704V113.704H88.6098L88.0093 114.461L89.5763 115.704ZM84.9683 120.408L86.2097 121.976L86.2176 121.97L84.9683 120.408ZM79.5923 123.096L79.0508 121.171L79.0427 121.173L79.0346 121.175L79.5923 123.096ZM63.9443 122.328L63.1275 124.154L63.1363 124.158L63.1451 124.161L63.9443 122.328ZM58.1843 117.336L56.4777 118.379L56.4843 118.39L56.491 118.4L58.1843 117.336ZM62.1203 96.888L63.2477 98.5399L63.2566 98.5338L63.2654 98.5277L62.1203 96.888ZM80.7443 92.28L80.8053 94.2791L80.8101 94.2789L80.7443 92.28ZM89.4803 91.992L89.5462 93.9909L91.4803 93.9272V91.992H89.4803ZM86.6963 79.992L85.3612 81.4811L85.3612 81.4811L86.6963 79.992ZM71.1443 78.744L71.7465 80.6512L71.7692 80.644L71.7916 80.6363L71.1443 78.744ZM64.3282 81.432L62.4772 82.1893L63.2838 84.1611L65.2008 83.2316L64.3282 81.432ZM61.7363 75.096L60.7821 73.3383L59.2063 74.1937L59.8852 75.8533L61.7363 75.096ZM69.7043 72.024L70.2271 73.9545L70.2457 73.9494L70.2643 73.944L69.7043 72.024ZM81.8003 98.136L81.7244 96.1374L81.7203 96.1376L81.8003 98.136ZM68.4563 101.208L67.2898 99.5834L67.2798 99.5906L67.2699 99.5979L68.4563 101.208ZM67.4003 115.128L66.1724 116.707L66.1862 116.717L66.2003 116.728L67.4003 115.128ZM85.0643 113.592L86.3345 115.137L86.3446 115.129L86.3546 115.12L85.0643 113.592ZM89.3843 97.848H91.3843V95.7706L89.3084 95.8494L89.3843 97.848ZM79.3043 72.68C85.3363 72.68 89.3899 74.0107 91.8742 76.2836L94.5743 73.3324C91.0426 70.1013 85.8162 68.68 79.3043 68.68V72.68ZM91.8742 76.2836C94.3042 78.5068 95.7363 82.236 95.7363 87.96H99.7363C99.7363 81.652 98.1603 76.6132 94.5743 73.3324L91.8742 76.2836ZM95.7363 87.96V123H99.7363V87.96H95.7363ZM97.7363 121H91.5923V125H97.7363V121ZM93.544 122.563L91.912 115.267L88.0085 116.141L89.6405 123.437L93.544 122.563ZM89.9603 113.704H89.5763V117.704H89.9603V113.704ZM88.0093 114.461C86.6166 116.217 85.1848 117.674 83.7189 118.846L86.2176 121.97C87.9517 120.582 89.5919 118.903 91.1432 116.947L88.0093 114.461ZM83.7268 118.84C82.4155 119.878 80.8662 120.66 79.0508 121.171L80.1337 125.021C82.4143 124.38 84.449 123.37 86.2097 121.976L83.7268 118.84ZM79.0346 121.175C77.2874 121.683 75.0558 121.96 72.2963 121.96V125.96C75.2967 125.96 77.9291 125.661 80.1499 125.017L79.0346 121.175ZM72.2963 121.96C69.464 121.96 66.9569 121.459 64.7434 120.495L63.1451 124.161C65.9236 125.373 68.9845 125.96 72.2963 125.96V121.96ZM64.761 120.502C62.6873 119.575 61.0735 118.174 59.8775 116.272L56.491 118.4C58.111 120.978 60.3372 122.905 63.1275 124.154L64.761 120.502ZM59.8908 116.293C58.7215 114.38 58.0723 111.886 58.0723 108.696H54.0723C54.0723 112.418 54.831 115.684 56.4777 118.379L59.8908 116.293ZM58.0723 108.696C58.0723 104.199 59.7927 100.898 63.2477 98.5399L60.9928 95.2361C56.3838 98.3819 54.0723 102.953 54.0723 108.696H58.0723ZM63.2654 98.5277C66.825 96.0417 72.5664 94.5306 80.8053 94.2791L80.6832 90.2809C72.1541 90.5414 65.4795 92.1023 60.9751 95.2483L63.2654 98.5277ZM80.8101 94.2789L89.5462 93.9909L89.4144 89.9931L80.6784 90.2811L80.8101 94.2789ZM91.4803 91.992V88.92H87.4803V91.992H91.4803ZM91.4803 88.92C91.4803 84.4518 90.5321 80.7449 88.0313 78.5029L85.3612 81.4811C86.5724 82.5671 87.4803 84.8122 87.4803 88.92H91.4803ZM88.0313 78.5029C85.6938 76.4071 82.5296 75.496 78.8243 75.496V79.496C81.9029 79.496 83.9867 80.2488 85.3612 81.4811L88.0313 78.5029ZM78.8243 75.496C75.9262 75.496 73.1467 75.9452 70.4969 76.8517L71.7916 80.6363C74.0058 79.8788 76.3463 79.496 78.8243 79.496V75.496ZM70.542 76.8368C68.0253 77.6316 65.6622 78.5626 63.4557 79.6324L65.2008 83.2316C67.2183 82.2534 69.3992 81.3924 71.7465 80.6512L70.542 76.8368ZM66.1793 80.6747L63.5873 74.3387L59.8852 75.8533L62.4772 82.1893L66.1793 80.6747ZM62.6904 76.8537C64.765 75.7275 67.2697 74.7554 70.2271 73.9545L69.1814 70.0935C65.9948 70.9566 63.1875 72.0325 60.7821 73.3383L62.6904 76.8537ZM70.2643 73.944C73.1471 73.1032 76.1581 72.68 79.3043 72.68V68.68C75.7944 68.68 72.4054 69.1528 69.1443 70.104L70.2643 73.944ZM81.7203 96.1376C75.2722 96.3955 70.2992 97.4228 67.2898 99.5834L69.6227 102.833C71.6053 101.409 75.5283 100.388 81.8802 100.134L81.7203 96.1376ZM67.2699 99.5979C64.2802 101.801 62.8083 104.952 62.8083 108.792H66.8083C66.8083 106.104 67.7683 104.199 69.6426 102.818L67.2699 99.5979ZM62.8083 108.792C62.8083 112.078 63.812 114.871 66.1724 116.707L68.6281 113.549C67.5325 112.697 66.8083 111.266 66.8083 108.792H62.8083ZM66.2003 116.728C68.4113 118.386 71.1325 119.144 74.2163 119.144V115.144C71.796 115.144 69.9732 114.558 68.6003 113.528L66.2003 116.728ZM74.2163 119.144C78.9503 119.144 83.0384 117.847 86.3345 115.137L83.794 112.047C81.3301 114.073 78.1862 115.144 74.2163 115.144V119.144ZM86.3546 115.12C89.8198 112.194 91.3843 107.834 91.3843 102.456H87.3843C87.3843 107.062 86.0687 110.126 83.7739 112.064L86.3546 115.12ZM91.3843 102.456V97.848H87.3843V102.456H91.3843ZM89.3084 95.8494L81.7244 96.1374L81.8761 100.135L89.4601 99.8466L89.3084 95.8494ZM121.789 92.184L119.795 92.0306L119.792 92.0688L119.79 92.1071L121.789 92.184ZM121.597 96.504L119.6 96.3989L119.489 98.504H121.597V96.504ZM121.981 96.504V98.504H122.981L123.581 97.704L121.981 96.504ZM123.709 94.296L122.147 93.0466L122.147 93.0466L123.709 94.296ZM126.013 91.416L124.461 90.1548L124.456 90.1607L124.451 90.1666L126.013 91.416ZM128.125 88.92L126.671 87.5465L126.654 87.5641L126.638 87.5821L128.125 88.92ZM144.541 71.544V69.544H143.679L143.087 70.1705L144.541 71.544ZM154.429 71.544L155.88 72.9197L159.079 69.544H154.429V71.544ZM133.597 93.528L132.145 92.1523L130.98 93.3821L132.001 94.7338L133.597 93.528ZM155.869 123V125H159.887L157.464 121.794L155.869 123ZM145.693 123L144.088 124.194L144.688 125H145.693V123ZM127.837 99L129.441 97.8062L128.154 96.0753L126.525 97.4903L127.837 99ZM121.981 104.088L120.669 102.578L119.981 103.176V104.088H121.981ZM121.981 123V125H123.981V123H121.981ZM113.629 123H111.629V125H113.629V123ZM113.629 50.04V48.04H111.629V50.04H113.629ZM121.981 50.04H123.981V48.04H121.981V50.04ZM119.981 88.152C119.981 89.1032 119.921 90.3902 119.795 92.0306L123.783 92.3374C123.913 90.6498 123.981 89.2488 123.981 88.152H119.981ZM119.79 92.1071C119.726 93.7649 119.663 95.195 119.6 96.3989L123.594 96.6091C123.659 95.381 123.723 93.9311 123.787 92.2609L119.79 92.1071ZM121.597 98.504H121.981V94.504H121.597V98.504ZM123.581 97.704C123.946 97.2175 124.506 96.501 125.27 95.5454L122.147 93.0466C121.376 94.011 120.784 94.7665 120.381 95.304L123.581 97.704ZM125.27 95.5454C126.038 94.5854 126.806 93.6254 127.574 92.6654L124.451 90.1666C123.683 91.1266 122.915 92.0866 122.147 93.0466L125.27 95.5454ZM127.565 92.6772C128.386 91.6672 129.066 90.8635 129.611 90.2579L126.638 87.5821C126.031 88.2565 125.304 89.1168 124.461 90.1548L127.565 92.6772ZM129.579 90.2935L145.995 72.9175L143.087 70.1705L126.671 87.5465L129.579 90.2935ZM144.541 73.544H154.429V69.544H144.541V73.544ZM152.977 70.1683L132.145 92.1523L135.048 94.9037L155.88 72.9197L152.977 70.1683ZM132.001 94.7338L154.273 124.206L157.464 121.794L135.192 92.3222L132.001 94.7338ZM155.869 121H145.693V125H155.869V121ZM147.297 121.806L129.441 97.8062L126.232 100.194L144.088 124.194L147.297 121.806ZM126.525 97.4903L120.669 102.578L123.292 105.598L129.148 100.51L126.525 97.4903ZM119.981 104.088V123H123.981V104.088H119.981ZM121.981 121H113.629V125H121.981V121ZM115.629 123V50.04H111.629V123H115.629ZM113.629 52.04H121.981V48.04H113.629V52.04ZM119.981 50.04V88.152H123.981V50.04H119.981ZM196.11 73.464L195.066 75.1697L195.073 75.1744L195.081 75.179L196.11 73.464ZM203.406 81.624L201.598 82.4788L201.607 82.4987L201.617 82.5184L203.406 81.624ZM205.998 98.904V100.904H207.998V98.904H205.998ZM170.766 98.904V96.904H168.722L168.766 98.9479L170.766 98.904ZM175.182 112.248L173.708 113.599L173.722 113.615L173.737 113.631L175.182 112.248ZM195.822 115.896L196.272 117.845L196.289 117.841L196.307 117.836L195.822 115.896ZM203.694 113.208H205.694V110.175L202.906 111.37L203.694 113.208ZM203.694 120.6L204.498 122.431L205.694 121.906V120.6H203.694ZM195.918 123.096L195.526 121.135L195.502 121.14L195.479 121.145L195.918 123.096ZM173.838 120.984L172.895 122.748L172.901 122.751L172.908 122.754L173.838 120.984ZM165.102 112.152L163.325 113.069L163.334 113.087L163.343 113.104L165.102 112.152ZM164.814 83.16L163.008 82.3001L163.003 82.3119L162.997 82.3237L164.814 83.16ZM172.782 73.848L171.716 72.1555L171.709 72.16L171.702 72.1646L172.782 73.848ZM175.086 81.432L173.601 80.0921L173.599 80.0941L175.086 81.432ZM170.958 92.184L168.967 91.9905L168.754 94.184H170.958V92.184ZM197.166 92.184V94.184H199.166V92.184H197.166ZM195.822 84.504L193.973 85.2655L193.973 85.2655L195.822 84.504ZM191.694 79.416L190.532 81.0435L190.564 81.0669L190.598 81.0889L191.694 79.416ZM184.782 72.584C188.904 72.584 192.302 73.4777 195.066 75.1697L197.154 71.7583C193.646 69.6103 189.492 68.584 184.782 68.584V72.584ZM195.081 75.179C197.927 76.8864 200.095 79.2998 201.598 82.4788L205.214 80.7692C203.389 76.9082 200.693 73.8816 197.139 71.749L195.081 75.179ZM201.617 82.5184C203.18 85.6446 203.998 89.3904 203.998 93.816H207.998C207.998 88.8976 207.088 84.5154 205.195 80.7296L201.617 82.5184ZM203.998 93.816V98.904H207.998V93.816H203.998ZM205.998 96.904H170.766V100.904H205.998V96.904ZM168.766 98.9479C168.901 105.065 170.454 110.05 173.708 113.599L176.656 110.897C174.278 108.302 172.887 104.391 172.766 98.8601L168.766 98.9479ZM173.737 113.631C177.078 117.12 181.65 118.76 187.182 118.76V114.76C182.474 114.76 179.046 113.392 176.627 110.865L173.737 113.631ZM187.182 118.76C190.558 118.76 193.594 118.463 196.272 117.845L195.372 113.947C193.058 114.481 190.334 114.76 187.182 114.76V118.76ZM196.307 117.836C198.981 117.168 201.706 116.236 204.482 115.046L202.906 111.37C200.306 112.484 197.783 113.344 195.337 113.956L196.307 117.836ZM201.694 113.208V120.6H205.694V113.208H201.694ZM202.89 118.769C200.385 119.868 197.931 120.654 195.526 121.135L196.31 125.057C199.025 124.514 201.755 123.636 204.498 122.431L202.89 118.769ZM195.479 121.145C193.102 121.68 190.217 121.96 186.798 121.96V125.96C190.419 125.96 193.614 125.664 196.357 125.047L195.479 121.145ZM186.798 121.96C182.212 121.96 178.219 121.027 174.768 119.214L172.908 122.754C177.009 124.909 181.656 125.96 186.798 125.96V121.96ZM174.781 119.22C171.434 117.431 168.797 114.779 166.861 111.2L163.343 113.104C165.631 117.333 168.818 120.569 172.895 122.748L174.781 119.22ZM166.879 111.235C165.012 107.618 164.03 103.118 164.03 97.656H160.03C160.03 103.586 161.096 108.75 163.325 113.069L166.879 111.235ZM164.03 97.656C164.03 92.2377 164.923 87.7055 166.631 83.9963L162.997 82.3237C160.993 86.6785 160.03 91.8103 160.03 97.656H164.03ZM166.62 84.0199C168.397 80.2871 170.817 77.4846 173.862 75.5314L171.702 72.1646C167.963 74.5634 165.071 77.9689 163.008 82.3001L166.62 84.0199ZM173.848 75.5405C176.949 73.5875 180.571 72.584 184.782 72.584V68.584C179.905 68.584 175.527 69.7565 171.716 72.1555L173.848 75.5405ZM184.686 75.496C180.176 75.496 176.404 76.9866 173.601 80.0921L176.571 82.7719C178.504 80.6294 181.132 79.496 184.686 79.496V75.496ZM173.599 80.0941C170.925 83.0652 169.443 87.1017 168.967 91.9905L172.949 92.3775C173.369 88.0503 174.639 84.9188 176.573 82.7699L173.599 80.0941ZM170.958 94.184H197.166V90.184H170.958V94.184ZM199.166 92.184C199.166 89.0421 198.688 86.2124 197.671 83.7425L193.973 85.2655C194.748 87.1476 195.166 89.4379 195.166 92.184H199.166ZM197.671 83.7425C196.632 81.2175 195.004 79.1937 192.79 77.7431L190.598 81.0889C192.096 82.0703 193.22 83.4385 193.973 85.2655L197.671 83.7425ZM192.856 77.7885C190.634 76.2014 187.855 75.496 184.686 75.496V79.496C187.277 79.496 189.17 80.0706 190.532 81.0435L192.856 77.7885ZM274.586 123V125H276.586V123H274.586ZM264.506 123L262.824 124.083L263.415 125H264.506V123ZM227.834 66.072L229.515 64.9889L228.924 64.072H227.834V66.072ZM227.45 66.072V64.072H225.335L225.453 66.1829L227.45 66.072ZM227.642 69.912L225.644 70.0028L225.646 70.048L225.65 70.0931L227.642 69.912ZM227.93 74.52L225.931 74.5969L225.931 74.5999L227.93 74.52ZM228.122 79.512L226.123 79.586L226.123 79.586L228.122 79.512ZM228.218 123V125H230.218V123H228.218ZM220.25 123H218.25V125H220.25V123ZM220.25 54.456V52.456H218.25V54.456H220.25ZM230.234 54.456L231.914 53.3723L231.324 52.456H230.234V54.456ZM266.81 111.192L265.129 112.276L265.719 113.192H266.81V111.192ZM267.194 111.192V113.192H269.367L269.187 111.026L267.194 111.192ZM267.002 108.024L265.004 108.115L265.004 108.119L267.002 108.024ZM266.81 103.416L264.811 103.49L264.811 103.493L266.81 103.416ZM266.522 54.456V52.456H264.522V54.456H266.522ZM274.586 54.456H276.586V52.456H274.586V54.456ZM274.586 121H264.506V125H274.586V121ZM266.187 121.917L229.515 64.9889L226.152 67.1551L262.824 124.083L266.187 121.917ZM227.834 64.072H227.45V68.072H227.834V64.072ZM225.453 66.1829C225.516 67.327 225.58 68.6001 225.644 70.0028L229.639 69.8212C229.575 68.4079 229.511 67.121 229.446 65.9611L225.453 66.1829ZM225.65 70.0931C225.774 71.461 225.868 72.9617 225.931 74.5969L229.928 74.4431C229.863 72.7503 229.765 71.179 229.633 69.7309L225.65 70.0931ZM225.931 74.5999C225.995 76.1978 226.059 77.8598 226.123 79.586L230.12 79.438C230.056 77.7082 229.992 76.0422 229.928 74.4401L225.931 74.5999ZM226.123 79.586C226.186 81.2894 226.218 82.9927 226.218 84.696H230.218C230.218 82.9433 230.185 81.1906 230.12 79.438L226.123 79.586ZM226.218 84.696V123H230.218V84.696H226.218ZM228.218 121H220.25V125H228.218V121ZM222.25 123V54.456H218.25V123H222.25ZM220.25 56.456H230.234V52.456H220.25V56.456ZM228.553 55.5397L265.129 112.276L268.49 110.108L231.914 53.3723L228.553 55.5397ZM266.81 113.192H267.194V109.192H266.81V113.192ZM269.187 111.026C269.125 110.293 269.063 109.264 268.999 107.929L265.004 108.119C265.068 109.472 265.134 110.555 265.2 111.358L269.187 111.026ZM268.999 107.933C268.936 106.531 268.872 104.999 268.808 103.339L264.811 103.493C264.875 105.161 264.939 106.701 265.004 108.115L268.999 107.933ZM268.808 103.342C268.744 101.615 268.68 99.8558 268.616 98.0646L264.619 98.2074C264.683 100 264.747 101.761 264.811 103.49L268.808 103.342ZM268.616 98.0646C268.553 96.2926 268.522 94.6527 268.522 93.144H264.522C264.522 94.7073 264.554 96.3954 264.619 98.2074L268.616 98.0646ZM268.522 93.144V54.456H264.522V93.144H268.522ZM266.522 56.456H274.586V52.456H266.522V56.456ZM272.586 54.456V123H276.586V54.456H272.586ZM335.043 108.6L333.153 107.946L333.149 107.957L333.146 107.968L335.043 108.6ZM330.243 116.952L328.769 115.601L328.758 115.612L328.748 115.623L330.243 116.952ZM322.659 122.232L323.388 124.094L323.398 124.09L323.409 124.086L322.659 122.232ZM303.363 122.232L302.585 124.074L302.603 124.082L302.62 124.089L303.363 122.232ZM295.875 116.952L294.401 118.303L294.401 118.303L295.875 116.952ZM290.883 108.6L288.993 109.254L289.001 109.276L289.009 109.298L290.883 108.6ZM292.035 82.776L293.83 83.6587L293.835 83.6471L292.035 82.776ZM300.291 73.752L301.283 75.4885L301.295 75.4819L301.306 75.4751L300.291 73.752ZM325.347 73.752L324.318 75.467L324.336 75.4779L324.355 75.4885L325.347 73.752ZM333.699 82.776L331.91 83.6704L331.919 83.6878L331.928 83.7051L333.699 82.776ZM299.427 107.736L297.534 108.381L297.542 108.405L297.551 108.429L299.427 107.736ZM304.419 114.552L305.581 112.925L305.581 112.925L304.419 114.552ZM321.507 114.552L320.345 112.925L320.345 112.925L321.507 114.552ZM326.403 107.736L324.522 107.056L324.518 107.067L324.514 107.079L326.403 107.736ZM326.403 86.712L328.274 86.0052L328.274 86.0052L326.403 86.712ZM321.411 80.088L320.226 81.6993L320.253 81.7188L320.28 81.7375L321.411 80.088ZM301.443 82.872L303.093 84.0025L303.093 84.0025L301.443 82.872ZM334.771 97.176C334.771 101.288 334.218 104.868 333.153 107.946L336.933 109.254C338.172 105.676 338.771 101.64 338.771 97.176H334.771ZM333.146 107.968C332.138 110.992 330.672 113.524 328.769 115.601L331.717 118.303C334.038 115.772 335.772 112.736 336.94 109.232L333.146 107.968ZM328.748 115.623C326.916 117.685 324.647 119.271 321.909 120.378L323.409 124.086C326.687 122.761 329.474 120.827 331.738 118.281L328.748 115.623ZM321.93 120.37C319.251 121.418 316.208 121.96 312.771 121.96V125.96C316.63 125.96 320.179 125.35 323.388 124.094L321.93 120.37ZM312.771 121.96C309.61 121.96 306.728 121.424 304.106 120.375L302.62 124.089C305.758 125.344 309.148 125.96 312.771 125.96V121.96ZM304.141 120.39C301.526 119.285 299.267 117.693 297.349 115.601L294.401 118.303C296.707 120.819 299.44 122.747 302.585 124.074L304.141 120.39ZM297.349 115.601C295.43 113.507 293.893 110.952 292.757 107.902L289.009 109.298C290.305 112.776 292.096 115.789 294.401 118.303L297.349 115.601ZM292.773 107.946C291.708 104.868 291.155 101.288 291.155 97.176H287.155C287.155 101.64 287.754 105.676 288.993 109.254L292.773 107.946ZM291.155 97.176C291.155 91.6951 292.08 87.2166 293.83 83.6586L290.24 81.8934C288.15 86.1434 287.155 91.2649 287.155 97.176H291.155ZM293.835 83.6471C295.592 80.0165 298.074 77.3223 301.283 75.4885L299.299 72.0155C295.34 74.2777 292.318 77.5995 290.235 81.9049L293.835 83.6471ZM301.306 75.4751C304.53 73.5753 308.422 72.584 313.059 72.584V68.584C307.84 68.584 303.22 69.7047 299.276 72.0289L301.306 75.4751ZM313.059 72.584C317.42 72.584 321.15 73.5661 324.318 75.467L326.376 72.037C322.504 69.7139 318.042 68.584 313.059 68.584V72.584ZM324.355 75.4885C327.57 77.3258 330.089 80.0279 331.91 83.6704L335.488 81.8816C333.341 77.5881 330.292 74.2742 326.339 72.0155L324.355 75.4885ZM331.928 83.7051C333.788 87.251 334.771 91.712 334.771 97.176H338.771C338.771 91.248 337.706 86.109 335.47 81.8469L331.928 83.7051ZM295.891 97.176C295.891 101.371 296.423 105.118 297.534 108.381L301.32 107.091C300.383 104.338 299.891 101.045 299.891 97.176H295.891ZM297.551 108.429C298.758 111.695 300.646 114.315 303.257 116.179L305.581 112.925C303.712 111.589 302.272 109.665 301.303 107.043L297.551 108.429ZM303.257 116.179C305.914 118.077 309.197 118.952 312.963 118.952V114.952C309.817 114.952 307.404 114.227 305.581 112.925L303.257 116.179ZM312.963 118.952C316.729 118.952 320.012 118.077 322.669 116.179L320.345 112.925C318.522 114.227 316.109 114.952 312.963 114.952V118.952ZM322.669 116.179C325.29 114.308 327.151 111.674 328.292 108.393L324.514 107.079C323.607 109.686 322.204 111.596 320.345 112.925L322.669 116.179ZM328.284 108.416C329.468 105.142 330.035 101.382 330.035 97.176H326.035C326.035 101.034 325.514 104.314 324.522 107.056L328.284 108.416ZM330.035 97.176C330.035 92.9137 329.47 89.1721 328.274 86.0052L324.532 87.4188C325.512 90.0119 326.035 93.2463 326.035 97.176H330.035ZM328.274 86.0052C327.061 82.7957 325.163 80.2358 322.542 78.4385L320.28 81.7375C322.139 83.0122 323.569 84.8683 324.532 87.4188L328.274 86.0052ZM322.596 78.4767C319.985 76.5572 316.684 75.688 312.867 75.688V79.688C316.09 79.688 318.485 80.4188 320.226 81.6993L322.596 78.4767ZM312.867 75.688C307.147 75.688 302.629 77.6028 299.793 81.7415L303.093 84.0025C304.993 81.2292 308.091 79.688 312.867 79.688V75.688ZM299.793 81.7415C297.115 85.6494 295.891 90.866 295.891 97.176H299.891C299.891 91.326 301.035 87.0065 303.093 84.0025L299.793 81.7415ZM371.28 116.76L371.563 118.74L371.609 118.733L371.654 118.725L371.28 116.76ZM374.544 115.992H376.544V113.284L373.956 114.08L374.544 115.992ZM374.544 122.424L375.438 124.213L376.544 123.66V122.424H374.544ZM370.704 123.48L370.4 121.503L370.363 121.509L370.326 121.516L370.704 123.48ZM358.416 122.616L357.628 124.454L357.659 124.468L357.691 124.48L358.416 122.616ZM350.832 78.072H352.832V76.072H350.832V78.072ZM343.536 78.072H341.536V80.072H343.536V78.072ZM343.536 74.04L342.708 72.2193L341.536 72.7522V74.04H343.536ZM350.928 70.68L351.756 72.5007L352.576 72.128L352.84 71.267L350.928 70.68ZM354.288 59.736V57.736H352.81L352.376 59.149L354.288 59.736ZM359.28 59.736H361.28V57.736H359.28V59.736ZM359.28 71.544H357.28V73.544H359.28V71.544ZM374.16 71.544H376.16V69.544H374.16V71.544ZM374.16 78.072V80.072H376.16V78.072H374.16ZM359.28 78.072V76.072H357.28V78.072H359.28ZM361.488 114.84L360.044 116.224L360.073 116.255L360.104 116.284L361.488 114.84ZM367.344 119.048C368.724 119.048 370.131 118.944 371.563 118.74L370.997 114.78C369.741 114.96 368.524 115.048 367.344 115.048V119.048ZM371.654 118.725C373.035 118.462 374.202 118.19 375.132 117.904L373.956 114.08C373.222 114.306 372.213 114.546 370.906 114.795L371.654 118.725ZM372.544 115.992V122.424H376.544V115.992H372.544ZM373.65 120.635C373.023 120.948 371.978 121.26 370.4 121.503L371.008 125.457C372.758 125.188 374.273 124.796 375.438 124.213L373.65 120.635ZM370.326 121.516C368.774 121.814 367.301 121.96 365.904 121.96V125.96C367.579 125.96 369.306 125.786 371.082 125.444L370.326 121.516ZM365.904 121.96C363.442 121.96 361.194 121.551 359.141 120.752L357.691 124.48C360.246 125.473 362.99 125.96 365.904 125.96V121.96ZM359.204 120.778C357.386 119.999 355.867 118.667 354.651 116.677L351.237 118.763C352.837 121.381 354.966 123.313 357.628 124.454L359.204 120.778ZM354.651 116.677C353.512 114.813 352.832 111.999 352.832 108.024H348.832C348.832 112.369 349.56 116.019 351.237 118.763L354.651 116.677ZM352.832 108.024V78.072H348.832V108.024H352.832ZM350.832 76.072H343.536V80.072H350.832V76.072ZM345.536 78.072V74.04H341.536V78.072H345.536ZM344.364 75.8607L351.756 72.5007L350.1 68.8593L342.708 72.2193L344.364 75.8607ZM352.84 71.267L356.2 60.323L352.376 59.149L349.016 70.093L352.84 71.267ZM354.288 61.736H359.28V57.736H354.288V61.736ZM357.28 59.736V71.544H361.28V59.736H357.28ZM359.28 73.544H374.16V69.544H359.28V73.544ZM372.16 71.544V78.072H376.16V71.544H372.16ZM374.16 76.072H359.28V80.072H374.16V76.072ZM357.28 78.072V107.832H361.28V78.072H357.28ZM357.28 107.832C357.28 111.242 358.077 114.171 360.044 116.224L362.932 113.456C361.955 112.437 361.28 110.694 361.28 107.832H357.28ZM360.104 116.284C362.056 118.154 364.524 119.048 367.344 119.048V115.048C365.428 115.048 363.992 114.47 362.872 113.396L360.104 116.284ZM416.048 73.464L415.003 75.1697L415.011 75.1744L415.019 75.179L416.048 73.464ZM423.344 81.624L421.535 82.4788L421.545 82.4987L421.555 82.5184L423.344 81.624ZM425.936 98.904V100.904H427.936V98.904H425.936ZM390.704 98.904V96.904H388.659L388.704 98.9479L390.704 98.904ZM395.12 112.248L393.645 113.599L393.66 113.615L393.675 113.631L395.12 112.248ZM415.76 115.896L416.209 117.845L416.227 117.841L416.245 117.836L415.76 115.896ZM423.632 113.208H425.632V110.175L422.844 111.37L423.632 113.208ZM423.632 120.6L424.435 122.431L425.632 121.906V120.6H423.632ZM415.856 123.096L415.463 121.135L415.44 121.14L415.416 121.145L415.856 123.096ZM393.776 120.984L392.833 122.748L392.839 122.751L392.845 122.754L393.776 120.984ZM385.04 112.152L383.262 113.069L383.271 113.087L383.28 113.104L385.04 112.152ZM384.752 83.16L382.946 82.3001L382.94 82.3119L382.935 82.3237L384.752 83.16ZM392.72 73.848L391.654 72.1555L391.647 72.16L391.64 72.1646L392.72 73.848ZM395.024 81.432L393.539 80.0921L393.537 80.0941L395.024 81.432ZM390.896 92.184L388.905 91.9905L388.692 94.184H390.896V92.184ZM417.104 92.184V94.184H419.104V92.184H417.104ZM415.76 84.504L413.91 85.2655L413.91 85.2655L415.76 84.504ZM411.632 79.416L410.469 81.0435L410.502 81.0669L410.535 81.0889L411.632 79.416ZM404.72 72.584C408.841 72.584 412.24 73.4777 415.003 75.1697L417.092 71.7583C413.583 69.6103 409.43 68.584 404.72 68.584V72.584ZM415.019 75.179C417.864 76.8864 420.033 79.2998 421.535 82.4788L425.152 80.7692C423.326 76.9082 420.631 73.8816 417.076 71.749L415.019 75.179ZM421.555 82.5184C423.118 85.6446 423.936 89.3904 423.936 93.816H427.936C427.936 88.8976 427.025 84.5154 425.132 80.7296L421.555 82.5184ZM423.936 93.816V98.904H427.936V93.816H423.936ZM425.936 96.904H390.704V100.904H425.936V96.904ZM388.704 98.9479C388.838 105.065 390.391 110.05 393.645 113.599L396.594 110.897C394.216 108.302 392.825 104.391 392.703 98.8601L388.704 98.9479ZM393.675 113.631C397.016 117.12 401.588 118.76 407.12 118.76V114.76C402.411 114.76 398.983 113.392 396.564 110.865L393.675 113.631ZM407.12 118.76C410.496 118.76 413.532 118.463 416.209 117.845L415.31 113.947C412.995 114.481 410.271 114.76 407.12 114.76V118.76ZM416.245 117.836C418.918 117.168 421.644 116.236 424.419 115.046L422.844 111.37C420.243 112.484 417.721 113.344 415.274 113.956L416.245 117.836ZM421.632 113.208V120.6H425.632V113.208H421.632ZM422.828 118.769C420.323 119.868 417.869 120.654 415.463 121.135L416.248 125.057C418.962 124.514 421.692 123.636 424.435 122.431L422.828 118.769ZM415.416 121.145C413.04 121.68 410.154 121.96 406.736 121.96V125.96C410.357 125.96 413.551 125.664 416.295 125.047L415.416 121.145ZM406.736 121.96C402.15 121.96 398.157 121.027 394.706 119.214L392.845 122.754C396.946 124.909 401.593 125.96 406.736 125.96V121.96ZM394.718 119.22C391.371 117.431 388.735 114.779 386.799 111.2L383.28 113.104C385.568 117.333 388.756 120.569 392.833 122.748L394.718 119.22ZM386.817 111.235C384.95 107.618 383.968 103.118 383.968 97.656H379.968C379.968 103.586 381.033 108.75 383.262 113.069L386.817 111.235ZM383.968 97.656C383.968 92.2377 384.861 87.7055 386.568 83.9963L382.935 82.3237C380.93 86.6785 379.968 91.8103 379.968 97.656H383.968ZM386.557 84.0199C388.335 80.2871 390.755 77.4846 393.799 75.5314L391.64 72.1646C387.9 74.5634 385.008 77.9689 382.946 82.3001L386.557 84.0199ZM393.785 75.5405C396.887 73.5875 400.509 72.584 404.72 72.584V68.584C399.842 68.584 395.464 69.7565 391.654 72.1555L393.785 75.5405ZM404.624 75.496C400.114 75.496 396.341 76.9866 393.539 80.0921L396.508 82.7719C398.442 80.6294 401.069 79.496 404.624 79.496V75.496ZM393.537 80.0941C390.863 83.0652 389.38 87.1017 388.905 91.9905L392.886 92.3775C393.307 88.0503 394.576 84.9188 396.51 82.7699L393.537 80.0941ZM390.896 94.184H417.104V90.184H390.896V94.184ZM419.104 92.184C419.104 89.0421 418.626 86.2124 417.609 83.7425L413.91 85.2655C414.685 87.1476 415.104 89.4379 415.104 92.184H419.104ZM417.609 83.7425C416.569 81.2175 414.942 79.1937 412.728 77.7431L410.535 81.0889C412.033 82.0703 413.158 83.4385 413.91 85.2655L417.609 83.7425ZM412.794 77.7885C410.572 76.2014 407.793 75.496 404.624 75.496V79.496C407.214 79.496 409.107 80.0706 410.469 81.0435L412.794 77.7885Z" fill="#0090C1"/>
<path d="M455.186 109.888L495.387 17.5655C491.583 14.5909 489.341 13.8649 485.184 13.9085L446.28 107.41L442.789 125.591L455.186 109.888Z" fill="#0090C1" stroke="#0090C1"/>
</g>
<defs>
<clipPath id="clip0_1_2">
<rect width="504" height="144" fill="white"/>
</clipPath>
</defs>
</svg>
