<svg width="504" height="144" viewBox="0 0 504 144" fill="none" xmlns="http://www.w3.org/2000/svg">
<g clip-path="url(#clip0_1_2)">
<g filter="url(#filter0_d_1_2)">
<path d="M44.008 118H35.368V57.04H13.96V49.456H65.32V57.04H44.008V118ZM86.3043 65.68C92.5763 65.68 97.2163 67.056 100.224 69.808C103.232 72.56 104.736 76.944 104.736 82.96V118H98.5923L96.9603 110.704H96.5763C95.1043 112.56 93.5683 114.128 91.9683 115.408C90.4323 116.624 88.6403 117.52 86.5923 118.096C84.6083 118.672 82.1763 118.96 79.2963 118.96C76.2243 118.96 73.4403 118.416 70.9443 117.328C68.5123 116.24 66.5923 114.576 65.1843 112.336C63.7763 110.032 63.0723 107.152 63.0723 103.696C63.0723 98.576 65.0883 94.64 69.1203 91.888C73.1523 89.072 79.3603 87.536 87.7443 87.28L96.4803 86.992V83.92C96.4803 79.632 95.5523 76.656 93.6963 74.992C91.8403 73.328 89.2163 72.496 85.8243 72.496C83.1363 72.496 80.5763 72.912 78.1443 73.744C75.7123 74.512 73.4403 75.408 71.3282 76.432L68.7363 70.096C70.9763 68.88 73.6323 67.856 76.7043 67.024C79.7763 66.128 82.9763 65.68 86.3043 65.68ZM88.8003 93.136C82.4003 93.392 77.9523 94.416 75.4563 96.208C73.0243 98 71.8083 100.528 71.8083 103.792C71.8083 106.672 72.6723 108.784 74.4003 110.128C76.1923 111.472 78.4643 112.144 81.2163 112.144C85.5683 112.144 89.1843 110.96 92.0643 108.592C94.9443 106.16 96.3843 102.448 96.3843 97.456V92.848L88.8003 93.136ZM128.981 83.152C128.981 84.176 128.917 85.52 128.789 87.184C128.725 88.848 128.661 90.288 128.597 91.504H128.981C129.365 90.992 129.941 90.256 130.709 89.296C131.477 88.336 132.245 87.376 133.013 86.416C133.845 85.392 134.549 84.56 135.125 83.92L151.541 66.544H161.429L140.597 88.528L162.869 118H152.693L134.837 94L128.981 99.088V118H120.629V45.04H128.981V83.152ZM191.782 65.584C196.198 65.584 199.974 66.544 203.11 68.464C206.31 70.384 208.742 73.104 210.406 76.624C212.134 80.08 212.998 84.144 212.998 88.816V93.904H177.766C177.894 99.728 179.366 104.176 182.182 107.248C185.062 110.256 189.062 111.76 194.182 111.76C197.446 111.76 200.326 111.472 202.822 110.896C205.382 110.256 208.006 109.36 210.694 108.208V115.6C208.07 116.752 205.478 117.584 202.918 118.096C200.358 118.672 197.318 118.96 193.798 118.96C188.934 118.96 184.614 117.968 180.838 115.984C177.126 114 174.214 111.056 172.102 107.152C170.054 103.184 169.03 98.352 169.03 92.656C169.03 87.024 169.958 82.192 171.814 78.16C173.734 74.128 176.39 71.024 179.782 68.848C183.238 66.672 187.238 65.584 191.782 65.584ZM191.686 72.496C187.654 72.496 184.454 73.808 182.086 76.432C179.782 78.992 178.406 82.576 177.958 87.184H204.166C204.166 84.24 203.718 81.68 202.822 79.504C201.926 77.328 200.55 75.632 198.694 74.416C196.902 73.136 194.566 72.496 191.686 72.496ZM281.586 118H271.506L234.834 61.072H234.45C234.514 62.224 234.578 63.504 234.642 64.912C234.77 66.32 234.866 67.856 234.93 69.52C234.994 71.12 235.058 72.784 235.122 74.512C235.186 76.24 235.218 77.968 235.218 79.696V118H227.25V49.456H237.234L273.81 106.192H274.194C274.13 105.424 274.066 104.368 274.002 103.024C273.938 101.616 273.874 100.08 273.81 98.416C273.746 96.688 273.682 94.928 273.618 93.136C273.554 91.344 273.522 89.68 273.522 88.144V49.456H281.586V118ZM343.771 92.176C343.771 96.464 343.195 100.272 342.043 103.6C340.955 106.864 339.355 109.648 337.243 111.952C335.195 114.256 332.667 116.016 329.659 117.232C326.715 118.384 323.419 118.96 319.771 118.96C316.379 118.96 313.243 118.384 310.363 117.232C307.483 116.016 304.987 114.256 302.875 111.952C300.763 109.648 299.099 106.864 297.883 103.6C296.731 100.272 296.155 96.464 296.155 92.176C296.155 86.48 297.115 81.68 299.035 77.776C300.955 73.808 303.707 70.8 307.291 68.752C310.875 66.64 315.131 65.584 320.059 65.584C324.731 65.584 328.827 66.64 332.347 68.752C335.931 70.8 338.715 73.808 340.699 77.776C342.747 81.68 343.771 86.48 343.771 92.176ZM304.891 92.176C304.891 96.208 305.403 99.728 306.427 102.736C307.515 105.68 309.179 107.952 311.419 109.552C313.659 111.152 316.507 111.952 319.963 111.952C323.419 111.952 326.267 111.152 328.507 109.552C330.747 107.952 332.379 105.68 333.403 102.736C334.491 99.728 335.035 96.208 335.035 92.176C335.035 88.08 334.491 84.592 333.403 81.712C332.315 78.832 330.651 76.624 328.411 75.088C326.235 73.488 323.387 72.688 319.867 72.688C314.619 72.688 310.811 74.416 308.443 77.872C306.075 81.328 304.891 86.096 304.891 92.176ZM374.344 112.048C375.624 112.048 376.936 111.952 378.28 111.76C379.624 111.504 380.712 111.248 381.544 110.992V117.424C380.648 117.872 379.368 118.224 377.704 118.48C376.04 118.8 374.44 118.96 372.904 118.96C370.216 118.96 367.72 118.512 365.416 117.616C363.176 116.656 361.352 115.024 359.944 112.72C358.536 110.416 357.832 107.184 357.832 103.024V73.072H350.536V69.04L357.928 65.68L361.288 54.736H366.28V66.544H381.16V73.072H366.28V102.832C366.28 105.968 367.016 108.304 368.488 109.84C370.024 111.312 371.976 112.048 374.344 112.048ZM411.72 65.584C416.136 65.584 419.912 66.544 423.048 68.464C426.248 70.384 428.68 73.104 430.344 76.624C432.072 80.08 432.936 84.144 432.936 88.816V93.904H397.704C397.832 99.728 399.304 104.176 402.12 107.248C405 110.256 409 111.76 414.12 111.76C417.384 111.76 420.264 111.472 422.76 110.896C425.32 110.256 427.944 109.36 430.632 108.208V115.6C428.008 116.752 425.416 117.584 422.856 118.096C420.296 118.672 417.256 118.96 413.736 118.96C408.872 118.96 404.552 117.968 400.776 115.984C397.064 114 394.152 111.056 392.04 107.152C389.992 103.184 388.968 98.352 388.968 92.656C388.968 87.024 389.896 82.192 391.752 78.16C393.672 74.128 396.328 71.024 399.72 68.848C403.176 66.672 407.176 65.584 411.72 65.584ZM411.624 72.496C407.592 72.496 404.392 73.808 402.024 76.432C399.72 78.992 398.344 82.576 397.896 87.184H424.104C424.104 84.24 423.656 81.68 422.76 79.504C421.864 77.328 420.488 75.632 418.632 74.416C416.84 73.136 414.504 72.496 411.624 72.496Z" fill="white"/>
<path d="M44.008 118V119H45.008V118H44.008ZM35.368 118H34.368V119H35.368V118ZM35.368 57.04H36.368V56.04H35.368V57.04ZM13.96 57.04H12.96V58.04H13.96V57.04ZM13.96 49.456V48.456H12.96V49.456H13.96ZM65.32 49.456H66.32V48.456H65.32V49.456ZM65.32 57.04V58.04H66.32V57.04H65.32ZM44.008 57.04V56.04H43.008V57.04H44.008ZM44.008 117H35.368V119H44.008V117ZM36.368 118V57.04H34.368V118H36.368ZM35.368 56.04H13.96V58.04H35.368V56.04ZM14.96 57.04V49.456H12.96V57.04H14.96ZM13.96 50.456H65.32V48.456H13.96V50.456ZM64.32 49.456V57.04H66.32V49.456H64.32ZM65.32 56.04H44.008V58.04H65.32V56.04ZM43.008 57.04V118H45.008V57.04H43.008ZM100.224 69.808L100.899 69.0702L100.899 69.0702L100.224 69.808ZM104.736 118V119H105.736V118H104.736ZM98.5923 118L97.6164 118.218L97.7912 119H98.5923V118ZM96.9603 110.704L97.9361 110.486L97.7613 109.704H96.9603V110.704ZM96.5763 110.704V109.704H96.093L95.7928 110.083L96.5763 110.704ZM91.9683 115.408L92.589 116.192L92.5929 116.189L91.9683 115.408ZM86.5923 118.096L86.3215 117.133L86.3134 117.136L86.5923 118.096ZM70.9443 117.328L70.5359 118.241L70.5447 118.245L70.9443 117.328ZM65.1843 112.336L64.3309 112.857L64.3376 112.868L65.1843 112.336ZM69.1203 91.888L69.684 92.714L69.6928 92.7078L69.1203 91.888ZM87.7443 87.28L87.7748 88.2795L87.7772 88.2795L87.7443 87.28ZM96.4803 86.992L96.5132 87.9915L97.4803 87.9596V86.992H96.4803ZM93.6963 74.992L93.0287 75.7366L93.0287 75.7366L93.6963 74.992ZM78.1443 73.744L78.4454 74.6976L78.4567 74.694L78.4679 74.6902L78.1443 73.744ZM71.3282 76.432L70.4027 76.8106L70.806 77.7965L71.7645 77.3318L71.3282 76.432ZM68.7363 70.096L68.2592 69.2171L67.4713 69.6449L67.8107 70.4746L68.7363 70.096ZM76.7043 67.024L76.9657 67.9892L76.975 67.9867L76.9843 67.984L76.7043 67.024ZM88.8003 93.136L88.7623 92.1367L88.7603 92.1368L88.8003 93.136ZM75.4563 96.208L74.873 95.3956L74.8631 95.4029L75.4563 96.208ZM74.4003 110.128L73.7863 110.917L73.7932 110.923L73.8003 110.928L74.4003 110.128ZM92.0643 108.592L92.6994 109.364L92.7094 109.356L92.0643 108.592ZM96.3843 92.848H97.3843V91.8093L96.3463 91.8487L96.3843 92.848ZM86.3043 66.68C92.4563 66.68 96.8031 68.0333 99.5492 70.5458L100.899 69.0702C97.6294 66.0786 92.6962 64.68 86.3043 64.68V66.68ZM99.5492 70.5458C102.268 73.0334 103.736 77.09 103.736 82.96H105.736C105.736 76.798 104.196 72.0866 100.899 69.0702L99.5492 70.5458ZM103.736 82.96V118H105.736V82.96H103.736ZM104.736 117H98.5923V119H104.736V117ZM99.5681 117.782L97.9361 110.486L95.9844 110.922L97.6164 118.218L99.5681 117.782ZM96.9603 109.704H96.5763V111.704H96.9603V109.704ZM95.7928 110.083C94.3604 111.889 92.8765 113.401 91.3436 114.627L92.5929 116.189C94.26 114.855 95.8481 113.231 97.3597 111.325L95.7928 110.083ZM91.3475 114.624C89.9239 115.751 88.2532 116.59 86.3215 117.133L86.863 119.059C89.0273 118.45 90.9406 117.497 92.589 116.192L91.3475 114.624ZM86.3134 117.136C84.4478 117.677 82.116 117.96 79.2963 117.96V119.96C82.2365 119.96 84.7687 119.667 86.8711 119.056L86.3134 117.136ZM79.2963 117.96C76.3441 117.96 73.6986 117.438 71.3438 116.411L70.5447 118.245C73.1819 119.394 76.1044 119.96 79.2963 119.96V117.96ZM71.3526 116.415C69.0998 115.407 67.3329 113.875 66.0309 111.804L64.3376 112.868C65.8516 115.277 67.9247 117.073 70.5359 118.241L71.3526 116.415ZM66.0375 111.815C64.7489 109.706 64.0723 107.019 64.0723 103.696H62.0723C62.0723 107.285 62.8036 110.358 64.331 112.857L66.0375 111.815ZM64.0723 103.696C64.0723 98.8873 65.9405 95.2691 69.684 92.7139L68.5565 91.062C64.236 94.0109 62.0723 98.2647 62.0723 103.696H64.0723ZM69.6928 92.7078C73.4886 90.0568 79.4633 88.5333 87.7748 88.2795L87.7137 86.2805C79.2572 86.5387 72.8159 88.0872 68.5477 91.0682L69.6928 92.7078ZM87.7772 88.2795L96.5132 87.9915L96.4473 85.9925L87.7113 86.2805L87.7772 88.2795ZM97.4803 86.992V83.92H95.4803V86.992H97.4803ZM97.4803 83.92C97.4803 79.5419 96.5422 76.2005 94.3638 74.2474L93.0287 75.7366C94.5623 77.1115 95.4803 79.7221 95.4803 83.92H97.4803ZM94.3638 74.2474C92.267 72.3676 89.3729 71.496 85.8243 71.496V73.496C89.0596 73.496 91.4135 74.2884 93.0287 75.7366L94.3638 74.2474ZM85.8243 71.496C83.0312 71.496 80.3615 71.9286 77.8206 72.7978L78.4679 74.6902C80.791 73.8954 83.2413 73.496 85.8243 73.496V71.496ZM77.8431 72.7904C75.3688 73.5718 73.0512 74.4853 70.892 75.5322L71.7645 77.3318C73.8293 76.3307 76.0557 75.4522 78.4454 74.6976L77.8431 72.7904ZM72.2538 76.0534L69.6618 69.7174L67.8107 70.4746L70.4027 76.8106L72.2538 76.0534ZM69.2133 70.9749C71.3706 69.8038 73.951 68.8057 76.9657 67.9892L76.4428 66.0588C73.3135 66.9063 70.5819 67.9562 68.2592 69.2171L69.2133 70.9749ZM76.9843 67.984C79.9617 67.1156 83.0672 66.68 86.3043 66.68V64.68C82.8853 64.68 79.5908 65.1404 76.4243 66.064L76.9843 67.984ZM88.7603 92.1368C82.3362 92.3938 77.6257 93.4194 74.873 95.3957L76.0395 97.0203C78.2788 95.4126 82.4643 94.3902 88.8402 94.1352L88.7603 92.1368ZM74.8631 95.4029C72.1522 97.4004 70.8083 100.24 70.8083 103.792H72.8083C72.8083 100.816 73.8963 98.5996 76.0495 97.0131L74.8631 95.4029ZM70.8083 103.792C70.8083 106.875 71.7421 109.327 73.7863 110.917L75.0142 109.339C73.6024 108.241 72.8083 106.469 72.8083 103.792H70.8083ZM73.8003 110.928C75.8018 112.429 78.2984 113.144 81.2163 113.144V111.144C78.6301 111.144 76.5827 110.515 75.0003 109.328L73.8003 110.928ZM81.2163 113.144C85.7593 113.144 89.6113 111.903 92.6994 109.364L91.4291 107.82C88.7572 110.017 85.3772 111.144 81.2163 111.144V113.144ZM92.7094 109.356C95.882 106.677 97.3843 102.641 97.3843 97.456H95.3843C95.3843 102.255 94.0065 105.643 91.4191 107.828L92.7094 109.356ZM97.3843 97.456V92.848H95.3843V97.456H97.3843ZM96.3463 91.8487L88.7623 92.1367L88.8382 94.1353L96.4222 93.8473L96.3463 91.8487ZM128.789 87.184L127.792 87.1073L127.79 87.1264L127.789 87.1456L128.789 87.184ZM128.597 91.504L127.598 91.4514L127.543 92.504H128.597V91.504ZM128.981 91.504V92.504H129.481L129.781 92.104L128.981 91.504ZM130.709 89.296L129.928 88.6713L129.928 88.6713L130.709 89.296ZM133.013 86.416L132.237 85.7854L132.232 85.7913L133.013 86.416ZM135.125 83.92L134.398 83.2333L134.39 83.242L134.381 83.251L135.125 83.92ZM151.541 66.544V65.544H151.11L150.814 65.8573L151.541 66.544ZM161.429 66.544L162.155 67.2318L163.754 65.544H161.429V66.544ZM140.597 88.528L139.871 87.8402L139.288 88.4551L139.799 89.1309L140.597 88.528ZM162.869 118V119H164.878L163.667 117.397L162.869 118ZM152.693 118L151.89 118.597L152.19 119H152.693V118ZM134.837 94L135.639 93.4031L134.995 92.5376L134.181 93.2451L134.837 94ZM128.981 99.088L128.325 98.3331L127.981 98.6321V99.088H128.981ZM128.981 118V119H129.981V118H128.981ZM120.629 118H119.629V119H120.629V118ZM120.629 45.04V44.04H119.629V45.04H120.629ZM128.981 45.04H129.981V44.04H128.981V45.04ZM127.981 83.152C127.981 84.1396 127.919 85.4551 127.792 87.1073L129.786 87.2607C129.915 85.5849 129.981 84.2124 129.981 83.152H127.981ZM127.789 87.1456C127.726 88.8064 127.662 90.2415 127.598 91.4514L129.595 91.5566C129.66 90.3345 129.724 88.8896 129.788 87.2224L127.789 87.1456ZM128.597 92.504H128.981V90.504H128.597V92.504ZM129.781 92.104C130.155 91.6048 130.723 90.8785 131.49 89.9207L129.928 88.6713C129.158 89.6335 128.574 90.3792 128.181 90.904L129.781 92.104ZM131.49 89.9207C132.258 88.9607 133.026 88.0007 133.794 87.0407L132.232 85.7913C131.464 86.7513 130.696 87.7113 129.928 88.6713L131.49 89.9207ZM133.789 87.0466C134.615 86.0296 135.308 85.2117 135.868 84.589L134.381 83.251C133.79 83.9083 133.074 84.7544 132.237 85.7854L133.789 87.0466ZM135.852 84.6067L152.268 67.2307L150.814 65.8573L134.398 83.2333L135.852 84.6067ZM151.541 67.544H161.429V65.544H151.541V67.544ZM160.703 65.8562L139.871 87.8402L141.323 89.2158L162.155 67.2318L160.703 65.8562ZM139.799 89.1309L162.071 118.603L163.667 117.397L141.395 87.9251L139.799 89.1309ZM162.869 117H152.693V119H162.869V117ZM153.495 117.403L135.639 93.4031L134.034 94.5969L151.89 118.597L153.495 117.403ZM134.181 93.2451L128.325 98.3331L129.637 99.8429L135.493 94.7549L134.181 93.2451ZM127.981 99.088V118H129.981V99.088H127.981ZM128.981 117H120.629V119H128.981V117ZM121.629 118V45.04H119.629V118H121.629ZM120.629 46.04H128.981V44.04H120.629V46.04ZM127.981 45.04V83.152H129.981V45.04H127.981ZM203.11 68.464L202.588 69.3169L202.596 69.3215L203.11 68.464ZM210.406 76.624L209.502 77.0514L209.507 77.0613L209.512 77.0712L210.406 76.624ZM212.998 93.904V94.904H213.998V93.904H212.998ZM177.766 93.904V92.904H176.744L176.766 93.926L177.766 93.904ZM182.182 107.248L181.445 107.924L181.452 107.932L181.46 107.94L182.182 107.248ZM202.822 110.896L203.047 111.87L203.056 111.868L203.065 111.866L202.822 110.896ZM210.694 108.208H211.694V106.691L210.3 107.289L210.694 108.208ZM210.694 115.6L211.096 116.516L211.694 116.253V115.6H210.694ZM202.918 118.096L202.722 117.115L202.71 117.118L202.698 117.12L202.918 118.096ZM180.838 115.984L180.367 116.866L180.373 116.869L180.838 115.984ZM172.102 107.152L171.213 107.611L171.218 107.619L171.222 107.628L172.102 107.152ZM171.814 78.16L170.911 77.73L170.906 77.7419L171.814 78.16ZM179.782 68.848L179.249 68.0017L179.242 68.0063L179.782 68.848ZM182.086 76.432L181.344 75.762L181.343 75.763L182.086 76.432ZM177.958 87.184L176.963 87.0872L176.856 88.184H177.958V87.184ZM204.166 87.184V88.184H205.166V87.184H204.166ZM202.822 79.504L201.897 79.8847L201.897 79.8847L202.822 79.504ZM198.694 74.416L198.113 75.2297L198.129 75.2414L198.146 75.2525L198.694 74.416ZM191.782 66.584C196.051 66.584 199.638 67.5108 202.588 69.3168L203.632 67.6111C200.31 65.5772 196.345 64.584 191.782 64.584V66.584ZM202.596 69.3215C205.618 71.1352 207.919 73.7019 209.502 77.0514L211.31 76.1966C209.565 72.5061 207.002 69.6328 203.624 67.6065L202.596 69.3215ZM209.512 77.0712C211.157 80.3623 211.998 84.2672 211.998 88.816H213.998C213.998 84.0208 213.111 79.7977 211.3 76.1768L209.512 77.0712ZM211.998 88.816V93.904H213.998V88.816H211.998ZM212.998 92.904H177.766V94.904H212.998V92.904ZM176.766 93.926C176.897 99.8964 178.41 104.613 181.445 107.924L182.919 106.572C180.322 103.739 178.891 99.5596 178.766 93.882L176.766 93.926ZM181.46 107.94C184.57 111.188 188.856 112.76 194.182 112.76V110.76C189.268 110.76 185.554 109.324 182.904 106.556L181.46 107.94ZM194.182 112.76C197.502 112.76 200.46 112.467 203.047 111.87L202.597 109.922C200.192 110.477 197.39 110.76 194.182 110.76V112.76ZM203.065 111.866C205.681 111.212 208.356 110.298 211.088 109.127L210.3 107.289C207.656 108.422 205.083 109.3 202.579 109.926L203.065 111.866ZM209.694 108.208V115.6H211.694V108.208H209.694ZM210.292 114.684C207.728 115.81 205.205 116.619 202.722 117.115L203.114 119.077C205.751 118.549 208.412 117.694 211.096 116.516L210.292 114.684ZM202.698 117.12C200.23 117.676 197.267 117.96 193.798 117.96V119.96C197.369 119.96 200.486 119.668 203.138 119.072L202.698 117.12ZM193.798 117.96C189.073 117.96 184.917 116.997 181.303 115.099L180.373 116.869C184.311 118.939 188.795 119.96 193.798 119.96V117.96ZM181.309 115.102C177.78 113.216 175.006 110.418 172.982 106.676L171.222 107.628C173.422 111.694 176.472 114.784 180.367 116.866L181.309 115.102ZM172.991 106.693C171.033 102.901 170.03 98.2352 170.03 92.656H168.03C168.03 98.4688 169.075 103.467 171.213 107.611L172.991 106.693ZM170.03 92.656C170.03 87.1308 170.941 82.4487 172.722 78.5781L170.906 77.7419C168.975 81.9353 168.03 86.9172 168.03 92.656H170.03ZM172.717 78.5899C174.566 74.7076 177.104 71.7543 180.322 69.6897L179.242 68.0063C175.676 70.2937 172.902 73.5484 170.911 77.7301L172.717 78.5899ZM180.315 69.6942C183.594 67.6298 187.405 66.584 191.782 66.584V64.584C187.071 64.584 182.882 65.7142 179.249 68.0018L180.315 69.6942ZM191.686 71.496C187.415 71.496 183.929 72.8973 181.344 75.762L182.828 77.102C184.979 74.7187 187.893 73.496 191.686 73.496V71.496ZM181.343 75.763C178.854 78.5286 177.424 82.3389 176.963 87.0872L178.953 87.2808C179.388 82.8131 180.71 79.4554 182.829 77.101L181.343 75.763ZM177.958 88.184H204.166V86.184H177.958V88.184ZM205.166 87.184C205.166 84.141 204.703 81.4462 203.747 79.1232L201.897 79.8847C202.733 81.9138 203.166 84.339 203.166 87.184H205.166ZM203.747 79.1232C202.779 76.7728 201.277 74.9129 199.242 73.5795L198.146 75.2525C199.823 76.3511 201.073 77.8832 201.897 79.8847L203.747 79.1232ZM199.275 73.6023C197.268 72.1687 194.711 71.496 191.686 71.496V73.496C194.421 73.496 196.536 74.1033 198.113 75.2297L199.275 73.6023ZM281.586 118V119H282.586V118H281.586ZM271.506 118L270.665 118.542L270.96 119H271.506V118ZM234.834 61.072L235.674 60.5304L235.379 60.072H234.834V61.072ZM234.45 61.072V60.072H233.392L233.451 61.1275L234.45 61.072ZM234.642 64.912L233.643 64.9574L233.644 64.98L233.646 65.0025L234.642 64.912ZM234.93 69.52L233.93 69.5584L233.93 69.56L234.93 69.52ZM235.122 74.512L234.122 74.549L234.122 74.549L235.122 74.512ZM235.218 118V119H236.218V118H235.218ZM227.25 118H226.25V119H227.25V118ZM227.25 49.456V48.456H226.25V49.456H227.25ZM237.234 49.456L238.074 48.9142L237.779 48.456H237.234V49.456ZM273.81 106.192L272.969 106.734L273.264 107.192H273.81V106.192ZM274.194 106.192V107.192H275.28L275.19 106.109L274.194 106.192ZM274.002 103.024L273.003 103.069L273.003 103.072L274.002 103.024ZM273.81 98.416L272.81 98.453L272.81 98.4544L273.81 98.416ZM273.522 49.456V48.456H272.522V49.456H273.522ZM281.586 49.456H282.586V48.456H281.586V49.456ZM281.586 117H271.506V119H281.586V117ZM272.346 117.458L235.674 60.5304L233.993 61.6135L270.665 118.542L272.346 117.458ZM234.834 60.072H234.45V62.072H234.834V60.072ZM233.451 61.1275C233.515 62.2755 233.579 63.5521 233.643 64.9574L235.64 64.8666C235.576 63.4559 235.512 62.1725 235.448 61.0165L233.451 61.1275ZM233.646 65.0025C233.772 66.3905 233.867 67.9089 233.93 69.5584L235.929 69.4816C235.864 67.8031 235.767 66.2495 235.637 64.8215L233.646 65.0025ZM233.93 69.56C233.994 71.1589 234.058 72.8219 234.122 74.549L236.121 74.475C236.057 72.7461 235.993 71.0811 235.929 69.48L233.93 69.56ZM234.122 74.549C234.186 76.2647 234.218 77.9803 234.218 79.696H236.218C236.218 77.9556 236.185 76.2153 236.121 74.475L234.122 74.549ZM234.218 79.696V118H236.218V79.696H234.218ZM235.218 117H227.25V119H235.218V117ZM228.25 118V49.456H226.25V118H228.25ZM227.25 50.456H237.234V48.456H227.25V50.456ZM236.393 49.9978L272.969 106.734L274.65 105.65L238.074 48.9142L236.393 49.9978ZM273.81 107.192H274.194V105.192H273.81V107.192ZM275.19 106.109C275.127 105.358 275.064 104.316 275 102.976L273.003 103.072C273.067 104.42 273.132 105.49 273.197 106.275L275.19 106.109ZM275 102.979C274.937 101.573 274.873 100.04 274.809 98.3776L272.81 98.4544C272.874 100.12 272.938 101.659 273.003 103.069L275 102.979ZM274.809 98.379C274.745 96.6514 274.681 94.8919 274.617 93.1003L272.618 93.1717C272.682 94.9641 272.746 96.7246 272.81 98.453L274.809 98.379ZM274.617 93.1003C274.553 91.3183 274.522 89.6663 274.522 88.144H272.522C272.522 89.6937 272.554 91.3697 272.618 93.1717L274.617 93.1003ZM274.522 88.144V49.456H272.522V88.144H274.522ZM273.522 50.456H281.586V48.456H273.522V50.456ZM280.586 49.456V118H282.586V49.456H280.586ZM342.043 103.6L341.098 103.273L341.094 103.284L342.043 103.6ZM337.243 111.952L336.506 111.276L336.501 111.282L336.496 111.288L337.243 111.952ZM329.659 117.232L330.023 118.163L330.034 118.159L329.659 117.232ZM310.363 117.232L309.974 118.153L309.983 118.157L309.992 118.16L310.363 117.232ZM302.875 111.952L302.138 112.628L302.138 112.628L302.875 111.952ZM297.883 103.6L296.938 103.927L296.942 103.938L296.946 103.949L297.883 103.6ZM299.035 77.776L299.932 78.2173L299.935 78.2116L299.035 77.776ZM307.291 68.752L307.787 69.6203L307.799 69.6135L307.291 68.752ZM332.347 68.752L331.833 69.6095L331.842 69.615L331.851 69.6202L332.347 68.752ZM340.699 77.776L339.805 78.2232L339.809 78.2319L339.813 78.2405L340.699 77.776ZM306.427 102.736L305.48 103.058L305.485 103.071L305.489 103.083L306.427 102.736ZM311.419 109.552L312 108.738L312 108.738L311.419 109.552ZM328.507 109.552L327.926 108.738L327.926 108.738L328.507 109.552ZM333.403 102.736L332.463 102.396L332.459 102.407L333.403 102.736ZM333.403 81.712L334.338 81.3586L334.338 81.3586L333.403 81.712ZM328.411 75.088L327.819 75.8936L327.832 75.9034L327.845 75.9127L328.411 75.088ZM308.443 77.872L309.268 78.4372L309.268 78.4372L308.443 77.872ZM342.771 92.176C342.771 96.3761 342.207 100.07 341.098 103.273L342.988 103.927C344.183 100.474 344.771 96.5519 344.771 92.176H342.771ZM341.094 103.284C340.046 106.428 338.514 109.086 336.506 111.276L337.98 112.628C340.196 110.21 341.864 107.3 342.992 103.916L341.094 103.284ZM336.496 111.288C334.555 113.47 332.157 115.143 329.284 116.305L330.034 118.159C333.177 116.889 335.835 115.042 337.99 112.616L336.496 111.288ZM329.295 116.301C326.483 117.401 323.313 117.96 319.771 117.96V119.96C323.525 119.96 326.947 119.367 330.023 118.163L329.295 116.301ZM319.771 117.96C316.494 117.96 313.486 117.404 310.734 116.304L309.992 118.16C313 119.364 316.264 119.96 319.771 119.96V117.96ZM310.752 116.311C308.004 115.151 305.627 113.474 303.612 111.276L302.138 112.628C304.347 115.038 306.962 116.881 309.974 118.153L310.752 116.311ZM303.612 111.276C301.597 109.078 299.996 106.408 298.82 103.251L296.946 103.949C298.202 107.32 299.929 110.218 302.138 112.628L303.612 111.276ZM298.828 103.273C297.719 100.07 297.155 96.3761 297.155 92.176H295.155C295.155 96.5519 295.743 100.474 296.938 103.927L298.828 103.273ZM297.155 92.176C297.155 86.5875 298.097 81.9483 299.932 78.2173L298.138 77.3347C296.133 81.4117 295.155 86.3724 295.155 92.176H297.155ZM299.935 78.2116C301.774 74.4123 304.391 71.5612 307.787 69.6202L306.795 67.8838C303.023 70.0388 300.136 73.2037 298.135 77.3404L299.935 78.2116ZM307.799 69.6135C311.203 67.6077 315.276 66.584 320.059 66.584V64.584C314.986 64.584 310.547 65.6723 306.783 67.8905L307.799 69.6135ZM320.059 66.584C324.575 66.584 328.488 67.6031 331.833 69.6095L332.861 67.8945C329.166 65.6769 324.887 64.584 320.059 64.584V66.584ZM331.851 69.6202C335.25 71.5629 337.902 74.418 339.805 78.2232L341.593 77.3288C339.528 73.198 336.612 70.0371 332.843 67.8838L331.851 69.6202ZM339.813 78.2405C341.768 81.9655 342.771 86.596 342.771 92.176H344.771C344.771 86.364 343.726 81.3945 341.585 77.3114L339.813 78.2405ZM303.891 92.176C303.891 96.2895 304.413 99.9229 305.48 103.058L307.374 102.414C306.393 99.5331 305.891 96.1265 305.891 92.176H303.891ZM305.489 103.083C306.636 106.187 308.413 108.634 310.838 110.366L312 108.738C309.945 107.27 308.394 105.173 307.365 102.389L305.489 103.083ZM310.838 110.366C313.286 112.115 316.352 112.952 319.963 112.952V110.952C316.662 110.952 314.032 110.189 312 108.738L310.838 110.366ZM319.963 112.952C323.574 112.952 326.64 112.115 329.088 110.366L327.926 108.738C325.894 110.189 323.264 110.952 319.963 110.952V112.952ZM329.088 110.366C331.518 108.63 333.265 106.177 334.347 103.065L332.459 102.407C331.493 105.183 329.976 107.274 327.926 108.738L329.088 110.366ZM334.343 103.076C335.48 99.9348 336.035 96.2951 336.035 92.176H334.035C334.035 96.1209 333.502 99.5212 332.463 102.396L334.343 103.076ZM336.035 92.176C336.035 87.9968 335.481 84.382 334.338 81.3586L332.468 82.0654C333.501 84.802 334.035 88.1632 334.035 92.176H336.035ZM334.338 81.3586C333.188 78.3139 331.407 75.9299 328.977 74.2633L327.845 75.9127C329.895 77.3181 331.442 79.3501 332.468 82.0654L334.338 81.3586ZM329.003 74.2823C326.61 72.5226 323.536 71.688 319.867 71.688V73.688C323.238 73.688 325.86 74.4534 327.819 75.8936L329.003 74.2823ZM319.867 71.688C314.383 71.688 310.22 73.5094 307.618 77.3068L309.268 78.4372C311.402 75.3226 314.855 73.688 319.867 73.688V71.688ZM307.618 77.3068C305.095 80.9887 303.891 85.981 303.891 92.176H305.891C305.891 86.211 307.055 81.6673 309.268 78.4372L307.618 77.3068ZM378.28 111.76L378.421 112.75L378.444 112.747L378.467 112.742L378.28 111.76ZM381.544 110.992H382.544V109.638L381.25 110.036L381.544 110.992ZM381.544 117.424L381.991 118.318L382.544 118.042V117.424H381.544ZM377.704 118.48L377.552 117.492L377.533 117.494L377.515 117.498L377.704 118.48ZM365.416 117.616L365.022 118.535L365.038 118.542L365.054 118.548L365.416 117.616ZM357.832 73.072H358.832V72.072H357.832V73.072ZM350.536 73.072H349.536V74.072H350.536V73.072ZM350.536 69.04L350.122 68.1296L349.536 68.3961V69.04H350.536ZM357.928 65.68L358.342 66.5904L358.752 66.404L358.884 65.9735L357.928 65.68ZM361.288 54.736V53.736H360.549L360.332 54.4425L361.288 54.736ZM366.28 54.736H367.28V53.736H366.28V54.736ZM366.28 66.544H365.28V67.544H366.28V66.544ZM381.16 66.544H382.16V65.544H381.16V66.544ZM381.16 73.072V74.072H382.16V73.072H381.16ZM366.28 73.072V72.072H365.28V73.072H366.28ZM368.488 109.84L367.766 110.532L367.781 110.547L367.796 110.562L368.488 109.84ZM374.344 113.048C375.674 113.048 377.033 112.948 378.421 112.75L378.139 110.77C376.839 110.956 375.574 111.048 374.344 111.048V113.048ZM378.467 112.742C379.829 112.483 380.957 112.219 381.838 111.948L381.25 110.036C380.467 110.277 379.419 110.525 378.093 110.778L378.467 112.742ZM380.544 110.992V117.424H382.544V110.992H380.544ZM381.097 116.53C380.336 116.91 379.173 117.242 377.552 117.492L377.856 119.468C379.563 119.206 380.96 118.834 381.991 118.318L381.097 116.53ZM377.515 117.498C375.907 117.807 374.371 117.96 372.904 117.96V119.96C374.509 119.96 376.173 119.793 377.893 119.462L377.515 117.498ZM372.904 117.96C370.329 117.96 367.957 117.531 365.778 116.684L365.054 118.548C367.483 119.493 370.103 119.96 372.904 119.96V117.96ZM365.81 116.697C363.781 115.827 362.109 114.346 360.797 112.199L359.091 113.241C360.595 115.702 362.571 117.485 365.022 118.535L365.81 116.697ZM360.797 112.199C359.524 110.115 358.832 107.092 358.832 103.024H356.832C356.832 107.276 357.548 110.717 359.091 113.241L360.797 112.199ZM358.832 103.024V73.072H356.832V103.024H358.832ZM357.832 72.072H350.536V74.072H357.832V72.072ZM351.536 73.072V69.04H349.536V73.072H351.536ZM350.95 69.9504L358.342 66.5904L357.514 64.7696L350.122 68.1296L350.95 69.9504ZM358.884 65.9735L362.244 55.0295L360.332 54.4425L356.972 65.3865L358.884 65.9735ZM361.288 55.736H366.28V53.736H361.288V55.736ZM365.28 54.736V66.544H367.28V54.736H365.28ZM366.28 67.544H381.16V65.544H366.28V67.544ZM380.16 66.544V73.072H382.16V66.544H380.16ZM381.16 72.072H366.28V74.072H381.16V72.072ZM365.28 73.072V102.832H367.28V73.072H365.28ZM365.28 102.832C365.28 106.105 366.047 108.738 367.766 110.532L369.21 109.148C367.985 107.87 367.28 105.831 367.28 102.832H365.28ZM367.796 110.562C369.54 112.233 371.75 113.048 374.344 113.048V111.048C372.202 111.048 370.508 110.391 369.18 109.118L367.796 110.562ZM423.048 68.464L422.525 69.3169L422.533 69.3215L423.048 68.464ZM430.344 76.624L429.439 77.0514L429.444 77.0613L429.449 77.0712L430.344 76.624ZM432.936 93.904V94.904H433.936V93.904H432.936ZM397.704 93.904V92.904H396.681L396.704 93.926L397.704 93.904ZM402.12 107.248L401.382 107.924L401.39 107.932L401.397 107.94L402.12 107.248ZM422.76 110.896L422.984 111.87L422.993 111.868L423.002 111.866L422.76 110.896ZM430.632 108.208H431.632V106.691L430.238 107.289L430.632 108.208ZM430.632 115.6L431.033 116.516L431.632 116.253V115.6H430.632ZM422.856 118.096L422.659 117.115L422.648 117.118L422.636 117.12L422.856 118.096ZM400.776 115.984L400.304 116.866L400.31 116.869L400.776 115.984ZM392.04 107.152L391.151 107.611L391.155 107.619L391.16 107.628L392.04 107.152ZM391.752 78.16L390.849 77.73L390.843 77.7419L391.752 78.16ZM399.72 68.848L399.187 68.0017L399.18 68.0063L399.72 68.848ZM402.024 76.432L401.281 75.762L401.28 75.763L402.024 76.432ZM397.896 87.184L396.9 87.0872L396.794 88.184H397.896V87.184ZM424.104 87.184V88.184H425.104V87.184H424.104ZM422.76 79.504L421.835 79.8847L421.835 79.8847L422.76 79.504ZM418.632 74.416L418.05 75.2297L418.067 75.2414L418.083 75.2525L418.632 74.416ZM411.72 66.584C415.988 66.584 419.576 67.5108 422.525 69.3168L423.57 67.6111C420.247 65.5772 416.283 64.584 411.72 64.584V66.584ZM422.533 69.3215C425.556 71.1352 427.856 73.7019 429.439 77.0514L431.248 76.1966C429.503 72.5061 426.939 69.6328 423.562 67.6065L422.533 69.3215ZM429.449 77.0712C431.095 80.3623 431.936 84.2672 431.936 88.816H433.936C433.936 84.0208 433.048 79.7977 431.238 76.1768L429.449 77.0712ZM431.936 88.816V93.904H433.936V88.816H431.936ZM432.936 92.904H397.704V94.904H432.936V92.904ZM396.704 93.926C396.835 99.8964 398.347 104.613 401.382 107.924L402.857 106.572C400.26 103.739 398.828 99.5596 398.703 93.882L396.704 93.926ZM401.397 107.94C404.508 111.188 408.794 112.76 414.12 112.76V110.76C409.205 110.76 405.491 109.324 402.842 106.556L401.397 107.94ZM414.12 112.76C417.44 112.76 420.398 112.467 422.984 111.87L422.535 109.922C420.129 110.477 417.327 110.76 414.12 110.76V112.76ZM423.002 111.866C425.619 111.212 428.294 110.298 431.025 109.127L430.238 107.289C427.593 108.422 425.02 109.3 422.517 109.926L423.002 111.866ZM429.632 108.208V115.6H431.632V108.208H429.632ZM430.23 114.684C427.665 115.81 425.142 116.619 422.659 117.115L423.052 119.077C425.689 118.549 428.35 117.694 431.033 116.516L430.23 114.684ZM422.636 117.12C420.168 117.676 417.205 117.96 413.736 117.96V119.96C417.306 119.96 420.423 119.668 423.075 119.072L422.636 117.12ZM413.736 117.96C409.011 117.96 404.854 116.997 401.241 115.099L400.31 116.869C404.249 118.939 408.732 119.96 413.736 119.96V117.96ZM401.247 115.102C397.717 113.216 394.943 110.418 392.919 106.676L391.16 107.628C393.36 111.694 396.41 114.784 400.304 116.866L401.247 115.102ZM392.928 106.693C390.971 102.901 389.968 98.2352 389.968 92.656H387.968C387.968 98.4688 389.012 103.467 391.151 107.611L392.928 106.693ZM389.968 92.656C389.968 87.1308 390.878 82.4487 392.66 78.5781L390.843 77.7419C388.913 81.9353 387.968 86.9172 387.968 92.656H389.968ZM392.654 78.5899C394.503 74.7076 397.041 71.7543 400.259 69.6897L399.18 68.0063C395.614 70.2937 392.84 73.5484 390.849 77.7301L392.654 78.5899ZM400.252 69.6942C403.531 67.6298 407.342 66.584 411.72 66.584V64.584C407.009 64.584 402.82 65.7142 399.187 68.0018L400.252 69.6942ZM411.624 71.496C407.353 71.496 403.866 72.8973 401.281 75.762L402.766 77.102C404.917 74.7187 407.83 73.496 411.624 73.496V71.496ZM401.28 75.763C398.791 78.5286 397.362 82.3389 396.9 87.0872L398.891 87.2808C399.325 82.8131 400.648 79.4554 402.767 77.101L401.28 75.763ZM397.896 88.184H424.104V86.184H397.896V88.184ZM425.104 87.184C425.104 84.141 424.641 81.4462 423.684 79.1232L421.835 79.8847C422.67 81.9138 423.104 84.339 423.104 87.184H425.104ZM423.684 79.1232C422.716 76.7728 421.215 74.9129 419.18 73.5795L418.083 75.2525C419.76 76.3511 421.011 77.8832 421.835 79.8847L423.684 79.1232ZM419.213 73.6023C417.206 72.1687 414.648 71.496 411.624 71.496V73.496C414.359 73.496 416.473 74.1033 418.05 75.2297L419.213 73.6023Z" fill="white"/>
</g>
<path d="M502.964 16.3223L503.304 16.5672L503.122 16.9449L456.884 112.991L456.856 113.05L456.814 113.099L442.777 129.531L441.908 129.098L446.097 110.26L446.109 110.208L446.131 110.159L490.949 12.9173L491.079 12.6346L491.39 12.6267C493.726 12.5677 495.561 12.7168 497.353 13.279C499.143 13.8406 500.855 14.8037 502.964 16.3223Z" fill="white" stroke="white"/>
</g>
<defs>
<filter id="filter0_d_1_2" x="9.95999" y="45.04" width="426.975" height="81.92" filterUnits="userSpaceOnUse" color-interpolation-filters="sRGB">
<feFlood flood-opacity="0" result="BackgroundImageFix"/>
<feColorMatrix in="SourceAlpha" type="matrix" values="0 0 0 0 0 0 0 0 0 0 0 0 0 0 0 0 0 0 127 0" result="hardAlpha"/>
<feOffset dy="4"/>
<feGaussianBlur stdDeviation="2"/>
<feComposite in2="hardAlpha" operator="out"/>
<feColorMatrix type="matrix" values="0 0 0 0 0 0 0 0 0 0 0 0 0 0 0 0 0 0 0.25 0"/>
<feBlend mode="normal" in2="BackgroundImageFix" result="effect1_dropShadow_1_2"/>
<feBlend mode="normal" in="SourceGraphic" in2="effect1_dropShadow_1_2" result="shape"/>
</filter>
<clipPath id="clip0_1_2">
<rect width="504" height="144" fill="white"/>
</clipPath>
</defs>
</svg>
