<svg width="504" height="144" viewBox="0 0 504 144" fill="none" xmlns="http://www.w3.org/2000/svg">
<g clip-path="url(#clip0_1_2)">
<g filter="url(#filter0_d_1_2)">
<path d="M44.008 118H35.368V57.04H13.96V49.456H65.32V57.04H44.008V118ZM86.3043 65.68C92.5763 65.68 97.2163 67.056 100.224 69.808C103.232 72.56 104.736 76.944 104.736 82.96V118H98.5923L96.9603 110.704H96.5763C95.1043 112.56 93.5683 114.128 91.9683 115.408C90.4323 116.624 88.6403 117.52 86.5923 118.096C84.6083 118.672 82.1763 118.96 79.2963 118.96C76.2243 118.96 73.4403 118.416 70.9443 117.328C68.5123 116.24 66.5923 114.576 65.1843 112.336C63.7763 110.032 63.0723 107.152 63.0723 103.696C63.0723 98.576 65.0883 94.64 69.1203 91.888C73.1523 89.072 79.3603 87.536 87.7443 87.28L96.4803 86.992V83.92C96.4803 79.632 95.5523 76.656 93.6963 74.992C91.8403 73.328 89.2163 72.496 85.8243 72.496C83.1363 72.496 80.5763 72.912 78.1443 73.744C75.7123 74.512 73.4403 75.408 71.3282 76.432L68.7363 70.096C70.9763 68.88 73.6323 67.856 76.7043 67.024C79.7763 66.128 82.9763 65.68 86.3043 65.68ZM88.8003 93.136C82.4003 93.392 77.9523 94.416 75.4563 96.208C73.0243 98 71.8083 100.528 71.8083 103.792C71.8083 106.672 72.6723 108.784 74.4003 110.128C76.1923 111.472 78.4643 112.144 81.2163 112.144C85.5683 112.144 89.1843 110.96 92.0643 108.592C94.9443 106.16 96.3843 102.448 96.3843 97.456V92.848L88.8003 93.136ZM128.981 83.152C128.981 84.176 128.917 85.52 128.789 87.184C128.725 88.848 128.661 90.288 128.597 91.504H128.981C129.365 90.992 129.941 90.256 130.709 89.296C131.477 88.336 132.245 87.376 133.013 86.416C133.845 85.392 134.549 84.56 135.125 83.92L151.541 66.544H161.429L140.597 88.528L162.869 118H152.693L134.837 94L128.981 99.088V118H120.629V45.04H128.981V83.152ZM191.782 65.584C196.198 65.584 199.974 66.544 203.11 68.464C206.31 70.384 208.742 73.104 210.406 76.624C212.134 80.08 212.998 84.144 212.998 88.816V93.904H177.766C177.894 99.728 179.366 104.176 182.182 107.248C185.062 110.256 189.062 111.76 194.182 111.76C197.446 111.76 200.326 111.472 202.822 110.896C205.382 110.256 208.006 109.36 210.694 108.208V115.6C208.07 116.752 205.478 117.584 202.918 118.096C200.358 118.672 197.318 118.96 193.798 118.96C188.934 118.96 184.614 117.968 180.838 115.984C177.126 114 174.214 111.056 172.102 107.152C170.054 103.184 169.03 98.352 169.03 92.656C169.03 87.024 169.958 82.192 171.814 78.16C173.734 74.128 176.39 71.024 179.782 68.848C183.238 66.672 187.238 65.584 191.782 65.584ZM191.686 72.496C187.654 72.496 184.454 73.808 182.086 76.432C179.782 78.992 178.406 82.576 177.958 87.184H204.166C204.166 84.24 203.718 81.68 202.822 79.504C201.926 77.328 200.55 75.632 198.694 74.416C196.902 73.136 194.566 72.496 191.686 72.496ZM281.586 118H271.506L234.834 61.072H234.45C234.514 62.224 234.578 63.504 234.642 64.912C234.77 66.32 234.866 67.856 234.93 69.52C234.994 71.12 235.058 72.784 235.122 74.512C235.186 76.24 235.218 77.968 235.218 79.696V118H227.25V49.456H237.234L273.81 106.192H274.194C274.13 105.424 274.066 104.368 274.002 103.024C273.938 101.616 273.874 100.08 273.81 98.416C273.746 96.688 273.682 94.928 273.618 93.136C273.554 91.344 273.522 89.68 273.522 88.144V49.456H281.586V118ZM343.771 92.176C343.771 96.464 343.195 100.272 342.043 103.6C340.955 106.864 339.355 109.648 337.243 111.952C335.195 114.256 332.667 116.016 329.659 117.232C326.715 118.384 323.419 118.96 319.771 118.96C316.379 118.96 313.243 118.384 310.363 117.232C307.483 116.016 304.987 114.256 302.875 111.952C300.763 109.648 299.099 106.864 297.883 103.6C296.731 100.272 296.155 96.464 296.155 92.176C296.155 86.48 297.115 81.68 299.035 77.776C300.955 73.808 303.707 70.8 307.291 68.752C310.875 66.64 315.131 65.584 320.059 65.584C324.731 65.584 328.827 66.64 332.347 68.752C335.931 70.8 338.715 73.808 340.699 77.776C342.747 81.68 343.771 86.48 343.771 92.176ZM304.891 92.176C304.891 96.208 305.403 99.728 306.427 102.736C307.515 105.68 309.179 107.952 311.419 109.552C313.659 111.152 316.507 111.952 319.963 111.952C323.419 111.952 326.267 111.152 328.507 109.552C330.747 107.952 332.379 105.68 333.403 102.736C334.491 99.728 335.035 96.208 335.035 92.176C335.035 88.08 334.491 84.592 333.403 81.712C332.315 78.832 330.651 76.624 328.411 75.088C326.235 73.488 323.387 72.688 319.867 72.688C314.619 72.688 310.811 74.416 308.443 77.872C306.075 81.328 304.891 86.096 304.891 92.176ZM374.344 112.048C375.624 112.048 376.936 111.952 378.28 111.76C379.624 111.504 380.712 111.248 381.544 110.992V117.424C380.648 117.872 379.368 118.224 377.704 118.48C376.04 118.8 374.44 118.96 372.904 118.96C370.216 118.96 367.72 118.512 365.416 117.616C363.176 116.656 361.352 115.024 359.944 112.72C358.536 110.416 357.832 107.184 357.832 103.024V73.072H350.536V69.04L357.928 65.68L361.288 54.736H366.28V66.544H381.16V73.072H366.28V102.832C366.28 105.968 367.016 108.304 368.488 109.84C370.024 111.312 371.976 112.048 374.344 112.048ZM411.72 65.584C416.136 65.584 419.912 66.544 423.048 68.464C426.248 70.384 428.68 73.104 430.344 76.624C432.072 80.08 432.936 84.144 432.936 88.816V93.904H397.704C397.832 99.728 399.304 104.176 402.12 107.248C405 110.256 409 111.76 414.12 111.76C417.384 111.76 420.264 111.472 422.76 110.896C425.32 110.256 427.944 109.36 430.632 108.208V115.6C428.008 116.752 425.416 117.584 422.856 118.096C420.296 118.672 417.256 118.96 413.736 118.96C408.872 118.96 404.552 117.968 400.776 115.984C397.064 114 394.152 111.056 392.04 107.152C389.992 103.184 388.968 98.352 388.968 92.656C388.968 87.024 389.896 82.192 391.752 78.16C393.672 74.128 396.328 71.024 399.72 68.848C403.176 66.672 407.176 65.584 411.72 65.584ZM411.624 72.496C407.592 72.496 404.392 73.808 402.024 76.432C399.72 78.992 398.344 82.576 397.896 87.184H424.104C424.104 84.24 423.656 81.68 422.76 79.504C421.864 77.328 420.488 75.632 418.632 74.416C416.84 73.136 414.504 72.496 411.624 72.496Z" fill="#121212"/>
<path d="M44.008 118V120H46.008V118H44.008ZM35.368 118H33.368V120H35.368V118ZM35.368 57.04H37.368V55.04H35.368V57.04ZM13.96 57.04H11.96V59.04H13.96V57.04ZM13.96 49.456V47.456H11.96V49.456H13.96ZM65.32 49.456H67.32V47.456H65.32V49.456ZM65.32 57.04V59.04H67.32V57.04H65.32ZM44.008 57.04V55.04H42.008V57.04H44.008ZM44.008 116H35.368V120H44.008V116ZM37.368 118V57.04H33.368V118H37.368ZM35.368 55.04H13.96V59.04H35.368V55.04ZM15.96 57.04V49.456H11.96V57.04H15.96ZM13.96 51.456H65.32V47.456H13.96V51.456ZM63.32 49.456V57.04H67.32V49.456H63.32ZM65.32 55.04H44.008V59.04H65.32V55.04ZM42.008 57.04V118H46.008V57.04H42.008ZM100.224 69.808L101.574 68.3324L101.574 68.3324L100.224 69.808ZM104.736 118V120H106.736V118H104.736ZM98.5923 118L96.6405 118.437L96.9902 120H98.5923V118ZM96.9603 110.704L98.912 110.267L98.5623 108.704H96.9603V110.704ZM96.5763 110.704V108.704H95.6098L95.0093 109.461L96.5763 110.704ZM91.9683 115.408L93.2097 116.976L93.2176 116.97L91.9683 115.408ZM86.5923 118.096L86.0508 116.171L86.0427 116.173L86.0346 116.175L86.5923 118.096ZM70.9443 117.328L70.1275 119.154L70.1363 119.158L70.1451 119.161L70.9443 117.328ZM65.1843 112.336L63.4777 113.379L63.4843 113.39L63.491 113.4L65.1843 112.336ZM69.1203 91.888L70.2477 93.5399L70.2566 93.5338L70.2654 93.5277L69.1203 91.888ZM87.7443 87.28L87.8053 89.2791L87.8101 89.2789L87.7443 87.28ZM96.4803 86.992L96.5462 88.9909L98.4803 88.9272V86.992H96.4803ZM93.6963 74.992L92.3612 76.4811L92.3612 76.4811L93.6963 74.992ZM78.1443 73.744L78.7465 75.6512L78.7692 75.644L78.7916 75.6363L78.1443 73.744ZM71.3282 76.432L69.4772 77.1893L70.2838 79.1611L72.2008 78.2316L71.3282 76.432ZM68.7363 70.096L67.7821 68.3383L66.2063 69.1937L66.8852 70.8533L68.7363 70.096ZM76.7043 67.024L77.2271 68.9545L77.2457 68.9494L77.2643 68.944L76.7043 67.024ZM88.8003 93.136L88.7244 91.1374L88.7203 91.1376L88.8003 93.136ZM75.4563 96.208L74.2898 94.5834L74.2798 94.5906L74.2699 94.5979L75.4563 96.208ZM74.4003 110.128L73.1724 111.707L73.1862 111.717L73.2003 111.728L74.4003 110.128ZM92.0643 108.592L93.3345 110.137L93.3446 110.129L93.3546 110.12L92.0643 108.592ZM96.3843 92.848H98.3843V90.7706L96.3084 90.8494L96.3843 92.848ZM86.3043 67.68C92.3363 67.68 96.3899 69.0107 98.8742 71.2836L101.574 68.3324C98.0426 65.1013 92.8162 63.68 86.3043 63.68V67.68ZM98.8742 71.2836C101.304 73.5068 102.736 77.236 102.736 82.96H106.736C106.736 76.652 105.16 71.6132 101.574 68.3324L98.8742 71.2836ZM102.736 82.96V118H106.736V82.96H102.736ZM104.736 116H98.5923V120H104.736V116ZM100.544 117.563L98.912 110.267L95.0085 111.141L96.6405 118.437L100.544 117.563ZM96.9603 108.704H96.5763V112.704H96.9603V108.704ZM95.0093 109.461C93.6166 111.217 92.1848 112.674 90.7189 113.846L93.2176 116.97C94.9517 115.582 96.5919 113.903 98.1432 111.947L95.0093 109.461ZM90.7268 113.84C89.4155 114.878 87.8662 115.66 86.0508 116.171L87.1337 120.021C89.4143 119.38 91.449 118.37 93.2097 116.976L90.7268 113.84ZM86.0346 116.175C84.2874 116.683 82.0558 116.96 79.2963 116.96V120.96C82.2967 120.96 84.9291 120.661 87.1499 120.017L86.0346 116.175ZM79.2963 116.96C76.464 116.96 73.9569 116.459 71.7434 115.495L70.1451 119.161C72.9236 120.373 75.9845 120.96 79.2963 120.96V116.96ZM71.761 115.502C69.6873 114.575 68.0735 113.174 66.8775 111.272L63.491 113.4C65.111 115.978 67.3372 117.905 70.1275 119.154L71.761 115.502ZM66.8908 111.293C65.7215 109.38 65.0723 106.886 65.0723 103.696H61.0723C61.0723 107.418 61.831 110.684 63.4777 113.379L66.8908 111.293ZM65.0723 103.696C65.0723 99.1986 66.7927 95.8981 70.2477 93.5399L67.9928 90.2361C63.3838 93.3819 61.0723 97.9534 61.0723 103.696H65.0723ZM70.2654 93.5277C73.825 91.0417 79.5664 89.5306 87.8053 89.2791L87.6832 85.2809C79.1541 85.5414 72.4795 87.1023 67.9751 90.2483L70.2654 93.5277ZM87.8101 89.2789L96.5462 88.9909L96.4144 84.9931L87.6784 85.2811L87.8101 89.2789ZM98.4803 86.992V83.92H94.4803V86.992H98.4803ZM98.4803 83.92C98.4803 79.4518 97.5321 75.7449 95.0313 73.5029L92.3612 76.4811C93.5724 77.5671 94.4803 79.8122 94.4803 83.92H98.4803ZM95.0313 73.5029C92.6938 71.4071 89.5296 70.496 85.8243 70.496V74.496C88.9029 74.496 90.9867 75.2488 92.3612 76.4811L95.0313 73.5029ZM85.8243 70.496C82.9262 70.496 80.1467 70.9452 77.4969 71.8517L78.7916 75.6363C81.0058 74.8788 83.3463 74.496 85.8243 74.496V70.496ZM77.542 71.8368C75.0253 72.6316 72.6622 73.5626 70.4557 74.6324L72.2008 78.2316C74.2183 77.2534 76.3992 76.3924 78.7465 75.6512L77.542 71.8368ZM73.1793 75.6747L70.5873 69.3387L66.8852 70.8533L69.4772 77.1893L73.1793 75.6747ZM69.6904 71.8537C71.765 70.7275 74.2697 69.7554 77.2271 68.9545L76.1814 65.0935C72.9948 65.9566 70.1875 67.0325 67.7821 68.3383L69.6904 71.8537ZM77.2643 68.944C80.1471 68.1032 83.1581 67.68 86.3043 67.68V63.68C82.7944 63.68 79.4054 64.1528 76.1443 65.104L77.2643 68.944ZM88.7203 91.1376C82.2722 91.3955 77.2992 92.4228 74.2898 94.5834L76.6227 97.8326C78.6053 96.4092 82.5283 95.3885 88.8802 95.1344L88.7203 91.1376ZM74.2699 94.5979C71.2802 96.8008 69.8083 99.952 69.8083 103.792H73.8083C73.8083 101.104 74.7683 99.1992 76.6426 97.8181L74.2699 94.5979ZM69.8083 103.792C69.8083 107.078 70.812 109.871 73.1724 111.707L75.6281 108.549C74.5325 107.697 73.8083 106.266 73.8083 103.792H69.8083ZM73.2003 111.728C75.4113 113.386 78.1325 114.144 81.2163 114.144V110.144C78.796 110.144 76.9732 109.558 75.6003 108.528L73.2003 111.728ZM81.2163 114.144C85.9503 114.144 90.0384 112.847 93.3345 110.137L90.794 107.047C88.3301 109.073 85.1862 110.144 81.2163 110.144V114.144ZM93.3546 110.12C96.8198 107.194 98.3843 102.834 98.3843 97.456H94.3843C94.3843 102.062 93.0687 105.126 90.7739 107.064L93.3546 110.12ZM98.3843 97.456V92.848H94.3843V97.456H98.3843ZM96.3084 90.8494L88.7244 91.1374L88.8761 95.1346L96.4601 94.8466L96.3084 90.8494ZM128.789 87.184L126.795 87.0306L126.792 87.0688L126.79 87.1071L128.789 87.184ZM128.597 91.504L126.6 91.3989L126.489 93.504H128.597V91.504ZM128.981 91.504V93.504H129.981L130.581 92.704L128.981 91.504ZM130.709 89.296L129.147 88.0466L129.147 88.0466L130.709 89.296ZM133.013 86.416L131.461 85.1548L131.456 85.1607L131.451 85.1666L133.013 86.416ZM135.125 83.92L133.671 82.5465L133.654 82.5641L133.638 82.5821L135.125 83.92ZM151.541 66.544V64.544H150.679L150.087 65.1705L151.541 66.544ZM161.429 66.544L162.88 67.9197L166.079 64.544H161.429V66.544ZM140.597 88.528L139.145 87.1523L137.98 88.3821L139.001 89.7338L140.597 88.528ZM162.869 118V120H166.887L164.464 116.794L162.869 118ZM152.693 118L151.088 119.194L151.688 120H152.693V118ZM134.837 94L136.441 92.8062L135.154 91.0753L133.525 92.4903L134.837 94ZM128.981 99.088L127.669 97.5783L126.981 98.1762V99.088H128.981ZM128.981 118V120H130.981V118H128.981ZM120.629 118H118.629V120H120.629V118ZM120.629 45.04V43.04H118.629V45.04H120.629ZM128.981 45.04H130.981V43.04H128.981V45.04ZM126.981 83.152C126.981 84.1032 126.921 85.3902 126.795 87.0306L130.783 87.3374C130.913 85.6498 130.981 84.2488 130.981 83.152H126.981ZM126.79 87.1071C126.726 88.7649 126.663 90.195 126.6 91.3989L130.594 91.6091C130.659 90.381 130.723 88.9311 130.787 87.2609L126.79 87.1071ZM128.597 93.504H128.981V89.504H128.597V93.504ZM130.581 92.704C130.946 92.2175 131.506 91.501 132.27 90.5454L129.147 88.0466C128.376 89.011 127.784 89.7665 127.381 90.304L130.581 92.704ZM132.27 90.5454C133.038 89.5854 133.806 88.6254 134.574 87.6654L131.451 85.1666C130.683 86.1266 129.915 87.0866 129.147 88.0466L132.27 90.5454ZM134.565 87.6772C135.386 86.6672 136.066 85.8635 136.611 85.2579L133.638 82.5821C133.031 83.2565 132.304 84.1168 131.461 85.1548L134.565 87.6772ZM136.579 85.2935L152.995 67.9175L150.087 65.1705L133.671 82.5465L136.579 85.2935ZM151.541 68.544H161.429V64.544H151.541V68.544ZM159.977 65.1683L139.145 87.1523L142.048 89.9037L162.88 67.9197L159.977 65.1683ZM139.001 89.7338L161.273 119.206L164.464 116.794L142.192 87.3222L139.001 89.7338ZM162.869 116H152.693V120H162.869V116ZM154.297 116.806L136.441 92.8062L133.232 95.1938L151.088 119.194L154.297 116.806ZM133.525 92.4903L127.669 97.5783L130.292 100.598L136.148 95.5097L133.525 92.4903ZM126.981 99.088V118H130.981V99.088H126.981ZM128.981 116H120.629V120H128.981V116ZM122.629 118V45.04H118.629V118H122.629ZM120.629 47.04H128.981V43.04H120.629V47.04ZM126.981 45.04V83.152H130.981V45.04H126.981ZM203.11 68.464L202.066 70.1697L202.073 70.1744L202.081 70.179L203.11 68.464ZM210.406 76.624L208.598 77.4788L208.607 77.4987L208.617 77.5184L210.406 76.624ZM212.998 93.904V95.904H214.998V93.904H212.998ZM177.766 93.904V91.904H175.722L175.766 93.9479L177.766 93.904ZM182.182 107.248L180.708 108.599L180.722 108.615L180.737 108.631L182.182 107.248ZM202.822 110.896L203.272 112.845L203.289 112.841L203.307 112.836L202.822 110.896ZM210.694 108.208H212.694V105.175L209.906 106.37L210.694 108.208ZM210.694 115.6L211.498 117.431L212.694 116.906V115.6H210.694ZM202.918 118.096L202.526 116.135L202.502 116.14L202.479 116.145L202.918 118.096ZM180.838 115.984L179.895 117.748L179.901 117.751L179.908 117.754L180.838 115.984ZM172.102 107.152L170.325 108.069L170.334 108.087L170.343 108.104L172.102 107.152ZM171.814 78.16L170.008 77.3001L170.003 77.3119L169.997 77.3237L171.814 78.16ZM179.782 68.848L178.716 67.1555L178.709 67.16L178.702 67.1646L179.782 68.848ZM182.086 76.432L180.601 75.0921L180.599 75.0941L182.086 76.432ZM177.958 87.184L175.967 86.9905L175.754 89.184H177.958V87.184ZM204.166 87.184V89.184H206.166V87.184H204.166ZM202.822 79.504L200.973 80.2655L200.973 80.2655L202.822 79.504ZM198.694 74.416L197.532 76.0435L197.564 76.0669L197.598 76.0889L198.694 74.416ZM191.782 67.584C195.904 67.584 199.302 68.4777 202.066 70.1697L204.154 66.7583C200.646 64.6103 196.492 63.584 191.782 63.584V67.584ZM202.081 70.179C204.927 71.8864 207.095 74.2998 208.598 77.4788L212.214 75.7692C210.389 71.9082 207.693 68.8816 204.139 66.749L202.081 70.179ZM208.617 77.5184C210.18 80.6446 210.998 84.3904 210.998 88.816H214.998C214.998 83.8976 214.088 79.5154 212.195 75.7296L208.617 77.5184ZM210.998 88.816V93.904H214.998V88.816H210.998ZM212.998 91.904H177.766V95.904H212.998V91.904ZM175.766 93.9479C175.901 100.065 177.454 105.05 180.708 108.599L183.656 105.897C181.278 103.302 179.887 99.3912 179.766 93.8601L175.766 93.9479ZM180.737 108.631C184.078 112.12 188.65 113.76 194.182 113.76V109.76C189.474 109.76 186.046 108.392 183.627 105.865L180.737 108.631ZM194.182 113.76C197.558 113.76 200.594 113.463 203.272 112.845L202.372 108.947C200.058 109.481 197.334 109.76 194.182 109.76V113.76ZM203.307 112.836C205.981 112.168 208.706 111.236 211.482 110.046L209.906 106.37C207.306 107.484 204.783 108.344 202.337 108.956L203.307 112.836ZM208.694 108.208V115.6H212.694V108.208H208.694ZM209.89 113.769C207.385 114.868 204.931 115.654 202.526 116.135L203.31 120.057C206.025 119.514 208.755 118.636 211.498 117.431L209.89 113.769ZM202.479 116.145C200.102 116.68 197.217 116.96 193.798 116.96V120.96C197.419 120.96 200.614 120.664 203.357 120.047L202.479 116.145ZM193.798 116.96C189.212 116.96 185.219 116.027 181.768 114.214L179.908 117.754C184.009 119.909 188.656 120.96 193.798 120.96V116.96ZM181.781 114.22C178.434 112.431 175.797 109.779 173.861 106.2L170.343 108.104C172.631 112.333 175.818 115.569 179.895 117.748L181.781 114.22ZM173.879 106.235C172.012 102.618 171.03 98.1184 171.03 92.656H167.03C167.03 98.5856 168.096 103.75 170.325 108.069L173.879 106.235ZM171.03 92.656C171.03 87.2377 171.923 82.7055 173.631 78.9963L169.997 77.3237C167.993 81.6785 167.03 86.8103 167.03 92.656H171.03ZM173.62 79.0199C175.397 75.2871 177.817 72.4846 180.862 70.5314L178.702 67.1646C174.963 69.5634 172.071 72.9689 170.008 77.3001L173.62 79.0199ZM180.848 70.5405C183.949 68.5875 187.571 67.584 191.782 67.584V63.584C186.905 63.584 182.527 64.7565 178.716 67.1555L180.848 70.5405ZM191.686 70.496C187.176 70.496 183.404 71.9866 180.601 75.0921L183.571 77.7719C185.504 75.6294 188.132 74.496 191.686 74.496V70.496ZM180.599 75.0941C177.925 78.0652 176.443 82.1017 175.967 86.9905L179.949 87.3775C180.369 83.0503 181.639 79.9188 183.573 77.7699L180.599 75.0941ZM177.958 89.184H204.166V85.184H177.958V89.184ZM206.166 87.184C206.166 84.0421 205.688 81.2124 204.671 78.7425L200.973 80.2655C201.748 82.1476 202.166 84.4379 202.166 87.184H206.166ZM204.671 78.7425C203.632 76.2175 202.004 74.1937 199.79 72.7431L197.598 76.0889C199.096 77.0703 200.22 78.4385 200.973 80.2655L204.671 78.7425ZM199.856 72.7885C197.634 71.2014 194.855 70.496 191.686 70.496V74.496C194.277 74.496 196.17 75.0706 197.532 76.0435L199.856 72.7885ZM281.586 118V120H283.586V118H281.586ZM271.506 118L269.824 119.083L270.415 120H271.506V118ZM234.834 61.072L236.515 59.9889L235.924 59.072H234.834V61.072ZM234.45 61.072V59.072H232.335L232.453 61.1829L234.45 61.072ZM234.642 64.912L232.644 65.0028L232.646 65.048L232.65 65.0931L234.642 64.912ZM234.93 69.52L232.931 69.5969L232.931 69.5999L234.93 69.52ZM235.122 74.512L233.123 74.586L233.123 74.586L235.122 74.512ZM235.218 118V120H237.218V118H235.218ZM227.25 118H225.25V120H227.25V118ZM227.25 49.456V47.456H225.25V49.456H227.25ZM237.234 49.456L238.914 48.3723L238.324 47.456H237.234V49.456ZM273.81 106.192L272.129 107.276L272.719 108.192H273.81V106.192ZM274.194 106.192V108.192H276.367L276.187 106.026L274.194 106.192ZM274.002 103.024L272.004 103.115L272.004 103.119L274.002 103.024ZM273.81 98.416L271.811 98.49L271.811 98.4929L273.81 98.416ZM273.522 49.456V47.456H271.522V49.456H273.522ZM281.586 49.456H283.586V47.456H281.586V49.456ZM281.586 116H271.506V120H281.586V116ZM273.187 116.917L236.515 59.9889L233.152 62.1551L269.824 119.083L273.187 116.917ZM234.834 59.072H234.45V63.072H234.834V59.072ZM232.453 61.1829C232.516 62.327 232.58 63.6001 232.644 65.0028L236.639 64.8212C236.575 63.4079 236.511 62.121 236.446 60.9611L232.453 61.1829ZM232.65 65.0931C232.774 66.461 232.868 67.9617 232.931 69.5969L236.928 69.4431C236.863 67.7503 236.765 66.179 236.633 64.7309L232.65 65.0931ZM232.931 69.5999C232.995 71.1978 233.059 72.8598 233.123 74.586L237.12 74.438C237.056 72.7082 236.992 71.0422 236.928 69.4401L232.931 69.5999ZM233.123 74.586C233.186 76.2894 233.218 77.9927 233.218 79.696H237.218C237.218 77.9433 237.185 76.1906 237.12 74.438L233.123 74.586ZM233.218 79.696V118H237.218V79.696H233.218ZM235.218 116H227.25V120H235.218V116ZM229.25 118V49.456H225.25V118H229.25ZM227.25 51.456H237.234V47.456H227.25V51.456ZM235.553 50.5397L272.129 107.276L275.49 105.108L238.914 48.3723L235.553 50.5397ZM273.81 108.192H274.194V104.192H273.81V108.192ZM276.187 106.026C276.125 105.293 276.063 104.264 275.999 102.929L272.004 103.119C272.068 104.472 272.134 105.555 272.2 106.358L276.187 106.026ZM275.999 102.933C275.936 101.531 275.872 99.9993 275.808 98.3391L271.811 98.4929C271.875 100.161 271.939 101.701 272.004 103.115L275.999 102.933ZM275.808 98.342C275.744 96.6149 275.68 94.8558 275.616 93.0646L271.619 93.2074C271.683 95.0002 271.747 96.7611 271.811 98.49L275.808 98.342ZM275.616 93.0646C275.553 91.2926 275.522 89.6527 275.522 88.144H271.522C271.522 89.7073 271.554 91.3954 271.619 93.2074L275.616 93.0646ZM275.522 88.144V49.456H271.522V88.144H275.522ZM273.522 51.456H281.586V47.456H273.522V51.456ZM279.586 49.456V118H283.586V49.456H279.586ZM342.043 103.6L340.153 102.946L340.149 102.957L340.146 102.968L342.043 103.6ZM337.243 111.952L335.769 110.601L335.758 110.612L335.748 110.623L337.243 111.952ZM329.659 117.232L330.388 119.094L330.398 119.09L330.409 119.086L329.659 117.232ZM310.363 117.232L309.585 119.074L309.603 119.082L309.62 119.089L310.363 117.232ZM302.875 111.952L301.401 113.303L301.401 113.303L302.875 111.952ZM297.883 103.6L295.993 104.254L296.001 104.276L296.009 104.298L297.883 103.6ZM299.035 77.776L300.83 78.6587L300.835 78.6471L299.035 77.776ZM307.291 68.752L308.283 70.4885L308.295 70.4819L308.306 70.4751L307.291 68.752ZM332.347 68.752L331.318 70.467L331.336 70.4779L331.355 70.4885L332.347 68.752ZM340.699 77.776L338.91 78.6704L338.919 78.6878L338.928 78.7051L340.699 77.776ZM306.427 102.736L304.534 103.381L304.542 103.405L304.551 103.429L306.427 102.736ZM311.419 109.552L312.581 107.925L312.581 107.925L311.419 109.552ZM328.507 109.552L327.345 107.925L327.345 107.925L328.507 109.552ZM333.403 102.736L331.522 102.056L331.518 102.067L331.514 102.079L333.403 102.736ZM333.403 81.712L335.274 81.0052L335.274 81.0052L333.403 81.712ZM328.411 75.088L327.226 76.6993L327.253 76.7188L327.28 76.7375L328.411 75.088ZM308.443 77.872L310.093 79.0025L310.093 79.0025L308.443 77.872ZM341.771 92.176C341.771 96.2881 341.218 99.8683 340.153 102.946L343.933 104.254C345.172 100.676 345.771 96.6399 345.771 92.176H341.771ZM340.146 102.968C339.138 105.992 337.672 108.524 335.769 110.601L338.717 113.303C341.038 110.772 342.772 107.736 343.94 104.232L340.146 102.968ZM335.748 110.623C333.916 112.685 331.647 114.271 328.909 115.378L330.409 119.086C333.687 117.761 336.474 115.827 338.738 113.281L335.748 110.623ZM328.93 115.37C326.251 116.418 323.208 116.96 319.771 116.96V120.96C323.63 120.96 327.179 120.35 330.388 119.094L328.93 115.37ZM319.771 116.96C316.61 116.96 313.728 116.424 311.106 115.375L309.62 119.089C312.758 120.344 316.148 120.96 319.771 120.96V116.96ZM311.141 115.39C308.526 114.285 306.267 112.693 304.349 110.601L301.401 113.303C303.707 115.819 306.44 117.747 309.585 119.074L311.141 115.39ZM304.349 110.601C302.43 108.507 300.893 105.952 299.757 102.902L296.009 104.298C297.305 107.776 299.096 110.789 301.401 113.303L304.349 110.601ZM299.773 102.946C298.708 99.8683 298.155 96.2881 298.155 92.176H294.155C294.155 96.6399 294.754 100.676 295.993 104.254L299.773 102.946ZM298.155 92.176C298.155 86.6951 299.08 82.2166 300.83 78.6586L297.24 76.8934C295.15 81.1434 294.155 86.2649 294.155 92.176H298.155ZM300.835 78.6471C302.592 75.0165 305.074 72.3223 308.283 70.4885L306.299 67.0155C302.34 69.2777 299.318 72.5995 297.235 76.9049L300.835 78.6471ZM308.306 70.4751C311.53 68.5753 315.422 67.584 320.059 67.584V63.584C314.84 63.584 310.22 64.7047 306.276 67.0289L308.306 70.4751ZM320.059 67.584C324.42 67.584 328.15 68.5661 331.318 70.467L333.376 67.037C329.504 64.7139 325.042 63.584 320.059 63.584V67.584ZM331.355 70.4885C334.57 72.3258 337.089 75.0279 338.91 78.6704L342.488 76.8816C340.341 72.5881 337.292 69.2742 333.339 67.0155L331.355 70.4885ZM338.928 78.7051C340.788 82.251 341.771 86.712 341.771 92.176H345.771C345.771 86.248 344.706 81.109 342.47 76.8469L338.928 78.7051ZM302.891 92.176C302.891 96.3711 303.423 100.118 304.534 103.381L308.32 102.091C307.383 99.3382 306.891 96.0449 306.891 92.176H302.891ZM304.551 103.429C305.758 106.695 307.646 109.315 310.257 111.179L312.581 107.925C310.712 106.589 309.272 104.665 308.303 102.043L304.551 103.429ZM310.257 111.179C312.914 113.077 316.197 113.952 319.963 113.952V109.952C316.817 109.952 314.404 109.227 312.581 107.925L310.257 111.179ZM319.963 113.952C323.729 113.952 327.012 113.077 329.669 111.179L327.345 107.925C325.522 109.227 323.109 109.952 319.963 109.952V113.952ZM329.669 111.179C332.29 109.308 334.151 106.674 335.292 103.393L331.514 102.079C330.607 104.686 329.204 106.596 327.345 107.925L329.669 111.179ZM335.284 103.416C336.468 100.142 337.035 96.3821 337.035 92.176H333.035C333.035 96.0339 332.514 99.3143 331.522 102.056L335.284 103.416ZM337.035 92.176C337.035 87.9137 336.47 84.1721 335.274 81.0052L331.532 82.4188C332.512 85.0119 333.035 88.2463 333.035 92.176H337.035ZM335.274 81.0052C334.061 77.7957 332.163 75.2358 329.542 73.4385L327.28 76.7375C329.139 78.0122 330.569 79.8683 331.532 82.4188L335.274 81.0052ZM329.596 73.4767C326.985 71.5572 323.684 70.688 319.867 70.688V74.688C323.09 74.688 325.485 75.4188 327.226 76.6993L329.596 73.4767ZM319.867 70.688C314.147 70.688 309.629 72.6028 306.793 76.7415L310.093 79.0025C311.993 76.2292 315.091 74.688 319.867 74.688V70.688ZM306.793 76.7415C304.115 80.6494 302.891 85.866 302.891 92.176H306.891C306.891 86.326 308.035 82.0065 310.093 79.0025L306.793 76.7415ZM378.28 111.76L378.563 113.74L378.609 113.733L378.654 113.725L378.28 111.76ZM381.544 110.992H383.544V108.284L380.956 109.08L381.544 110.992ZM381.544 117.424L382.438 119.213L383.544 118.66V117.424H381.544ZM377.704 118.48L377.4 116.503L377.363 116.509L377.326 116.516L377.704 118.48ZM365.416 117.616L364.628 119.454L364.659 119.468L364.691 119.48L365.416 117.616ZM357.832 73.072H359.832V71.072H357.832V73.072ZM350.536 73.072H348.536V75.072H350.536V73.072ZM350.536 69.04L349.708 67.2193L348.536 67.7522V69.04H350.536ZM357.928 65.68L358.756 67.5007L359.576 67.128L359.84 66.267L357.928 65.68ZM361.288 54.736V52.736H359.81L359.376 54.149L361.288 54.736ZM366.28 54.736H368.28V52.736H366.28V54.736ZM366.28 66.544H364.28V68.544H366.28V66.544ZM381.16 66.544H383.16V64.544H381.16V66.544ZM381.16 73.072V75.072H383.16V73.072H381.16ZM366.28 73.072V71.072H364.28V73.072H366.28ZM368.488 109.84L367.044 111.224L367.073 111.255L367.104 111.284L368.488 109.84ZM374.344 114.048C375.724 114.048 377.131 113.944 378.563 113.74L377.997 109.78C376.741 109.96 375.524 110.048 374.344 110.048V114.048ZM378.654 113.725C380.035 113.462 381.202 113.19 382.132 112.904L380.956 109.08C380.222 109.306 379.213 109.546 377.906 109.795L378.654 113.725ZM379.544 110.992V117.424H383.544V110.992H379.544ZM380.65 115.635C380.023 115.948 378.978 116.26 377.4 116.503L378.008 120.457C379.758 120.188 381.273 119.796 382.438 119.213L380.65 115.635ZM377.326 116.516C375.774 116.814 374.301 116.96 372.904 116.96V120.96C374.579 120.96 376.306 120.786 378.082 120.444L377.326 116.516ZM372.904 116.96C370.442 116.96 368.194 116.551 366.141 115.752L364.691 119.48C367.246 120.473 369.99 120.96 372.904 120.96V116.96ZM366.204 115.778C364.386 114.999 362.867 113.667 361.651 111.677L358.237 113.763C359.837 116.381 361.966 118.313 364.628 119.454L366.204 115.778ZM361.651 111.677C360.512 109.813 359.832 106.999 359.832 103.024H355.832C355.832 107.369 356.56 111.019 358.237 113.763L361.651 111.677ZM359.832 103.024V73.072H355.832V103.024H359.832ZM357.832 71.072H350.536V75.072H357.832V71.072ZM352.536 73.072V69.04H348.536V73.072H352.536ZM351.364 70.8607L358.756 67.5007L357.1 63.8593L349.708 67.2193L351.364 70.8607ZM359.84 66.267L363.2 55.323L359.376 54.149L356.016 65.093L359.84 66.267ZM361.288 56.736H366.28V52.736H361.288V56.736ZM364.28 54.736V66.544H368.28V54.736H364.28ZM366.28 68.544H381.16V64.544H366.28V68.544ZM379.16 66.544V73.072H383.16V66.544H379.16ZM381.16 71.072H366.28V75.072H381.16V71.072ZM364.28 73.072V102.832H368.28V73.072H364.28ZM364.28 102.832C364.28 106.242 365.077 109.171 367.044 111.224L369.932 108.456C368.955 107.437 368.28 105.694 368.28 102.832H364.28ZM367.104 111.284C369.056 113.154 371.524 114.048 374.344 114.048V110.048C372.428 110.048 370.992 109.47 369.872 108.396L367.104 111.284ZM423.048 68.464L422.003 70.1697L422.011 70.1744L422.019 70.179L423.048 68.464ZM430.344 76.624L428.535 77.4788L428.545 77.4987L428.555 77.5184L430.344 76.624ZM432.936 93.904V95.904H434.936V93.904H432.936ZM397.704 93.904V91.904H395.659L395.704 93.9479L397.704 93.904ZM402.12 107.248L400.645 108.599L400.66 108.615L400.675 108.631L402.12 107.248ZM422.76 110.896L423.209 112.845L423.227 112.841L423.245 112.836L422.76 110.896ZM430.632 108.208H432.632V105.175L429.844 106.37L430.632 108.208ZM430.632 115.6L431.435 117.431L432.632 116.906V115.6H430.632ZM422.856 118.096L422.463 116.135L422.44 116.14L422.416 116.145L422.856 118.096ZM400.776 115.984L399.833 117.748L399.839 117.751L399.845 117.754L400.776 115.984ZM392.04 107.152L390.262 108.069L390.271 108.087L390.28 108.104L392.04 107.152ZM391.752 78.16L389.946 77.3001L389.94 77.3119L389.935 77.3237L391.752 78.16ZM399.72 68.848L398.654 67.1555L398.647 67.16L398.64 67.1646L399.72 68.848ZM402.024 76.432L400.539 75.0921L400.537 75.0941L402.024 76.432ZM397.896 87.184L395.905 86.9905L395.692 89.184H397.896V87.184ZM424.104 87.184V89.184H426.104V87.184H424.104ZM422.76 79.504L420.91 80.2655L420.91 80.2655L422.76 79.504ZM418.632 74.416L417.469 76.0435L417.502 76.0669L417.535 76.0889L418.632 74.416ZM411.72 67.584C415.841 67.584 419.24 68.4777 422.003 70.1697L424.092 66.7583C420.583 64.6103 416.43 63.584 411.72 63.584V67.584ZM422.019 70.179C424.864 71.8864 427.033 74.2998 428.535 77.4788L432.152 75.7692C430.326 71.9082 427.631 68.8816 424.076 66.749L422.019 70.179ZM428.555 77.5184C430.118 80.6446 430.936 84.3904 430.936 88.816H434.936C434.936 83.8976 434.025 79.5154 432.132 75.7296L428.555 77.5184ZM430.936 88.816V93.904H434.936V88.816H430.936ZM432.936 91.904H397.704V95.904H432.936V91.904ZM395.704 93.9479C395.838 100.065 397.391 105.05 400.645 108.599L403.594 105.897C401.216 103.302 399.825 99.3912 399.703 93.8601L395.704 93.9479ZM400.675 108.631C404.016 112.12 408.588 113.76 414.12 113.76V109.76C409.411 109.76 405.983 108.392 403.564 105.865L400.675 108.631ZM414.12 113.76C417.496 113.76 420.532 113.463 423.209 112.845L422.31 108.947C419.995 109.481 417.271 109.76 414.12 109.76V113.76ZM423.245 112.836C425.918 112.168 428.644 111.236 431.419 110.046L429.844 106.37C427.243 107.484 424.721 108.344 422.274 108.956L423.245 112.836ZM428.632 108.208V115.6H432.632V108.208H428.632ZM429.828 113.769C427.323 114.868 424.869 115.654 422.463 116.135L423.248 120.057C425.962 119.514 428.692 118.636 431.435 117.431L429.828 113.769ZM422.416 116.145C420.04 116.68 417.154 116.96 413.736 116.96V120.96C417.357 120.96 420.551 120.664 423.295 120.047L422.416 116.145ZM413.736 116.96C409.15 116.96 405.157 116.027 401.706 114.214L399.845 117.754C403.946 119.909 408.593 120.96 413.736 120.96V116.96ZM401.718 114.22C398.371 112.431 395.735 109.779 393.799 106.2L390.28 108.104C392.568 112.333 395.756 115.569 399.833 117.748L401.718 114.22ZM393.817 106.235C391.95 102.618 390.968 98.1184 390.968 92.656H386.968C386.968 98.5856 388.033 103.75 390.262 108.069L393.817 106.235ZM390.968 92.656C390.968 87.2377 391.861 82.7055 393.568 78.9963L389.935 77.3237C387.93 81.6785 386.968 86.8103 386.968 92.656H390.968ZM393.557 79.0199C395.335 75.2871 397.755 72.4846 400.799 70.5314L398.64 67.1646C394.9 69.5634 392.008 72.9689 389.946 77.3001L393.557 79.0199ZM400.785 70.5405C403.887 68.5875 407.509 67.584 411.72 67.584V63.584C406.842 63.584 402.464 64.7565 398.654 67.1555L400.785 70.5405ZM411.624 70.496C407.114 70.496 403.341 71.9866 400.539 75.0921L403.508 77.7719C405.442 75.6294 408.069 74.496 411.624 74.496V70.496ZM400.537 75.0941C397.863 78.0652 396.38 82.1017 395.905 86.9905L399.886 87.3775C400.307 83.0503 401.576 79.9188 403.51 77.7699L400.537 75.0941ZM397.896 89.184H424.104V85.184H397.896V89.184ZM426.104 87.184C426.104 84.0421 425.626 81.2124 424.609 78.7425L420.91 80.2655C421.685 82.1476 422.104 84.4379 422.104 87.184H426.104ZM424.609 78.7425C423.569 76.2175 421.942 74.1937 419.728 72.7431L417.535 76.0889C419.033 77.0703 420.158 78.4385 420.91 80.2655L424.609 78.7425ZM419.794 72.7885C417.572 71.2014 414.793 70.496 411.624 70.496V74.496C414.214 74.496 416.107 75.0706 417.469 76.0435L419.794 72.7885Z" fill="white"/>
</g>
<path d="M503.256 15.9166L503.936 16.4065L503.572 17.1617L457.335 113.208L457.279 113.325L457.194 113.424L443.157 129.856L441.42 128.99L445.609 110.152L445.633 110.047L445.677 109.95L490.494 12.708L490.755 12.1426L491.377 12.1269C493.74 12.0672 495.637 12.2166 497.502 12.8019C499.365 13.3861 501.127 14.3827 503.256 15.9166Z" fill="#121212" stroke="white" stroke-width="2"/>
</g>
<defs>
<filter id="filter0_d_1_2" x="9.95999" y="45.04" width="426.975" height="81.92" filterUnits="userSpaceOnUse" color-interpolation-filters="sRGB">
<feFlood flood-opacity="0" result="BackgroundImageFix"/>
<feColorMatrix in="SourceAlpha" type="matrix" values="0 0 0 0 0 0 0 0 0 0 0 0 0 0 0 0 0 0 127 0" result="hardAlpha"/>
<feOffset dy="4"/>
<feGaussianBlur stdDeviation="2"/>
<feComposite in2="hardAlpha" operator="out"/>
<feColorMatrix type="matrix" values="0 0 0 0 0 0 0 0 0 0 0 0 0 0 0 0 0 0 0.25 0"/>
<feBlend mode="normal" in2="BackgroundImageFix" result="effect1_dropShadow_1_2"/>
<feBlend mode="normal" in="SourceGraphic" in2="effect1_dropShadow_1_2" result="shape"/>
</filter>
<clipPath id="clip0_1_2">
<rect width="504" height="144" fill="white"/>
</clipPath>
</defs>
</svg>
