<svg width="504" height="144" viewBox="0 0 504 144" fill="none" xmlns="http://www.w3.org/2000/svg">
<g clip-path="url(#clip0_1_2)">
<path d="M44.008 118H35.368V57.04H13.96V49.456H65.32V57.04H44.008V118ZM86.3043 65.68C92.5763 65.68 97.2163 67.056 100.224 69.808C103.232 72.56 104.736 76.944 104.736 82.96V118H98.5923L96.9603 110.704H96.5763C95.1043 112.56 93.5683 114.128 91.9683 115.408C90.4323 116.624 88.6403 117.52 86.5923 118.096C84.6083 118.672 82.1763 118.96 79.2963 118.96C76.2243 118.96 73.4403 118.416 70.9443 117.328C68.5123 116.24 66.5923 114.576 65.1843 112.336C63.7763 110.032 63.0723 107.152 63.0723 103.696C63.0723 98.576 65.0883 94.64 69.1203 91.888C73.1523 89.072 79.3603 87.536 87.7443 87.28L96.4803 86.992V83.92C96.4803 79.632 95.5523 76.656 93.6963 74.992C91.8403 73.328 89.2163 72.496 85.8243 72.496C83.1363 72.496 80.5763 72.912 78.1443 73.744C75.7123 74.512 73.4403 75.408 71.3282 76.432L68.7363 70.096C70.9763 68.88 73.6323 67.856 76.7043 67.024C79.7763 66.128 82.9763 65.68 86.3043 65.68ZM88.8003 93.136C82.4003 93.392 77.9523 94.416 75.4563 96.208C73.0243 98 71.8083 100.528 71.8083 103.792C71.8083 106.672 72.6723 108.784 74.4003 110.128C76.1923 111.472 78.4643 112.144 81.2163 112.144C85.5683 112.144 89.1843 110.96 92.0643 108.592C94.9443 106.16 96.3843 102.448 96.3843 97.456V92.848L88.8003 93.136ZM128.981 83.152C128.981 84.176 128.917 85.52 128.789 87.184C128.725 88.848 128.661 90.288 128.597 91.504H128.981C129.365 90.992 129.941 90.256 130.709 89.296C131.477 88.336 132.245 87.376 133.013 86.416C133.845 85.392 134.549 84.56 135.125 83.92L151.541 66.544H161.429L140.597 88.528L162.869 118H152.693L134.837 94L128.981 99.088V118H120.629V45.04H128.981V83.152ZM191.782 65.584C196.198 65.584 199.974 66.544 203.11 68.464C206.31 70.384 208.742 73.104 210.406 76.624C212.134 80.08 212.998 84.144 212.998 88.816V93.904H177.766C177.894 99.728 179.366 104.176 182.182 107.248C185.062 110.256 189.062 111.76 194.182 111.76C197.446 111.76 200.326 111.472 202.822 110.896C205.382 110.256 208.006 109.36 210.694 108.208V115.6C208.07 116.752 205.478 117.584 202.918 118.096C200.358 118.672 197.318 118.96 193.798 118.96C188.934 118.96 184.614 117.968 180.838 115.984C177.126 114 174.214 111.056 172.102 107.152C170.054 103.184 169.03 98.352 169.03 92.656C169.03 87.024 169.958 82.192 171.814 78.16C173.734 74.128 176.39 71.024 179.782 68.848C183.238 66.672 187.238 65.584 191.782 65.584ZM191.686 72.496C187.654 72.496 184.454 73.808 182.086 76.432C179.782 78.992 178.406 82.576 177.958 87.184H204.166C204.166 84.24 203.718 81.68 202.822 79.504C201.926 77.328 200.55 75.632 198.694 74.416C196.902 73.136 194.566 72.496 191.686 72.496ZM281.586 118H271.506L234.834 61.072H234.45C234.514 62.224 234.578 63.504 234.642 64.912C234.77 66.32 234.866 67.856 234.93 69.52C234.994 71.12 235.058 72.784 235.122 74.512C235.186 76.24 235.218 77.968 235.218 79.696V118H227.25V49.456H237.234L273.81 106.192H274.194C274.13 105.424 274.066 104.368 274.002 103.024C273.938 101.616 273.874 100.08 273.81 98.416C273.746 96.688 273.682 94.928 273.618 93.136C273.554 91.344 273.522 89.68 273.522 88.144V49.456H281.586V118ZM343.771 92.176C343.771 96.464 343.195 100.272 342.043 103.6C340.955 106.864 339.355 109.648 337.243 111.952C335.195 114.256 332.667 116.016 329.659 117.232C326.715 118.384 323.419 118.96 319.771 118.96C316.379 118.96 313.243 118.384 310.363 117.232C307.483 116.016 304.987 114.256 302.875 111.952C300.763 109.648 299.099 106.864 297.883 103.6C296.731 100.272 296.155 96.464 296.155 92.176C296.155 86.48 297.115 81.68 299.035 77.776C300.955 73.808 303.707 70.8 307.291 68.752C310.875 66.64 315.131 65.584 320.059 65.584C324.731 65.584 328.827 66.64 332.347 68.752C335.931 70.8 338.715 73.808 340.699 77.776C342.747 81.68 343.771 86.48 343.771 92.176ZM304.891 92.176C304.891 96.208 305.403 99.728 306.427 102.736C307.515 105.68 309.179 107.952 311.419 109.552C313.659 111.152 316.507 111.952 319.963 111.952C323.419 111.952 326.267 111.152 328.507 109.552C330.747 107.952 332.379 105.68 333.403 102.736C334.491 99.728 335.035 96.208 335.035 92.176C335.035 88.08 334.491 84.592 333.403 81.712C332.315 78.832 330.651 76.624 328.411 75.088C326.235 73.488 323.387 72.688 319.867 72.688C314.619 72.688 310.811 74.416 308.443 77.872C306.075 81.328 304.891 86.096 304.891 92.176ZM374.344 112.048C375.624 112.048 376.936 111.952 378.28 111.76C379.624 111.504 380.712 111.248 381.544 110.992V117.424C380.648 117.872 379.368 118.224 377.704 118.48C376.04 118.8 374.44 118.96 372.904 118.96C370.216 118.96 367.72 118.512 365.416 117.616C363.176 116.656 361.352 115.024 359.944 112.72C358.536 110.416 357.832 107.184 357.832 103.024V73.072H350.536V69.04L357.928 65.68L361.288 54.736H366.28V66.544H381.16V73.072H366.28V102.832C366.28 105.968 367.016 108.304 368.488 109.84C370.024 111.312 371.976 112.048 374.344 112.048ZM411.72 65.584C416.136 65.584 419.912 66.544 423.048 68.464C426.248 70.384 428.68 73.104 430.344 76.624C432.072 80.08 432.936 84.144 432.936 88.816V93.904H397.704C397.832 99.728 399.304 104.176 402.12 107.248C405 110.256 409 111.76 414.12 111.76C417.384 111.76 420.264 111.472 422.76 110.896C425.32 110.256 427.944 109.36 430.632 108.208V115.6C428.008 116.752 425.416 117.584 422.856 118.096C420.296 118.672 417.256 118.96 413.736 118.96C408.872 118.96 404.552 117.968 400.776 115.984C397.064 114 394.152 111.056 392.04 107.152C389.992 103.184 388.968 98.352 388.968 92.656C388.968 87.024 389.896 82.192 391.752 78.16C393.672 74.128 396.328 71.024 399.72 68.848C403.176 66.672 407.176 65.584 411.72 65.584ZM411.624 72.496C407.592 72.496 404.392 73.808 402.024 76.432C399.72 78.992 398.344 82.576 397.896 87.184H424.104C424.104 84.24 423.656 81.68 422.76 79.504C421.864 77.328 420.488 75.632 418.632 74.416C416.84 73.136 414.504 72.496 411.624 72.496Z" fill="#0090C1"/>
<path d="M44.008 118V121H47.008V118H44.008ZM35.368 118H32.368V121H35.368V118ZM35.368 57.04H38.368V54.04H35.368V57.04ZM13.96 57.04H10.96V60.04H13.96V57.04ZM13.96 49.456V46.456H10.96V49.456H13.96ZM65.32 49.456H68.32V46.456H65.32V49.456ZM65.32 57.04V60.04H68.32V57.04H65.32ZM44.008 57.04V54.04H41.008V57.04H44.008ZM44.008 115H35.368V121H44.008V115ZM38.368 118V57.04H32.368V118H38.368ZM35.368 54.04H13.96V60.04H35.368V54.04ZM16.96 57.04V49.456H10.96V57.04H16.96ZM13.96 52.456H65.32V46.456H13.96V52.456ZM62.32 49.456V57.04H68.32V49.456H62.32ZM65.32 54.04H44.008V60.04H65.32V54.04ZM41.008 57.04V118H47.008V57.04H41.008ZM100.224 69.808L102.249 67.5946L102.249 67.5946L100.224 69.808ZM104.736 118V121H107.736V118H104.736ZM98.5923 118L95.6646 118.655L96.1892 121H98.5923V118ZM96.9603 110.704L99.8879 110.049L99.3633 107.704H96.9603V110.704ZM96.5763 110.704V107.704H95.1266L94.2258 108.84L96.5763 110.704ZM91.9683 115.408L93.8304 117.76L93.8364 117.755L93.8423 117.751L91.9683 115.408ZM86.5923 118.096L85.78 115.208L85.7679 115.211L85.7558 115.215L86.5923 118.096ZM70.9443 117.328L69.7192 120.066L69.7323 120.072L69.7455 120.078L70.9443 117.328ZM65.1843 112.336L62.6244 113.9L62.6343 113.916L62.6443 113.933L65.1843 112.336ZM69.1203 91.888L70.8115 94.3658L70.8248 94.3568L70.838 94.3475L69.1203 91.888ZM87.7443 87.28L87.8358 90.2786L87.8431 90.2784L87.7443 87.28ZM96.4803 86.992L96.5791 89.9904L99.4803 89.8947V86.992H96.4803ZM93.6963 74.992L91.6936 77.2257L91.6936 77.2257L93.6963 74.992ZM78.1443 73.744L79.0476 76.6047L79.0816 76.594L79.1153 76.5825L78.1443 73.744ZM71.3282 76.432L68.5516 77.5679L69.7616 80.5256L72.6371 79.1314L71.3282 76.432ZM68.7363 70.096L67.305 67.4594L64.9413 68.7426L65.9596 71.2319L68.7363 70.096ZM76.7043 67.024L77.4885 69.9197L77.5164 69.9121L77.5443 69.904L76.7043 67.024ZM88.8003 93.136L88.6864 90.1382L88.6803 90.1384L88.8003 93.136ZM75.4563 96.208L73.7066 93.771L73.6916 93.7818L73.6767 93.7928L75.4563 96.208ZM74.4003 110.128L72.5584 112.496L72.5792 112.512L72.6003 112.528L74.4003 110.128ZM92.0643 108.592L93.9696 110.909L93.9848 110.897L93.9998 110.884L92.0643 108.592ZM96.3843 92.848H99.3843V89.7319L96.2704 89.8502L96.3843 92.848ZM86.3043 68.68C92.2163 68.68 95.9767 69.988 98.1992 72.0214L102.249 67.5946C98.4558 64.124 92.9362 62.68 86.3043 62.68V68.68ZM98.1992 72.0214C100.34 73.9802 101.736 77.382 101.736 82.96H107.736C107.736 76.506 106.124 71.1398 102.249 67.5946L98.1992 72.0214ZM101.736 82.96V118H107.736V82.96H101.736ZM104.736 115H98.5923V121H104.736V115ZM101.52 117.345L99.8879 110.049L94.0326 111.359L95.6646 118.655L101.52 117.345ZM96.9603 107.704H96.5763V113.704H96.9603V107.704ZM94.2258 108.84C92.8728 110.546 91.493 111.946 90.0942 113.065L93.8423 117.751C95.6435 116.31 97.3357 114.574 98.9267 112.568L94.2258 108.84ZM90.1061 113.056C88.9071 114.005 87.4792 114.73 85.78 115.208L87.4045 120.984C89.8013 120.31 91.9574 119.243 93.8304 117.76L90.1061 113.056ZM85.7558 115.215C84.127 115.688 81.9956 115.96 79.2963 115.96V121.96C82.3569 121.96 85.0895 121.656 87.4287 120.977L85.7558 115.215ZM79.2963 115.96C76.5839 115.96 74.2152 115.481 72.143 114.578L69.7455 120.078C72.6653 121.351 75.8646 121.96 79.2963 121.96V115.96ZM72.1693 114.59C70.2748 113.742 68.8141 112.473 67.7242 110.739L62.6443 113.933C64.3704 116.679 66.7497 118.738 69.7192 120.066L72.1693 114.59ZM67.7441 110.772C66.6942 109.054 66.0723 106.752 66.0723 103.696H60.0723C60.0723 107.552 60.8583 111.01 62.6244 113.9L67.7441 110.772ZM66.0723 103.696C66.0723 99.5099 67.6449 96.5272 70.8115 94.3658L67.429 89.4101C62.5316 92.7528 60.0723 97.6421 60.0723 103.696H66.0723ZM70.838 94.3475C74.1613 92.0265 79.6695 90.528 87.8358 90.2786L87.6527 84.2814C79.051 84.544 72.1432 86.1175 67.4025 89.4285L70.838 94.3475ZM87.8431 90.2784L96.5791 89.9904L96.3814 83.9936L87.6454 84.2816L87.8431 90.2784ZM99.4803 86.992V83.92H93.4803V86.992H99.4803ZM99.4803 83.92C99.4803 79.3617 98.522 75.2894 95.6989 72.7583L91.6936 77.2257C92.5825 78.0226 93.4803 79.9023 93.4803 83.92H99.4803ZM95.6989 72.7583C93.1206 70.4467 89.6863 69.496 85.8243 69.496V75.496C88.7462 75.496 90.5599 76.2093 91.6936 77.2257L95.6989 72.7583ZM85.8243 69.496C82.8211 69.496 79.9319 69.9617 77.1732 70.9055L79.1153 76.5825C81.2206 75.8623 83.4514 75.496 85.8243 75.496V69.496ZM77.2409 70.8832C74.6818 71.6914 72.2732 72.6398 70.0194 73.7326L72.6371 79.1314C74.6073 78.1762 76.7427 77.3326 79.0476 76.6047L77.2409 70.8832ZM74.1049 75.2961L71.5129 68.9601L65.9596 71.2319L68.5516 77.5679L74.1049 75.2961ZM70.1675 72.7326C72.1594 71.6513 74.5884 70.7051 77.4885 69.9197L75.92 64.1283C72.6761 65.0069 69.7931 66.1087 67.305 67.4594L70.1675 72.7326ZM77.5443 69.904C80.3326 69.0907 83.2491 68.68 86.3043 68.68V62.68C82.7034 62.68 79.2199 63.1653 75.8643 64.144L77.5443 69.904ZM88.6803 90.1384C82.2082 90.3973 76.9727 91.4262 73.7066 93.771L77.2059 98.645C78.9318 97.4058 82.5923 96.3867 88.9202 96.1336L88.6803 90.1384ZM73.6767 93.7928C70.4081 96.2012 68.8083 99.664 68.8083 103.792H74.8083C74.8083 101.392 75.6404 99.7988 77.2358 98.6232L73.6767 93.7928ZM68.8083 103.792C68.8083 107.281 69.8818 110.414 72.5584 112.496L76.2421 107.76C75.4627 107.154 74.8083 106.063 74.8083 103.792H68.8083ZM72.6003 112.528C75.0209 114.343 77.9666 115.144 81.2163 115.144V109.144C78.9619 109.144 77.3636 108.601 76.2003 107.728L72.6003 112.528ZM81.2163 115.144C86.1413 115.144 90.4655 113.79 93.9696 110.909L90.1589 106.275C87.903 108.13 84.9952 109.144 81.2163 109.144V115.144ZM93.9998 110.884C97.7575 107.711 99.3843 103.026 99.3843 97.456H93.3843C93.3843 101.87 92.131 104.609 90.1287 106.3L93.9998 110.884ZM99.3843 97.456V92.848H93.3843V97.456H99.3843ZM96.2704 89.8502L88.6864 90.1382L88.9141 96.1338L96.4981 95.8458L96.2704 89.8502ZM128.789 87.184L125.798 86.9539L125.793 87.0112L125.791 87.0687L128.789 87.184ZM128.597 91.504L125.601 91.3463L125.435 94.504H128.597V91.504ZM128.981 91.504V94.504H130.481L131.381 93.304L128.981 91.504ZM130.709 89.296L128.366 87.4219L128.366 87.4219L130.709 89.296ZM133.013 86.416L130.684 84.5242L130.677 84.533L130.67 84.5419L133.013 86.416ZM135.125 83.92L132.944 81.8598L132.919 81.8861L132.895 81.9131L135.125 83.92ZM151.541 66.544V63.544H150.248L149.36 64.4838L151.541 66.544ZM161.429 66.544L163.606 68.6075L168.405 63.544H161.429V66.544ZM140.597 88.528L138.419 86.4645L136.671 88.3092L138.203 90.3367L140.597 88.528ZM162.869 118V121H168.896L165.262 116.191L162.869 118ZM152.693 118L150.286 119.791L151.186 121H152.693V118ZM134.837 94L137.244 92.2093L135.312 89.6129L132.869 91.7354L134.837 94ZM128.981 99.088L127.013 96.8234L125.981 97.7204V99.088H128.981ZM128.981 118V121H131.981V118H128.981ZM120.629 118H117.629V121H120.629V118ZM120.629 45.04V42.04H117.629V45.04H120.629ZM128.981 45.04H131.981V42.04H128.981V45.04ZM125.981 83.152C125.981 84.0668 125.923 85.3254 125.798 86.9539L131.78 87.4141C131.911 85.7146 131.981 84.2852 131.981 83.152H125.981ZM125.791 87.0687C125.727 88.7233 125.664 90.1485 125.601 91.3463L131.593 91.6617C131.658 90.4275 131.722 88.9727 131.787 87.2993L125.791 87.0687ZM128.597 94.504H128.981V88.504H128.597V94.504ZM131.381 93.304C131.736 92.8303 132.289 92.1235 133.051 91.1701L128.366 87.4219C127.593 88.3885 126.993 89.1537 126.581 89.704L131.381 93.304ZM133.051 91.1701C133.819 90.2101 134.587 89.2501 135.355 88.2901L130.67 84.5419C129.902 85.5019 129.134 86.4619 128.366 87.4219L133.051 91.1701ZM135.341 88.3078C136.156 87.3048 136.825 86.5152 137.355 85.9269L132.895 81.9131C132.272 82.6048 131.533 83.4792 130.684 84.5242L135.341 88.3078ZM137.305 85.9802L153.721 68.6042L149.36 64.4838L132.944 81.8598L137.305 85.9802ZM151.541 69.544H161.429V63.544H151.541V69.544ZM159.251 64.4805L138.419 86.4645L142.774 90.5915L163.606 68.6075L159.251 64.4805ZM138.203 90.3367L160.475 119.809L165.262 116.191L142.99 86.7193L138.203 90.3367ZM162.869 115H152.693V121H162.869V115ZM155.1 116.209L137.244 92.2093L132.43 95.7907L150.286 119.791L155.1 116.209ZM132.869 91.7354L127.013 96.8234L130.948 101.353L136.804 96.2646L132.869 91.7354ZM125.981 99.088V118H131.981V99.088H125.981ZM128.981 115H120.629V121H128.981V115ZM123.629 118V45.04H117.629V118H123.629ZM120.629 48.04H128.981V42.04H120.629V48.04ZM125.981 45.04V83.152H131.981V45.04H125.981ZM203.11 68.464L201.544 71.0226L201.555 71.0296L201.567 71.0365L203.11 68.464ZM210.406 76.624L207.694 77.9061L207.708 77.936L207.723 77.9656L210.406 76.624ZM212.998 93.904V96.904H215.998V93.904H212.998ZM177.766 93.904V90.904H174.699L174.767 93.9699L177.766 93.904ZM182.182 107.248L179.971 109.275L179.993 109.299L180.015 109.323L182.182 107.248ZM202.822 110.896L203.497 113.819L203.523 113.813L203.55 113.806L202.822 110.896ZM210.694 108.208H213.694V103.658L209.512 105.451L210.694 108.208ZM210.694 115.6L211.9 118.347L213.694 117.559V115.6H210.694ZM202.918 118.096L202.33 115.154L202.294 115.161L202.259 115.169L202.918 118.096ZM180.838 115.984L179.424 118.63L179.433 118.635L179.443 118.64L180.838 115.984ZM172.102 107.152L169.436 108.528L169.45 108.554L169.463 108.579L172.102 107.152ZM171.814 78.16L169.105 76.8702L169.097 76.8878L169.089 76.9056L171.814 78.16ZM179.782 68.848L178.184 66.3093L178.173 66.3161L178.162 66.3229L179.782 68.848ZM182.086 76.432L179.859 74.4221L179.856 74.4251L182.086 76.432ZM177.958 87.184L174.972 86.8937L174.652 90.184H177.958V87.184ZM204.166 87.184V90.184H207.166V87.184H204.166ZM202.822 79.504L200.048 80.6462L200.048 80.6462L202.822 79.504ZM198.694 74.416L196.95 76.8572L196.999 76.8923L197.05 76.9254L198.694 74.416ZM191.782 68.584C195.757 68.584 198.966 69.4445 201.544 71.0226L204.676 65.9054C200.982 63.6435 196.639 62.584 191.782 62.584V68.584ZM201.567 71.0365C204.235 72.6377 206.272 74.8978 207.694 77.9061L213.118 75.3419C211.212 71.3102 208.385 68.1303 204.653 65.8915L201.567 71.0365ZM207.723 77.9656C209.203 80.9268 209.998 84.5136 209.998 88.816H215.998C215.998 83.7744 215.065 79.2332 213.089 75.2824L207.723 77.9656ZM209.998 88.816V93.904H215.998V88.816H209.998ZM212.998 90.904H177.766V96.904H212.998V90.904ZM174.767 93.9699C174.904 100.233 176.498 105.487 179.971 109.275L184.393 105.221C182.234 102.865 180.884 99.2228 180.765 93.8381L174.767 93.9699ZM180.015 109.323C183.586 113.053 188.445 114.76 194.182 114.76V108.76C189.679 108.76 186.538 107.459 184.349 105.173L180.015 109.323ZM194.182 114.76C197.614 114.76 200.729 114.458 203.497 113.819L202.147 107.973C199.923 108.486 197.278 108.76 194.182 108.76V114.76ZM203.55 113.806C206.28 113.124 209.056 112.174 211.876 110.965L209.512 105.451C206.956 106.546 204.484 107.388 202.094 107.986L203.55 113.806ZM207.694 108.208V115.6H213.694V108.208H207.694ZM209.488 112.853C207.043 113.926 204.658 114.689 202.33 115.154L203.506 121.038C206.298 120.479 209.097 119.578 211.9 118.347L209.488 112.853ZM202.259 115.169C199.975 115.683 197.166 115.96 193.798 115.96V121.96C197.47 121.96 200.741 121.661 203.577 121.023L202.259 115.169ZM193.798 115.96C189.351 115.96 185.522 115.056 182.233 113.328L179.443 118.64C183.706 120.88 188.517 121.96 193.798 121.96V115.96ZM182.252 113.338C179.088 111.647 176.589 109.141 174.741 105.725L169.463 108.579C171.839 112.971 175.164 116.353 179.424 118.63L182.252 113.338ZM174.768 105.776C172.992 102.335 172.03 98.0016 172.03 92.656H166.03C166.03 98.7024 167.116 104.033 169.436 108.528L174.768 105.776ZM172.03 92.656C172.03 87.3445 172.906 82.9622 174.539 79.4144L169.089 76.9056C167.01 81.4218 166.03 86.7035 166.03 92.656H172.03ZM174.523 79.4498C176.229 75.8667 178.531 73.2149 181.402 71.3731L178.162 66.3229C174.249 68.8331 171.239 72.3893 169.105 76.8702L174.523 79.4498ZM181.38 71.3867C184.305 69.5453 187.738 68.584 191.782 68.584V62.584C186.738 62.584 182.171 63.7987 178.184 66.3093L181.38 71.3867ZM191.686 69.496C186.937 69.496 182.879 71.0759 179.859 74.4221L184.313 78.4419C186.029 76.54 188.371 75.496 191.686 75.496V69.496ZM179.856 74.4251C176.997 77.6018 175.461 81.8646 174.972 86.8937L180.944 87.4743C181.351 83.2874 182.567 80.3822 184.316 78.4389L179.856 74.4251ZM177.958 90.184H204.166V84.184H177.958V90.184ZM207.166 87.184C207.166 83.9431 206.674 80.9786 205.596 78.3617L200.048 80.6462C200.762 82.3814 201.166 84.5369 201.166 87.184H207.166ZM205.596 78.3617C204.484 75.6623 202.731 73.4746 200.338 71.9066L197.05 76.9254C198.369 77.7894 199.368 78.9937 200.048 80.6462L205.596 78.3617ZM200.438 71.9748C198.001 70.2341 195 69.496 191.686 69.496V75.496C194.132 75.496 195.803 76.0379 196.95 76.8572L200.438 71.9748ZM281.586 118V121H284.586V118H281.586ZM271.506 118L268.983 119.625L269.869 121H271.506V118ZM234.834 61.072L237.356 59.4474L236.47 58.072H234.834V61.072ZM234.45 61.072V58.072H231.278L231.454 61.2384L234.45 61.072ZM234.642 64.912L231.645 65.0482L231.648 65.116L231.654 65.1836L234.642 64.912ZM234.93 69.52L231.932 69.6353L231.932 69.6399L234.93 69.52ZM235.122 74.512L232.124 74.623L232.124 74.623L235.122 74.512ZM235.218 118V121H238.218V118H235.218ZM227.25 118H224.25V121H227.25V118ZM227.25 49.456V46.456H224.25V49.456H227.25ZM237.234 49.456L239.755 47.8305L238.869 46.456H237.234V49.456ZM273.81 106.192L271.288 107.818L272.174 109.192H273.81V106.192ZM274.194 106.192V109.192H277.454L277.183 105.943L274.194 106.192ZM274.002 103.024L271.005 103.16L271.005 103.167L274.002 103.024ZM273.81 98.416L270.812 98.527L270.812 98.5313L273.81 98.416ZM273.522 49.456V46.456H270.522V49.456H273.522ZM281.586 49.456H284.586V46.456H281.586V49.456ZM281.586 115H271.506V121H281.586V115ZM274.028 116.375L237.356 59.4474L232.311 62.6966L268.983 119.625L274.028 116.375ZM234.834 58.072H234.45V64.072H234.834V58.072ZM231.454 61.2384C231.517 62.3784 231.581 63.6482 231.645 65.0482L237.638 64.7758C237.574 63.3598 237.51 62.0696 237.445 60.9056L231.454 61.2384ZM231.654 65.1836C231.776 66.5314 231.869 68.0146 231.932 69.6353L237.927 69.4047C237.862 67.6974 237.763 66.1085 237.629 64.6404L231.654 65.1836ZM231.932 69.6399C231.996 71.2367 232.06 72.8978 232.124 74.623L238.119 74.401C238.055 72.6702 237.991 71.0033 237.927 69.4001L231.932 69.6399ZM232.124 74.623C232.186 76.3141 232.218 78.005 232.218 79.696H238.218C238.218 77.931 238.185 76.1659 238.119 74.401L232.124 74.623ZM232.218 79.696V118H238.218V79.696H232.218ZM235.218 115H227.25V121H235.218V115ZM230.25 118V49.456H224.25V118H230.25ZM227.25 52.456H237.234V46.456H227.25V52.456ZM234.712 51.0815L271.288 107.818L276.331 104.566L239.755 47.8305L234.712 51.0815ZM273.81 109.192H274.194V103.192H273.81V109.192ZM277.183 105.943C277.123 105.227 277.061 104.212 276.998 102.881L271.005 103.167C271.07 104.524 271.136 105.621 271.204 106.441L277.183 105.943ZM276.998 102.888C276.935 101.488 276.871 99.9589 276.807 98.3007L270.812 98.5313C270.876 100.201 270.94 101.744 271.005 103.16L276.998 102.888ZM276.807 98.305C276.743 96.5783 276.68 94.8197 276.616 93.0289L270.619 93.2431C270.683 95.0363 270.748 96.7977 270.812 98.527L276.807 98.305ZM276.616 93.0289C276.553 91.2669 276.522 89.639 276.522 88.144H270.522C270.522 89.721 270.554 91.4211 270.619 93.2431L276.616 93.0289ZM276.522 88.144V49.456H270.522V88.144H276.522ZM273.522 52.456H281.586V46.456H273.522V52.456ZM278.586 49.456V118H284.586V49.456H278.586ZM342.043 103.6L339.208 102.619L339.202 102.635L339.197 102.651L342.043 103.6ZM337.243 111.952L335.032 109.925L335.016 109.942L335.001 109.959L337.243 111.952ZM329.659 117.232L330.752 120.026L330.768 120.02L330.783 120.013L329.659 117.232ZM310.363 117.232L309.196 119.996L309.222 120.007L309.249 120.017L310.363 117.232ZM302.875 111.952L300.664 113.979L300.664 113.979L302.875 111.952ZM297.883 103.6L295.048 104.581L295.06 104.614L295.072 104.647L297.883 103.6ZM299.035 77.776L301.727 79.1L301.731 79.0913L301.735 79.0827L299.035 77.776ZM307.291 68.752L308.779 71.3567L308.797 71.3468L308.814 71.3366L307.291 68.752ZM332.347 68.752L330.804 71.3245L330.831 71.3409L330.859 71.3567L332.347 68.752ZM340.699 77.776L338.016 79.1176L338.029 79.1438L338.042 79.1696L340.699 77.776ZM306.427 102.736L303.587 103.703L303.6 103.74L303.613 103.776L306.427 102.736ZM311.419 109.552L313.163 107.111L313.163 107.111L311.419 109.552ZM328.507 109.552L326.763 107.111L326.763 107.111L328.507 109.552ZM333.403 102.736L330.582 101.716L330.576 101.733L330.57 101.75L333.403 102.736ZM333.403 81.712L336.209 80.6518L336.209 80.6518L333.403 81.712ZM328.411 75.088L326.634 77.505L326.674 77.5342L326.714 77.5622L328.411 75.088ZM308.443 77.872L310.918 79.5677L310.918 79.5677L308.443 77.872ZM340.771 92.176C340.771 96.2002 340.23 99.6664 339.208 102.619L344.878 104.581C346.16 100.878 346.771 96.7278 346.771 92.176H340.771ZM339.197 102.651C338.229 105.556 336.831 107.962 335.032 109.925L339.454 113.979C341.879 111.334 343.681 108.172 344.889 104.549L339.197 102.651ZM335.001 109.959C333.276 111.899 331.137 113.398 328.535 114.451L330.783 120.013C334.197 118.634 337.114 116.613 339.485 113.945L335.001 109.959ZM328.566 114.438C326.019 115.435 323.102 115.96 319.771 115.96V121.96C323.736 121.96 327.411 121.333 330.752 120.026L328.566 114.438ZM319.771 115.96C316.725 115.96 313.971 115.444 311.477 114.447L309.249 120.017C312.515 121.324 316.033 121.96 319.771 121.96V115.96ZM311.53 114.468C309.047 113.42 306.907 111.911 305.086 109.925L300.664 113.979C303.067 116.601 305.919 118.612 309.196 119.996L311.53 114.468ZM305.086 109.925C303.264 107.937 301.791 105.496 300.694 102.553L295.072 104.647C296.407 108.232 298.262 111.359 300.664 113.979L305.086 109.925ZM300.718 102.619C299.696 99.6664 299.155 96.2002 299.155 92.176H293.155C293.155 96.7278 293.766 100.878 295.048 104.581L300.718 102.619ZM299.155 92.176C299.155 86.8026 300.062 82.485 301.727 79.1L296.343 76.452C294.168 80.875 293.155 86.1573 293.155 92.176H299.155ZM301.735 79.0827C303.411 75.6208 305.758 73.0835 308.779 71.3567L305.803 66.1473C301.656 68.5165 298.499 71.9952 296.335 76.4693L301.735 79.0827ZM308.814 71.3366C311.858 69.543 315.567 68.584 320.059 68.584V62.584C314.695 62.584 309.892 63.737 305.768 66.1674L308.814 71.3366ZM320.059 68.584C324.264 68.584 327.811 69.5292 330.804 71.3245L333.89 66.1795C329.843 63.7508 325.198 62.584 320.059 62.584V68.584ZM330.859 71.3567C333.889 73.0887 336.276 75.6379 338.016 79.1176L343.382 76.4344C341.154 71.9781 337.973 68.5113 333.835 66.1473L330.859 71.3567ZM338.042 79.1696C339.809 82.5366 340.771 86.828 340.771 92.176H346.771C346.771 86.132 345.685 80.8234 343.356 76.3824L338.042 79.1696ZM301.891 92.176C301.891 96.4526 302.433 100.313 303.587 103.703L309.267 101.769C308.373 99.1434 307.891 95.9634 307.891 92.176H301.891ZM303.613 103.776C304.879 107.202 306.88 109.997 309.675 111.993L313.163 107.111C311.478 105.907 310.151 104.158 309.241 101.696L303.613 103.776ZM309.675 111.993C312.541 114.04 316.043 114.952 319.963 114.952V108.952C316.971 108.952 314.777 108.264 313.163 107.111L309.675 111.993ZM319.963 114.952C323.883 114.952 327.385 114.04 330.251 111.993L326.763 107.111C325.149 108.264 322.955 108.952 319.963 108.952V114.952ZM330.251 111.993C333.061 109.986 335.037 107.171 336.236 103.722L330.57 101.75C329.721 104.189 328.433 105.918 326.763 107.111L330.251 111.993ZM336.224 103.756C337.457 100.349 338.035 96.4692 338.035 92.176H332.035C332.035 95.9468 331.525 99.1075 330.582 101.716L336.224 103.756ZM338.035 92.176C338.035 87.8305 337.46 83.9621 336.209 80.6518L330.597 82.7722C331.522 85.2219 332.035 88.3295 332.035 92.176H338.035ZM336.209 80.6518C334.935 77.2776 332.919 74.5418 330.108 72.6138L326.714 77.5622C328.383 78.7062 329.695 80.3864 330.597 82.7722L336.209 80.6518ZM330.188 72.671C327.36 70.5917 323.833 69.688 319.867 69.688V75.688C322.941 75.688 325.11 76.3843 326.634 77.505L330.188 72.671ZM319.867 69.688C313.911 69.688 309.038 71.6962 305.968 76.1763L310.918 79.5677C312.584 77.1358 315.327 75.688 319.867 75.688V69.688ZM305.968 76.1763C303.136 80.3102 301.891 85.751 301.891 92.176H307.891C307.891 86.441 309.014 82.3458 310.918 79.5677L305.968 76.1763ZM378.28 111.76L378.704 114.73L378.773 114.72L378.841 114.707L378.28 111.76ZM381.544 110.992H384.544V106.93L380.662 108.125L381.544 110.992ZM381.544 117.424L382.886 120.107L384.544 119.278V117.424H381.544ZM377.704 118.48L377.248 115.515L377.192 115.523L377.137 115.534L377.704 118.48ZM365.416 117.616L364.234 120.373L364.281 120.394L364.329 120.412L365.416 117.616ZM357.832 73.072H360.832V70.072H357.832V73.072ZM350.536 73.072H347.536V76.072H350.536V73.072ZM350.536 69.04L349.295 66.3089L347.536 67.1083V69.04H350.536ZM357.928 65.68L359.169 68.4111L360.399 67.852L360.796 66.5605L357.928 65.68ZM361.288 54.736V51.736H359.071L358.42 53.8555L361.288 54.736ZM366.28 54.736H369.28V51.736H366.28V54.736ZM366.28 66.544H363.28V69.544H366.28V66.544ZM381.16 66.544H384.16V63.544H381.16V66.544ZM381.16 73.072V76.072H384.16V73.072H381.16ZM366.28 73.072V70.072H363.28V73.072H366.28ZM368.488 109.84L366.322 111.916L366.366 111.962L366.412 112.006L368.488 109.84ZM374.344 115.048C375.774 115.048 377.228 114.941 378.704 114.73L377.856 108.79C376.644 108.963 375.474 109.048 374.344 109.048V115.048ZM378.841 114.707C380.24 114.441 381.447 114.161 382.426 113.859L380.662 108.125C379.977 108.335 379.008 108.567 377.719 108.813L378.841 114.707ZM378.544 110.992V117.424H384.544V110.992H378.544ZM380.202 114.741C379.711 114.986 378.783 115.279 377.248 115.515L378.16 121.445C379.953 121.169 381.585 120.758 382.886 120.107L380.202 114.741ZM377.137 115.534C375.641 115.822 374.232 115.96 372.904 115.96V121.96C374.648 121.96 376.439 121.778 378.271 121.426L377.137 115.534ZM372.904 115.96C370.555 115.96 368.432 115.57 366.503 114.82L364.329 120.412C367.008 121.454 369.877 121.96 372.904 121.96V115.96ZM366.598 114.859C364.991 114.17 363.624 112.989 362.504 111.156L357.384 114.284C359.08 117.059 361.361 119.142 364.234 120.373L366.598 114.859ZM362.504 111.156C361.499 109.512 360.832 106.907 360.832 103.024H354.832C354.832 107.461 355.573 111.32 357.384 114.284L362.504 111.156ZM360.832 103.024V73.072H354.832V103.024H360.832ZM357.832 70.072H350.536V76.072H357.832V70.072ZM353.536 73.072V69.04H347.536V73.072H353.536ZM351.777 71.7711L359.169 68.4111L356.687 62.9489L349.295 66.3089L351.777 71.7711ZM360.796 66.5605L364.156 55.6165L358.42 53.8555L355.06 64.7995L360.796 66.5605ZM361.288 57.736H366.28V51.736H361.288V57.736ZM363.28 54.736V66.544H369.28V54.736H363.28ZM366.28 69.544H381.16V63.544H366.28V69.544ZM378.16 66.544V73.072H384.16V66.544H378.16ZM381.16 70.072H366.28V76.072H381.16V70.072ZM363.28 73.072V102.832H369.28V73.072H363.28ZM363.28 102.832C363.28 106.379 364.108 109.605 366.322 111.916L370.654 107.764C369.924 107.003 369.28 105.557 369.28 102.832H363.28ZM366.412 112.006C368.572 114.076 371.298 115.048 374.344 115.048V109.048C372.654 109.048 371.476 108.548 370.564 107.674L366.412 112.006ZM423.048 68.464L421.481 71.0226L421.492 71.0296L421.504 71.0365L423.048 68.464ZM430.344 76.624L427.631 77.9061L427.645 77.936L427.66 77.9656L430.344 76.624ZM432.936 93.904V96.904H435.936V93.904H432.936ZM397.704 93.904V90.904H394.637L394.704 93.9699L397.704 93.904ZM402.12 107.248L399.908 109.275L399.93 109.299L399.953 109.323L402.12 107.248ZM422.76 110.896L423.434 113.819L423.461 113.813L423.487 113.806L422.76 110.896ZM430.632 108.208H433.632V103.658L429.45 105.451L430.632 108.208ZM430.632 115.6L431.837 118.347L433.632 117.559V115.6H430.632ZM422.856 118.096L422.267 115.154L422.232 115.161L422.197 115.169L422.856 118.096ZM400.776 115.984L399.361 118.63L399.371 118.635L399.38 118.64L400.776 115.984ZM392.04 107.152L389.374 108.528L389.387 108.554L389.401 108.579L392.04 107.152ZM391.752 78.16L389.043 76.8702L389.035 76.8878L389.026 76.9056L391.752 78.16ZM399.72 68.848L398.121 66.3093L398.11 66.3161L398.1 66.3229L399.72 68.848ZM402.024 76.432L399.796 74.4221L399.794 74.4251L402.024 76.432ZM397.896 87.184L394.91 86.8937L394.59 90.184H397.896V87.184ZM424.104 87.184V90.184H427.104V87.184H424.104ZM422.76 79.504L419.985 80.6462L419.985 80.6462L422.76 79.504ZM418.632 74.416L416.888 76.8572L416.937 76.8923L416.987 76.9254L418.632 74.416ZM411.72 68.584C415.694 68.584 418.904 69.4445 421.481 71.0226L424.614 65.9054C420.919 63.6435 416.577 62.584 411.72 62.584V68.584ZM421.504 71.0365C424.173 72.6377 426.209 74.8978 427.631 77.9061L433.056 75.3419C431.15 71.3102 428.322 68.1303 424.591 65.8915L421.504 71.0365ZM427.66 77.9656C429.141 80.9268 429.936 84.5136 429.936 88.816H435.936C435.936 83.7744 435.002 79.2332 433.027 75.2824L427.66 77.9656ZM429.936 88.816V93.904H435.936V88.816H429.936ZM432.936 90.904H397.704V96.904H432.936V90.904ZM394.704 93.9699C394.842 100.233 396.435 105.487 399.908 109.275L404.331 105.221C402.172 102.865 400.821 99.2228 400.703 93.8381L394.704 93.9699ZM399.953 109.323C403.524 113.053 408.382 114.76 414.12 114.76V108.76C409.617 108.76 406.475 107.459 404.286 105.173L399.953 109.323ZM414.12 114.76C417.552 114.76 420.666 114.458 423.434 113.819L422.085 107.973C419.861 108.486 417.215 108.76 414.12 108.76V114.76ZM423.487 113.806C426.218 113.124 428.994 112.174 431.813 110.965L429.45 105.451C426.893 106.546 424.421 107.388 422.032 107.986L423.487 113.806ZM427.632 108.208V115.6H433.632V108.208H427.632ZM429.426 112.853C426.981 113.926 424.595 114.689 422.267 115.154L423.444 121.038C426.236 120.479 429.034 119.578 431.837 118.347L429.426 112.853ZM422.197 115.169C419.912 115.683 417.104 115.96 413.736 115.96V121.96C417.407 121.96 420.679 121.661 423.514 121.023L422.197 115.169ZM413.736 115.96C409.289 115.96 405.459 115.056 402.171 113.328L399.38 118.64C403.644 120.88 408.454 121.96 413.736 121.96V115.96ZM402.19 113.338C399.025 111.647 396.526 109.141 394.678 105.725L389.401 108.579C391.777 112.971 395.102 116.353 399.361 118.63L402.19 113.338ZM394.705 105.776C392.929 102.335 391.968 98.0016 391.968 92.656H385.968C385.968 98.7024 387.054 104.033 389.374 108.528L394.705 105.776ZM391.968 92.656C391.968 87.3445 392.844 82.9622 394.477 79.4144L389.026 76.9056C386.947 81.4218 385.968 86.7035 385.968 92.656H391.968ZM394.46 79.4498C396.166 75.8667 398.468 73.2149 401.339 71.3731L398.1 66.3229C394.187 68.8331 391.177 72.3893 389.043 76.8702L394.46 79.4498ZM401.318 71.3867C404.243 69.5453 407.675 68.584 411.72 68.584V62.584C406.676 62.584 402.108 63.7987 398.121 66.3093L401.318 71.3867ZM411.624 69.496C406.875 69.496 402.816 71.0759 399.796 74.4221L404.251 78.4419C405.967 76.54 408.308 75.496 411.624 75.496V69.496ZM399.794 74.4251C396.935 77.6018 395.399 81.8646 394.91 86.8937L400.881 87.4743C401.288 83.2874 402.504 80.3822 404.253 78.4389L399.794 74.4251ZM397.896 90.184H424.104V84.184H397.896V90.184ZM427.104 87.184C427.104 83.9431 426.611 80.9786 425.534 78.3617L419.985 80.6462C420.7 82.3814 421.104 84.5369 421.104 87.184H427.104ZM425.534 78.3617C424.422 75.6623 422.669 73.4746 420.276 71.9066L416.987 76.9254C418.306 77.7894 419.305 78.9937 419.985 80.6462L425.534 78.3617ZM420.375 71.9748C417.938 70.2341 414.937 69.496 411.624 69.496V75.496C414.07 75.496 415.741 76.0379 416.888 76.8572L420.375 71.9748Z" fill="#0090C1"/>
<path d="M456.434 112.774L502.671 16.728C498.497 13.7212 496.019 13.01 491.403 13.1266L446.586 110.369L442.396 129.207L456.434 112.774Z" fill="#0090C1" stroke="#0090C1"/>
</g>
<defs>
<clipPath id="clip0_1_2">
<rect width="504" height="144" fill="white"/>
</clipPath>
</defs>
</svg>
